<svg width="81" height="81" viewBox="0 0 81 81" fill="none" xmlns="http://www.w3.org/2000/svg">
<circle cx="40.5" cy="40.5" r="40.5" transform="rotate(180 40.5 40.5)" fill="#F1F6FC"/>
<path d="M48.5269 55.2055L34.6947 41.1512C34.3913 40.8445 34.2212 40.4306 34.2212 39.9992C34.2212 39.5679 34.3913 39.1539 34.6947 38.8473L48.5239 24.7929C48.8271 24.4844 48.997 24.0691 48.997 23.6365C48.997 23.2039 48.8271 22.7886 48.5239 22.4801C48.3758 22.3281 48.1987 22.2074 48.0032 22.1249C47.8077 22.0425 47.5976 22 47.3855 22C47.1733 22 46.9632 22.0425 46.7677 22.1249C46.5722 22.2074 46.3952 22.3281 46.247 22.4801L32.4179 36.5314C31.5091 37.4569 31 38.7022 31 39.9992C31 41.2963 31.5091 42.5415 32.4179 43.4671L46.247 57.5184C46.3952 57.6708 46.5724 57.7919 46.7682 57.8747C46.964 57.9574 47.1744 58 47.387 58C47.5995 58 47.8099 57.9574 48.0057 57.8747C48.2015 57.7919 48.3787 57.6708 48.5269 57.5184C48.8301 57.2098 49 56.7946 49 56.362C49 55.9294 48.8301 55.5141 48.5269 55.2055Z" fill="black"/>
</svg>
