<svg width="71" height="112" viewBox="0 0 71 112" fill="none" xmlns="http://www.w3.org/2000/svg">
<path d="M29.9631 0.116653C18.0395 1.53215 8.07754 6.41189 3.46196 13.1914C1.19264 16.5066 -0.461275 22.4666 0.115672 25.3348L0.346451 26.5641L3.57735 23.5096C5.38512 21.8334 8.53909 19.3376 10.6161 17.9966C23.3859 9.80164 35.0786 8.87038 39.0788 15.7244C40.5019 18.1456 40.3096 21.4609 38.6173 24.7016C36.8479 28.0913 34.7709 30.4008 31.5016 32.4868L28.8476 34.2003L27.6937 37.7763C26.5014 41.5013 26.5014 42.2091 27.6168 41.7993C29.2707 41.1661 34.7325 39.7506 37.6172 39.2291C48.3484 37.2548 53.8871 40.2348 53.8871 47.9455C53.8871 51.5215 52.3101 53.98 48.6561 56.1033C43.8867 58.8598 36.9633 60.4988 20.155 62.8828C11.77 64.0375 7.00057 67.092 3.30811 73.648C2.03883 75.9202 0.346451 80.502 0.346451 81.7312C0.346451 82.141 0.615692 82.1037 1.50034 81.4705C3.15426 80.3157 7.42367 78.5277 10.7315 77.5592C15.1548 76.2927 21.9627 75.2497 31.5016 74.393C45.2714 73.1265 50.9255 71.8227 57.0796 68.3957C61.8874 65.751 66.6184 61.0948 68.7339 56.8855C72.5033 49.3983 71.5032 40.7563 66.2338 35.4296C60.8489 29.9911 52.7332 28.1658 43.4251 30.2518C42.6943 30.4381 42.8482 30.2891 43.8867 29.7303C46.656 28.2403 49.81 24.9996 51.4255 21.9451C55.6949 13.9364 53.7333 6.07664 46.5407 2.50065C43.2713 0.898903 34.3478 -0.404846 29.9631 0.116653Z" fill="#F3F7F8"/>
<path d="M16.1868 25.6156L14.4962 26.2387L13.6321 29.5373C12.8807 32.3594 11.6785 38.0036 10.1757 45.6637C9.83761 47.4596 9.80004 47.423 9.87518 44.7108C9.95031 42.1452 9.87518 41.8886 9.04865 41.2656C8.44754 40.8258 8.22213 40.7891 8.44754 41.119C8.59782 41.4122 8.22213 41.0823 7.58345 40.4593C6.53151 39.3597 5.55471 39.3597 6.23096 40.4226C6.4188 40.6792 6.34366 40.7158 6.04311 40.5692C5.78013 40.386 5.70499 40.0194 5.8177 39.6529C5.96797 39.3231 6.19339 37.7837 6.38123 36.1711C6.56908 34.5951 6.83207 32.9458 6.98234 32.506C7.13262 31.9929 7.09505 31.8463 6.83207 32.1028C5.9304 32.9824 3.93923 49.1089 3.56354 58.8581C3.45083 61.6802 3.26298 65.3453 3.18785 66.9946L3 70L5.89283 67.1779C8.82324 64.3191 12.1293 62.3399 14.8719 61.7902L16.0365 61.5703L16.262 54.35C16.4874 47.1664 17.4642 36.6476 18.5912 29.4273C18.8918 27.3382 19.0796 25.469 18.9669 25.2857C18.6664 24.8459 18.1028 24.8826 16.1868 25.6156ZM9.64976 50.1351C9.57462 50.7215 9.49948 50.3184 9.49948 49.3288C9.49948 48.3026 9.57462 47.8628 9.64976 48.3026C9.7249 48.779 9.7249 49.5854 9.64976 50.1351Z" fill="#FFE8C8"/>
<mask id="path-3-inside-1_12_708" fill="white">
<path d="M29.3177 96.5169C29.6206 104.801 29.8477 104.47 23.6765 104.654C16.4453 104.875 15.0823 103.917 16.4453 99.536C16.5588 99.0941 16.2181 98.8364 15.0823 98.5419C13.1514 98.0632 13 98.2841 13 102.261C13 104.985 13.0757 105.206 14.0601 106.053C15.8395 107.562 18.8305 108.151 23.563 107.967C26.7053 107.857 28.2198 107.599 29.507 107.047C31.0971 106.347 31.3243 106.347 32.3465 106.863C33.7473 107.562 37.2305 107.526 38.4041 106.752C39.237 106.237 39.3885 106.237 40.2593 106.789C41.4708 107.562 46.014 107.599 47.4905 106.826C48.437 106.347 48.6642 106.347 49.4214 106.826C50.5951 107.599 55.1383 107.562 56.7284 106.752C58.0156 106.126 59 104.322 59 102.629C59 101.745 57.9399 96.9955 57.6749 96.7009C57.4856 96.48 54.4568 97.4741 54.4568 97.7319C54.4568 97.8791 54.7218 98.726 55.0247 99.5728C55.7062 101.487 55.7819 103.991 55.1383 104.028C52.9424 104.249 52.223 104.286 51.2765 104.101C50.2165 103.917 50.2165 103.881 50.4436 101.966C50.6708 99.8673 50.4436 99.5728 48.5885 99.5728C47.6798 99.5728 47.5284 99.7937 47.0741 102.076C46.6576 103.991 45.2189 104.617 42.1901 104.101C41.13 103.917 41.13 103.881 41.3193 101.966C41.5465 99.8305 41.3193 99.5728 39.3128 99.5728C38.3663 99.5728 38.2527 99.7201 38.0255 101.414C37.8362 102.776 37.5333 103.402 36.8897 103.807C35.9053 104.433 33.9366 104.212 33.2173 103.402C32.9901 103.107 32.7251 100.346 32.6115 96.4432L32.3844 90H30.7185H29.0527L29.3177 96.5169ZM33.028 103.954C34.1259 105.132 36.7383 105.022 37.7605 103.77C38.2148 103.218 38.5556 102.518 38.5556 102.224C38.5556 101.745 38.6691 101.745 39.0099 102.076C39.2749 102.334 39.5778 102.518 39.7292 102.518C40.1835 102.518 40.3728 100.714 39.9185 100.53C39.6914 100.456 39.7671 100.346 40.1078 100.346C40.6379 100.309 40.7136 100.604 40.5243 102.04C40.2971 104.175 40.9407 104.727 43.7045 104.727C46.3926 104.727 46.8469 104.506 47.6798 102.739C48.172 101.708 48.3613 101.524 48.2099 102.187C48.0963 102.813 48.2099 103.255 48.5128 103.365C48.7778 103.476 49.0049 103.255 49.0049 102.923C49.0049 102.592 49.1564 101.929 49.3078 101.451C49.5728 100.677 49.535 100.604 48.8156 100.788C48.3992 100.898 48.0206 100.825 48.0206 100.641C48.0206 100.456 48.437 100.309 48.9671 100.309C49.9136 100.309 49.9136 100.383 49.6864 102.113C49.4593 103.696 49.535 103.954 50.2165 104.322C51.2008 104.838 54.6461 104.838 55.6305 104.359C56.1605 104.065 56.3498 103.549 56.3877 102.408C56.4255 101.377 56.5012 101.156 56.6148 101.782C56.9556 103.439 57.637 103.365 57.9021 101.671L58.1292 100.125L58.1671 101.966C58.2428 104.47 57.9778 105.316 56.8041 106.053C55.3276 107.01 51.5416 107.157 49.8757 106.311C48.6263 105.648 48.437 105.648 47.642 106.163C46.279 107.047 41.1679 106.973 40.1078 106.053C39.3506 105.39 39.2749 105.39 38.6313 105.942C37.8362 106.642 34.8831 107.121 33.4823 106.789C32.9901 106.679 32.3086 106.311 32.0058 106.053C31.5514 105.574 31.2486 105.611 29.8477 106.274C27.879 107.231 22.5786 107.746 19.3605 107.305C15.8395 106.826 14.4765 106.053 13.7193 104.138C12.8486 101.929 13.3407 101.598 14.2872 103.77C14.7037 104.691 15.158 105.464 15.2716 105.464C15.423 105.464 15.3852 105.28 15.2716 105.096C15.158 104.875 15.2337 104.727 15.4988 104.727C15.8016 104.727 15.7638 104.47 15.3473 103.881C14.9687 103.291 14.893 102.666 15.0823 101.598L15.3852 100.125L15.423 101.671C15.4988 104.47 17.4675 105.464 22.8436 105.464C28.2576 105.464 30.2263 104.47 30.2263 101.671L30.2642 100.125L30.7942 101.598C31.4379 103.328 31.4757 103.66 30.9835 102.886C30.7564 102.555 30.6049 102.518 30.6049 102.776C30.6049 103.034 30.9078 103.402 31.2864 103.586C31.8543 103.881 31.93 103.696 31.8543 101.487L31.8165 99.0205L32.0815 101.082C32.1951 102.334 32.6115 103.476 33.028 103.954ZM39.1992 101.119C39.0856 101.414 38.972 101.303 38.972 100.898C38.9342 100.493 39.0477 100.272 39.1613 100.42C39.2749 100.53 39.3128 100.861 39.1992 101.119Z"/>
</mask>
<path d="M29.3177 96.5169C29.6206 104.801 29.8477 104.47 23.6765 104.654C16.4453 104.875 15.0823 103.917 16.4453 99.536C16.5588 99.0941 16.2181 98.8364 15.0823 98.5419C13.1514 98.0632 13 98.2841 13 102.261C13 104.985 13.0757 105.206 14.0601 106.053C15.8395 107.562 18.8305 108.151 23.563 107.967C26.7053 107.857 28.2198 107.599 29.507 107.047C31.0971 106.347 31.3243 106.347 32.3465 106.863C33.7473 107.562 37.2305 107.526 38.4041 106.752C39.237 106.237 39.3885 106.237 40.2593 106.789C41.4708 107.562 46.014 107.599 47.4905 106.826C48.437 106.347 48.6642 106.347 49.4214 106.826C50.5951 107.599 55.1383 107.562 56.7284 106.752C58.0156 106.126 59 104.322 59 102.629C59 101.745 57.9399 96.9955 57.6749 96.7009C57.4856 96.48 54.4568 97.4741 54.4568 97.7319C54.4568 97.8791 54.7218 98.726 55.0247 99.5728C55.7062 101.487 55.7819 103.991 55.1383 104.028C52.9424 104.249 52.223 104.286 51.2765 104.101C50.2165 103.917 50.2165 103.881 50.4436 101.966C50.6708 99.8673 50.4436 99.5728 48.5885 99.5728C47.6798 99.5728 47.5284 99.7937 47.0741 102.076C46.6576 103.991 45.2189 104.617 42.1901 104.101C41.13 103.917 41.13 103.881 41.3193 101.966C41.5465 99.8305 41.3193 99.5728 39.3128 99.5728C38.3663 99.5728 38.2527 99.7201 38.0255 101.414C37.8362 102.776 37.5333 103.402 36.8897 103.807C35.9053 104.433 33.9366 104.212 33.2173 103.402C32.9901 103.107 32.7251 100.346 32.6115 96.4432L32.3844 90H30.7185H29.0527L29.3177 96.5169ZM33.028 103.954C34.1259 105.132 36.7383 105.022 37.7605 103.77C38.2148 103.218 38.5556 102.518 38.5556 102.224C38.5556 101.745 38.6691 101.745 39.0099 102.076C39.2749 102.334 39.5778 102.518 39.7292 102.518C40.1835 102.518 40.3728 100.714 39.9185 100.53C39.6914 100.456 39.7671 100.346 40.1078 100.346C40.6379 100.309 40.7136 100.604 40.5243 102.04C40.2971 104.175 40.9407 104.727 43.7045 104.727C46.3926 104.727 46.8469 104.506 47.6798 102.739C48.172 101.708 48.3613 101.524 48.2099 102.187C48.0963 102.813 48.2099 103.255 48.5128 103.365C48.7778 103.476 49.0049 103.255 49.0049 102.923C49.0049 102.592 49.1564 101.929 49.3078 101.451C49.5728 100.677 49.535 100.604 48.8156 100.788C48.3992 100.898 48.0206 100.825 48.0206 100.641C48.0206 100.456 48.437 100.309 48.9671 100.309C49.9136 100.309 49.9136 100.383 49.6864 102.113C49.4593 103.696 49.535 103.954 50.2165 104.322C51.2008 104.838 54.6461 104.838 55.6305 104.359C56.1605 104.065 56.3498 103.549 56.3877 102.408C56.4255 101.377 56.5012 101.156 56.6148 101.782C56.9556 103.439 57.637 103.365 57.9021 101.671L58.1292 100.125L58.1671 101.966C58.2428 104.47 57.9778 105.316 56.8041 106.053C55.3276 107.01 51.5416 107.157 49.8757 106.311C48.6263 105.648 48.437 105.648 47.642 106.163C46.279 107.047 41.1679 106.973 40.1078 106.053C39.3506 105.39 39.2749 105.39 38.6313 105.942C37.8362 106.642 34.8831 107.121 33.4823 106.789C32.9901 106.679 32.3086 106.311 32.0058 106.053C31.5514 105.574 31.2486 105.611 29.8477 106.274C27.879 107.231 22.5786 107.746 19.3605 107.305C15.8395 106.826 14.4765 106.053 13.7193 104.138C12.8486 101.929 13.3407 101.598 14.2872 103.77C14.7037 104.691 15.158 105.464 15.2716 105.464C15.423 105.464 15.3852 105.28 15.2716 105.096C15.158 104.875 15.2337 104.727 15.4988 104.727C15.8016 104.727 15.7638 104.47 15.3473 103.881C14.9687 103.291 14.893 102.666 15.0823 101.598L15.3852 100.125L15.423 101.671C15.4988 104.47 17.4675 105.464 22.8436 105.464C28.2576 105.464 30.2263 104.47 30.2263 101.671L30.2642 100.125L30.7942 101.598C31.4379 103.328 31.4757 103.66 30.9835 102.886C30.7564 102.555 30.6049 102.518 30.6049 102.776C30.6049 103.034 30.9078 103.402 31.2864 103.586C31.8543 103.881 31.93 103.696 31.8543 101.487L31.8165 99.0205L32.0815 101.082C32.1951 102.334 32.6115 103.476 33.028 103.954ZM39.1992 101.119C39.0856 101.414 38.972 101.303 38.972 100.898C38.9342 100.493 39.0477 100.272 39.1613 100.42C39.2749 100.53 39.3128 100.861 39.1992 101.119Z" fill="#F3F7F8"/>
<path d="M29.3177 96.5169L39.3094 96.1105L39.3103 96.131L39.311 96.1515L29.3177 96.5169ZM23.6765 104.654L23.3712 94.6584L23.3784 94.6582L23.6765 104.654ZM16.4453 99.536L26.1304 102.026L26.0681 102.268L25.9939 102.506L16.4453 99.536ZM15.0823 98.5419L17.4884 88.8356L17.5405 88.8486L17.5926 88.8621L15.0823 98.5419ZM14.0601 106.053L7.59096 113.678L7.56465 113.656L7.53849 113.634L14.0601 106.053ZM23.563 107.967L23.1743 97.9749L23.193 97.9742L23.2117 97.9735L23.563 107.967ZM29.507 107.047L33.5339 116.2L33.4919 116.219L33.4498 116.237L29.507 107.047ZM32.3465 106.863L27.8788 115.809L27.8614 115.801L27.844 115.792L32.3465 106.863ZM38.4041 106.752L32.9028 98.4016L33.0212 98.3236L33.1418 98.249L38.4041 106.752ZM40.2593 106.789L45.6152 98.3444L45.6271 98.352L45.639 98.3596L40.2593 106.789ZM47.4905 106.826L42.8516 97.9671L42.9145 97.9342L42.9778 97.9021L47.4905 106.826ZM49.4214 106.826L54.7646 98.3732L54.8441 98.4234L54.9227 98.4752L49.4214 106.826ZM56.7284 106.752L52.1894 97.8418L52.2721 97.7997L52.3555 97.7592L56.7284 106.752ZM57.6749 96.7009L50.2411 103.39L50.1602 103.3L50.0815 103.208L57.6749 96.7009ZM55.0247 99.5728L64.4405 96.205L64.4431 96.2122L64.4457 96.2194L55.0247 99.5728ZM55.1383 104.028L54.1373 94.078L54.3519 94.0564L54.5672 94.0441L55.1383 104.028ZM51.2765 104.101L52.9875 94.2489L53.0868 94.2661L53.1857 94.2854L51.2765 104.101ZM50.4436 101.966L60.3856 103.042L60.38 103.093L60.374 103.144L50.4436 101.966ZM47.0741 102.076L56.8817 104.028L56.8644 104.115L56.8456 104.202L47.0741 102.076ZM42.1901 104.101L40.5124 113.96L40.4958 113.957L40.4792 113.954L42.1901 104.101ZM41.3193 101.966L31.3679 100.982L31.3715 100.945L31.3754 100.908L41.3193 101.966ZM38.0255 101.414L47.9368 102.743L47.9336 102.767L47.9303 102.79L38.0255 101.414ZM36.8897 103.807L31.524 95.3683L31.5439 95.3557L31.5638 95.3431L36.8897 103.807ZM33.2173 103.402L25.7402 110.042L25.5102 109.783L25.2987 109.509L33.2173 103.402ZM32.6115 96.4432L42.6053 96.0909L42.6064 96.1216L42.6073 96.1523L32.6115 96.4432ZM32.3844 90V80H42.038L42.3782 89.6477L32.3844 90ZM29.0527 90L19.0609 90.4063L18.6377 80H29.0527V90ZM33.028 103.954L25.7122 110.772L25.5959 110.647L25.4839 110.518L33.028 103.954ZM37.7605 103.77L30.0149 97.4451L30.0263 97.4311L30.0378 97.4171L37.7605 103.77ZM39.0099 102.076L32.0381 109.245L39.0099 102.076ZM39.9185 100.53L43.0022 91.0174L43.3424 91.1277L43.674 91.262L39.9185 100.53ZM40.1078 100.346L40.8008 110.322L40.4547 110.346H40.1078V100.346ZM40.5243 102.04L30.5804 100.982L30.5937 100.857L30.6101 100.733L40.5243 102.04ZM47.6798 102.739L38.6341 98.4759L38.6448 98.4533L38.6555 98.4308L47.6798 102.739ZM48.2099 102.187L38.3706 100.401L38.4109 100.179L38.4612 99.9592L48.2099 102.187ZM48.5128 103.365L51.9389 93.9703L52.1512 94.0477L52.3598 94.1347L48.5128 103.365ZM49.3078 101.451L39.7737 98.4339L39.8095 98.3206L39.8481 98.2081L49.3078 101.451ZM48.8156 100.788L46.252 91.122L46.2942 91.1108L46.3364 91.1L48.8156 100.788ZM49.6864 102.113L59.6014 103.415L59.5936 103.474L59.585 103.534L49.6864 102.113ZM50.2165 104.322L45.5775 113.181L45.5201 113.151L45.4631 113.12L50.2165 104.322ZM55.6305 104.359L60.4879 113.1L60.2491 113.233L60.0033 113.352L55.6305 104.359ZM56.3877 102.408L46.3932 102.076L46.3937 102.059L46.3944 102.041L56.3877 102.408ZM56.6148 101.782L46.8198 103.796L46.7963 103.682L46.7755 103.567L56.6148 101.782ZM57.9021 101.671L67.7959 103.125L67.7891 103.171L67.7818 103.217L57.9021 101.671ZM58.1292 100.125L48.2354 98.6717L68.1271 99.9194L58.1292 100.125ZM58.1671 101.966L48.1717 102.268L48.1702 102.22L48.1692 102.172L58.1671 101.966ZM56.8041 106.053L51.3641 97.662L51.4265 97.6215L51.4895 97.582L56.8041 106.053ZM49.8757 106.311L45.3442 115.225L45.2666 115.185L45.1897 115.145L49.8757 106.311ZM47.642 106.163L42.202 97.7724L42.202 97.7724L47.642 106.163ZM40.1078 106.053L33.5515 113.604L33.5366 113.591L33.5218 113.578L40.1078 106.053ZM38.6313 105.942L32.0256 98.4347L32.0722 98.3937L32.1193 98.3533L38.6313 105.942ZM33.4823 106.789L35.672 97.0319L35.7282 97.0445L35.7843 97.0577L33.4823 106.789ZM32.0058 106.053L25.5252 113.669L25.1195 113.324L24.7528 112.937L32.0058 106.053ZM29.8477 106.274L25.4749 97.2805L25.5229 97.2572L25.5712 97.2343L29.8477 106.274ZM19.3605 107.305L20.7075 97.3958L20.7207 97.3976L19.3605 107.305ZM13.7193 104.138L4.4202 107.816L4.41602 107.805L13.7193 104.138ZM14.2872 103.77L5.1764 107.892L5.14759 107.829L5.11968 107.765L14.2872 103.77ZM15.2716 105.096L6.76107 110.346L6.55643 110.015L6.37822 109.668L15.2716 105.096ZM15.3473 103.881L7.18176 109.653L7.05428 109.473L6.93487 109.287L15.3473 103.881ZM15.0823 101.598L5.23586 99.8521L5.25974 99.7174L5.2873 99.5834L15.0823 101.598ZM15.3852 100.125L5.59018 98.1106L25.3822 99.8803L15.3852 100.125ZM15.423 101.671L5.4267 101.942L5.42636 101.929L5.42604 101.916L15.423 101.671ZM30.2263 101.671H20.2263V101.549L20.2293 101.427L30.2263 101.671ZM30.2642 100.125L20.2672 99.8803L39.6734 96.7387L30.2642 100.125ZM30.7942 101.598L21.4215 105.084L21.403 105.034L21.3851 104.984L30.7942 101.598ZM30.9835 102.886L39.2315 97.2322L39.3279 97.3727L39.4194 97.5165L30.9835 102.886ZM31.2864 103.586L35.6593 94.5928L35.7757 94.6494L35.8906 94.7089L31.2864 103.586ZM31.8543 101.487L21.8602 101.83L21.857 101.735L21.8555 101.641L31.8543 101.487ZM31.8165 99.0205L21.8176 99.174L41.7349 97.7456L31.8165 99.0205ZM32.0815 101.082L41.9999 99.8075L42.0237 99.9927L42.0406 100.179L32.0815 101.082ZM39.1992 101.119L29.8688 97.5213L29.9535 97.3017L30.0484 97.0864L39.1992 101.119ZM38.972 100.898L48.9286 99.9675L48.972 100.432V100.898H38.972ZM39.1613 100.42L32.1896 107.589L31.6783 107.091L31.2427 106.527L39.1613 100.42ZM39.311 96.1515C39.3773 97.9657 39.4725 99.9823 39.4278 101.543C39.3934 102.745 39.3114 106.194 37.1418 109.322C34.4379 113.22 30.4736 114.095 28.6644 114.362C27.0696 114.598 25.0548 114.617 23.9747 114.649L23.3784 94.6582C24.2622 94.6318 24.7783 94.6212 25.2798 94.6C25.7722 94.5791 25.8504 94.5611 25.7437 94.5768C25.6547 94.59 24.911 94.6962 23.9389 95.1611C22.8084 95.7018 21.622 96.6057 20.708 97.9235C19.8751 99.1243 19.5946 100.202 19.5007 100.656C19.4118 101.086 19.4273 101.272 19.436 100.971C19.4437 100.7 19.4414 100.266 19.4197 99.5324C19.398 98.7947 19.3645 97.9795 19.3244 96.8822L39.311 96.1515ZM23.9819 114.649C22.0422 114.708 20.0286 114.709 18.1797 114.5C16.5293 114.313 13.6848 113.838 11.0658 111.987C7.76019 109.65 6.23728 106.198 6.0076 102.912C5.82434 100.291 6.4667 97.9476 6.89662 96.5656L25.9939 102.506C25.7424 103.315 26.044 102.735 25.9589 101.518C25.9067 100.771 25.7034 99.669 25.0721 98.4724C24.4198 97.2362 23.5209 96.2985 22.6103 95.6548C21.0656 94.5629 19.8326 94.5593 20.4289 94.6268C20.8268 94.6719 21.6952 94.7096 23.3712 94.6584L23.9819 114.649ZM6.76018 97.0462C6.42303 98.3577 6.21359 100.421 7.06428 102.714C7.89724 104.959 9.34214 106.33 10.3112 107.042C11.215 107.706 11.9892 108.012 12.2242 108.102C12.5116 108.212 12.6672 108.246 12.572 108.222L17.5926 88.8621C18.1386 89.0037 20.2304 89.5122 22.1535 90.9251C23.3354 91.7936 24.9152 93.3304 25.8156 95.7576C26.7337 98.2326 26.5243 100.493 26.1304 102.026L6.76018 97.0462ZM12.6762 108.248C12.4933 108.203 12.5751 108.228 12.7685 108.261C12.9343 108.289 13.5855 108.396 14.4852 108.347C15.4485 108.295 16.9628 108.049 18.5695 107.123C20.2409 106.159 21.3462 104.844 22.016 103.663C22.6204 102.597 22.8445 101.692 22.9254 101.317C23.0126 100.912 23.0273 100.664 23.0239 100.707C23.0138 100.838 23 101.225 23 102.261H3C3 101.308 3.00511 100.176 3.08374 99.1619C3.13573 98.491 3.29464 96.1324 4.61811 93.7982C5.42754 92.3707 6.70265 90.8788 8.58032 89.7963C10.3934 88.751 12.1505 88.4444 13.3995 88.3765C15.4221 88.2666 17.2378 88.7735 17.4884 88.8356L12.6762 108.248ZM23 102.261C23 102.959 23.0066 103.232 23.0127 103.345C23.0204 103.487 23.0098 102.939 22.783 102.138C22.656 101.689 22.4664 101.173 22.1868 100.629C21.9058 100.082 21.5932 99.6218 21.2955 99.2488C20.7945 98.621 20.3302 98.2557 20.5817 98.472L7.53849 113.634C6.86403 113.053 4.54429 111.137 3.53884 107.584C2.9316 105.438 3 103.071 3 102.261H23ZM20.5292 98.4272C19.7563 97.7715 19.2175 97.7497 19.669 97.8401C20.1603 97.9386 21.2242 98.0508 23.1743 97.9749L23.9517 117.96C18.9674 118.154 12.4897 117.834 7.59096 113.678L20.5292 98.4272ZM23.2117 97.9735C24.6207 97.924 25.3223 97.8503 25.6703 97.7953C25.9147 97.7567 25.7966 97.7573 25.5642 97.857L33.4498 116.237C30.3683 117.559 27.2863 117.843 23.9142 117.961L23.2117 97.9735ZM25.4801 97.8935C25.8507 97.7305 28.0255 96.6682 30.5405 96.5172C33.8915 96.316 36.3889 97.7018 36.849 97.9338L27.844 115.792C27.2818 115.508 29.1546 116.636 31.7389 116.481C32.8154 116.417 33.5684 116.163 33.7494 116.1C33.9077 116.045 33.9211 116.03 33.5339 116.2L25.4801 97.8935ZM36.8142 97.9163C36.2688 97.6439 35.8428 97.5126 35.6411 97.4565C35.4194 97.3948 35.2758 97.3712 35.2302 97.3643C35.1517 97.3523 35.1925 97.3628 35.3061 97.3611C35.4284 97.3592 35.4081 97.347 35.2249 97.3831C35.127 97.4024 34.8915 97.4534 34.5596 97.5696C34.2586 97.675 33.6398 97.916 32.9028 98.4016L43.9054 115.103C42.0191 116.346 40.0986 116.807 39.0941 117.005C37.8839 117.244 36.6852 117.342 35.6148 117.359C33.9551 117.384 30.7675 117.252 27.8788 115.809L36.8142 97.9163ZM33.1418 98.249C33.3475 98.1216 34.041 97.6864 34.891 97.3119C35.8807 96.8758 37.4778 96.3349 39.5009 96.3721C41.4918 96.4086 43.0327 96.9904 43.9364 97.4107C44.7358 97.7825 45.3951 98.2048 45.6152 98.3444L34.9033 115.234C34.6881 115.097 35.0019 115.313 35.502 115.545C36.1063 115.826 37.394 116.337 39.134 116.369C40.9064 116.401 42.255 115.923 42.9549 115.614C43.515 115.367 43.8772 115.125 43.6665 115.256L33.1418 98.249ZM45.639 98.3596C45.1434 98.0433 44.7168 97.8418 44.4333 97.7213C44.1408 97.5971 43.9046 97.5188 43.7515 97.4725C43.5942 97.4249 43.4766 97.3968 43.4092 97.3818C43.3397 97.3665 43.2981 97.3596 43.2881 97.3579C43.273 97.3555 43.3226 97.3638 43.4374 97.3724C43.548 97.3807 43.6852 97.3867 43.8381 97.3877C44.1735 97.3898 44.4152 97.3669 44.4941 97.3556C44.5295 97.3506 44.4304 97.362 44.2277 97.4161C44.0694 97.4583 43.5423 97.6054 42.8516 97.9671L52.1295 115.685C50.2287 116.68 48.3101 117.014 47.3221 117.155C46.096 117.33 44.8493 117.394 43.713 117.387C42.583 117.38 41.3291 117.301 40.0972 117.102C39.2396 116.963 37.0029 116.574 34.8795 115.219L45.639 98.3596ZM42.9778 97.9021C43.1725 97.8037 45.5219 96.467 48.527 96.467C51.9685 96.467 54.4091 98.1485 54.7646 98.3732L44.0782 115.279C44.0783 115.279 44.0826 115.282 44.0907 115.287C44.0987 115.292 44.1115 115.299 44.1285 115.31C44.1613 115.329 44.2174 115.363 44.2922 115.404C44.4339 115.483 44.7013 115.626 45.0637 115.778C45.8662 116.114 47.0595 116.467 48.527 116.467C49.9154 116.467 50.9634 116.149 51.4716 115.966C51.9132 115.807 52.1758 115.663 52.0033 115.75L42.9778 97.9021ZM54.9227 98.4752C54.3891 98.1237 53.925 97.9012 53.6144 97.7682C53.2943 97.6312 53.0337 97.5454 52.8626 97.4944C52.5347 97.3967 52.3347 97.3677 52.322 97.3658C52.299 97.3624 52.4823 97.3865 52.8255 97.3833C53.1571 97.3802 53.4143 97.3535 53.5238 97.3363C53.5737 97.3284 53.5053 97.336 53.3424 97.3811C53.2137 97.4166 52.7773 97.5424 52.1894 97.8418L61.2674 115.663C59.4761 116.575 57.6744 116.929 56.638 117.092C55.4117 117.286 54.1617 117.372 53.0119 117.382C51.8739 117.393 50.6019 117.332 49.3473 117.143C48.5058 117.017 46.1427 116.641 43.9201 115.177L54.9227 98.4752ZM52.3555 97.7592C50.6297 98.5983 49.8594 99.7717 49.5821 100.277C49.2607 100.862 49 101.63 49 102.629H69C69 105.321 68.2471 107.838 67.1118 109.905C66.0204 111.892 64.1144 114.28 61.1013 115.746L52.3555 97.7592ZM49 102.629C49 103.013 49.0255 103.288 49.0318 103.354C49.0411 103.453 49.0486 103.505 49.0468 103.492C49.0429 103.464 49.0263 103.353 48.9889 103.146C48.9156 102.739 48.8043 102.192 48.6774 101.624C48.5487 101.048 48.4288 100.561 48.3469 100.261C48.3013 100.094 48.2997 100.104 48.3406 100.224C48.3573 100.273 48.4334 100.497 48.5673 100.804C48.6344 100.958 48.7628 101.241 48.9545 101.587C49.0531 101.765 49.1948 102.008 49.3815 102.286C49.5606 102.553 49.8444 102.949 50.2411 103.39L65.1087 90.0123C66.3185 91.3569 66.8775 92.758 66.8996 92.8087C67.0782 93.218 67.2042 93.5749 67.2752 93.7837C67.4248 94.2236 67.5496 94.6598 67.6406 94.9933C67.832 95.6942 68.0268 96.5053 68.1963 97.2638C68.3675 98.0302 68.5378 98.8551 68.6715 99.5966C68.7391 99.9713 69 101.348 69 102.629H49ZM50.0815 103.208C52.5572 106.097 55.7133 106.502 56.1527 106.567C57.1116 106.708 57.8576 106.668 58.1292 106.65C58.7406 106.611 59.1536 106.518 59.1757 106.513C59.3198 106.482 59.2781 106.485 59.0785 106.55C58.882 106.613 58.8345 106.639 58.9537 106.587C58.9638 106.583 59.3398 106.423 59.8448 106.111C60.0585 105.979 60.7068 105.572 61.4236 104.882C61.7869 104.533 62.4184 103.874 63.0095 102.902C63.5821 101.96 64.4568 100.163 64.4568 97.7319H44.4568C44.4568 93.2692 47.3288 90.6893 47.5581 90.4686C48.3193 89.7364 49.0329 89.2816 49.3298 89.0981C50.0012 88.6831 50.6153 88.4053 50.9123 88.2749C51.6054 87.9706 52.3269 87.7136 52.9112 87.5242C53.4924 87.3358 54.2434 87.1151 55.0087 86.952C55.3414 86.8812 56.0221 86.7449 56.8353 86.6922C57.2078 86.668 58.0383 86.6291 59.0624 86.7797C59.567 86.8539 62.769 87.2773 65.2683 90.194L50.0815 103.208ZM64.4568 97.7319C64.4568 97.3785 64.4377 97.0881 64.4209 96.8922C64.4034 96.6884 64.3822 96.5175 64.3647 96.391C64.3305 96.145 64.2938 95.9525 64.2718 95.8435C64.2283 95.6275 64.1892 95.4769 64.1788 95.4373C64.155 95.346 64.149 95.333 64.179 95.43C64.233 95.6042 64.3277 95.8896 64.4405 96.205L45.6088 102.941C45.4188 102.409 45.2295 101.848 45.0753 101.35C45.0012 101.111 44.91 100.806 44.827 100.488C44.7871 100.335 44.7249 100.087 44.6658 99.7935C44.6491 99.711 44.4568 98.8312 44.4568 97.7319H64.4568ZM64.4457 96.2194C65.1504 98.1992 65.5234 100.346 65.5747 102.232C65.5982 103.095 65.5788 104.573 65.143 106.189C64.9339 106.965 64.449 108.47 63.2751 109.998C61.9674 111.699 59.4484 113.798 55.7094 114.011L54.5672 94.0441C50.989 94.2488 48.6085 96.2607 47.4172 97.8107C46.3597 99.1867 45.9691 100.476 45.8328 100.982C45.667 101.597 45.6168 102.066 45.5986 102.286C45.5783 102.533 45.5801 102.702 45.5821 102.776C45.5861 102.923 45.5805 102.861 45.6037 102.926L64.4457 96.2194ZM56.1392 113.978C54.1334 114.179 51.9776 114.425 49.3674 113.917L53.1857 94.2854C53.1113 94.2709 52.9624 94.2462 52.7762 94.2312C52.5988 94.2168 52.4899 94.2196 52.4979 94.2194C52.524 94.2188 52.6442 94.2145 52.9351 94.191C53.225 94.1675 53.6024 94.1318 54.1373 94.078L56.1392 113.978ZM49.5656 113.954C49.4525 113.934 49.1217 113.878 48.7654 113.799C48.4198 113.722 47.7163 113.555 46.8961 113.221C44.7868 112.362 42.2917 110.527 41.0402 107.263C40.1685 104.989 40.3215 102.935 40.3444 102.524C40.3812 101.864 40.4715 101.14 40.5133 100.788L60.374 103.144C60.3021 103.75 60.3072 103.748 60.3133 103.639C60.3184 103.549 60.3377 103.183 60.2989 102.674C60.2604 102.17 60.1451 101.225 59.7145 100.102C59.2443 98.8761 58.4698 97.6264 57.3281 96.5556C56.2445 95.5394 55.1543 94.9892 54.4384 94.6977C53.3752 94.2648 52.3863 94.1445 52.9875 94.2489L49.5656 113.954ZM40.5017 100.89C40.5532 100.414 40.4945 100.709 40.5266 101.274C40.5566 101.803 40.7202 103.949 42.3918 106.107C44.2218 108.469 46.5504 109.203 47.5742 109.425C48.4224 109.608 48.9864 109.573 48.5885 109.573V89.5728C49.1182 89.5728 50.4062 89.5739 51.8117 89.8786C53.3927 90.2214 56.1118 91.1599 58.2021 93.8579C60.1339 96.3515 60.4276 98.9652 60.4944 100.139C60.5631 101.35 60.4476 102.469 60.3856 103.042L40.5017 100.89ZM48.5885 109.573C48.6388 109.573 48.9647 109.574 49.4151 109.522C49.8835 109.469 50.6576 109.341 51.5698 108.996C53.784 108.159 55.3075 106.633 56.1926 105.185C56.5578 104.588 56.7652 104.087 56.8673 103.817C56.9715 103.541 57.0217 103.356 57.0287 103.329C57.0326 103.315 56.9939 103.465 56.8817 104.028L37.2664 100.124C37.3815 99.5465 37.532 98.8127 37.7204 98.115C37.8788 97.5287 38.263 96.169 39.1292 94.7522C40.2226 92.964 41.9827 91.2397 44.495 90.2895C46.4688 89.5431 48.2292 89.5728 48.5885 89.5728V109.573ZM56.8456 104.202C56.1071 107.597 53.9202 111.36 49.4784 113.222C46.0022 114.68 42.5509 114.307 40.5124 113.96L43.8679 94.2432C44.2055 94.3006 44.1748 94.2676 43.8886 94.2758C43.6064 94.2838 42.7924 94.3389 41.7451 94.778C40.5957 95.2599 39.4537 96.0873 38.5717 97.2591C37.743 98.36 37.4246 99.39 37.3026 99.9509L56.8456 104.202ZM40.4792 113.954C40.3657 113.934 40.0358 113.878 39.6804 113.799C39.3346 113.723 38.6364 113.557 37.8222 113.226C35.7339 112.379 33.28 110.586 32.0042 107.403C31.1084 105.169 31.2178 103.138 31.2331 102.717C31.2572 102.058 31.3332 101.333 31.3679 100.982L51.2708 102.95C51.2109 103.556 51.2159 103.554 51.2198 103.446C51.2231 103.356 51.2353 102.993 51.1874 102.489C51.1399 101.989 51.0086 101.06 50.5682 99.9619C50.0883 98.7646 49.3143 97.5494 48.1892 96.5086C47.1193 95.519 46.0479 94.9801 45.3383 94.6924C44.2838 94.2648 43.3052 94.1454 43.9011 94.2489L40.4792 113.954ZM31.3754 100.908C31.4296 100.399 31.3657 100.727 31.4041 101.328C31.4421 101.924 31.6485 104.207 33.5066 106.412C35.4473 108.716 37.8031 109.311 38.621 109.467C39.3425 109.606 39.7947 109.573 39.3128 109.573V89.5728C39.8341 89.5728 41.0671 89.572 42.3885 89.8255C43.8063 90.0974 46.5808 90.8903 48.8008 93.5249C50.9382 96.0614 51.2841 98.8095 51.3635 100.054C51.4433 101.305 51.3227 102.465 51.2632 103.024L31.3754 100.908ZM39.3128 109.573C39.3145 109.573 39.3576 109.573 39.4269 109.571C39.4959 109.569 39.6161 109.564 39.7719 109.552C40.0572 109.53 40.6452 109.47 41.3814 109.268C43.2235 108.765 45.1803 107.596 46.5741 105.618C47.6287 104.121 47.9113 102.757 47.9397 102.632C47.9944 102.392 47.9949 102.31 47.9368 102.743L28.1143 100.084C28.1697 99.671 28.2696 98.9351 28.439 98.1911C28.5823 97.562 28.9949 95.8438 30.2247 94.0984C31.7936 91.8717 33.9704 90.5604 36.1071 89.9762C37.6861 89.5446 39.0891 89.5728 39.3128 89.5728V109.573ZM47.9303 102.79C47.6313 104.942 46.7345 109.427 42.2156 112.271L31.5638 95.3431C31.0206 95.685 30.4147 96.1621 29.8423 96.8052C29.2716 97.4464 28.872 98.0978 28.6006 98.6675C28.1251 99.6653 28.076 100.359 28.1207 100.037L47.9303 102.79ZM42.2554 112.245C39.1295 114.233 35.8096 114.299 33.8513 114.082C32.017 113.878 28.456 113.1 25.7402 110.042L40.6944 96.7617C39.5778 95.5043 38.4073 94.915 37.786 94.6574C37.1035 94.3744 36.5129 94.2545 36.0569 94.2039C35.5953 94.1526 35.0374 94.1465 34.3881 94.2526C33.785 94.3512 32.7157 94.6106 31.524 95.3683L42.2554 112.245ZM25.2987 109.509C23.8819 107.672 23.459 105.72 23.4581 105.716C23.3143 105.168 23.2254 104.671 23.1716 104.339C23.0588 103.643 22.9758 102.884 22.9117 102.168C22.7798 100.696 22.6764 98.8194 22.6158 96.7341L42.6073 96.1523C42.6602 97.9698 42.7461 99.4255 42.8319 100.383C42.8528 100.616 42.8719 100.8 42.8881 100.939C42.905 101.083 42.9147 101.144 42.9139 101.139C42.9132 101.134 42.9065 101.093 42.8924 101.023C42.8794 100.958 42.8512 100.823 42.8033 100.64C42.7611 100.48 42.6672 100.14 42.5011 99.7112C42.4156 99.4901 42.2839 99.1744 42.0949 98.8056C41.9155 98.4556 41.6082 97.9073 41.1359 97.2949L25.2987 109.509ZM22.6177 96.7956L22.3906 90.3523L42.3782 89.6477L42.6053 96.0909L22.6177 96.7956ZM32.3844 100H30.7185V80H32.3844V100ZM30.7185 100H29.0527V80H30.7185V100ZM39.0444 89.5937L39.3094 96.1105L19.326 96.9232L19.0609 90.4063L39.0444 89.5937ZM40.3438 97.1366C38.2237 94.8615 35.8394 94.7486 35.0219 94.7814C34.1909 94.8147 31.9154 95.1177 30.0149 97.4451L45.5061 110.095C42.5833 113.674 38.4906 114.658 35.8233 114.765C33.1697 114.872 28.9303 114.225 25.7122 110.772L40.3438 97.1366ZM30.0378 97.4171C29.7713 97.7411 29.5745 98.0514 29.4046 98.3873C29.3171 98.5605 29.1689 98.874 29.0207 99.3129C28.9452 99.5364 28.8436 99.8693 28.7552 100.289C28.6735 100.676 28.5556 101.357 28.5556 102.224H48.5556C48.5556 103.91 48.1357 105.219 47.9697 105.711C47.7434 106.381 47.4817 106.959 47.2522 107.413C46.7983 108.311 46.204 109.247 45.4832 110.123L30.0378 97.4171ZM28.5556 102.224C28.5556 101.931 28.5502 100.798 28.8935 99.4624C29.1183 98.5879 30.5266 93.6234 36.1447 92.1665C40.7382 90.9753 44.1088 93.4159 44.3496 93.5768C45.2019 94.1461 45.8091 94.7396 45.9816 94.9074L32.0381 109.245C32.0403 109.248 32.5055 109.717 33.2406 110.208C33.6207 110.462 34.4212 110.96 35.5534 111.338C36.6999 111.72 38.7352 112.156 41.1652 111.526C46.7123 110.088 48.0708 105.192 48.2637 104.442C48.5751 103.231 48.5556 102.277 48.5556 102.224H28.5556ZM45.9816 94.9074C45.6421 94.5773 45.2048 94.2152 44.6341 93.8657C44.35 93.6918 43.8865 93.4309 43.2673 93.186C42.7871 92.9962 41.4899 92.5183 39.7292 92.5183V112.518C37.8928 112.518 36.5009 112.017 35.9131 111.785C35.1862 111.497 34.602 111.174 34.1902 110.922C33.364 110.416 32.6426 109.833 32.0381 109.245L45.9816 94.9074ZM39.7292 92.5183C36.1908 92.5183 33.8079 94.334 32.6773 95.5101C31.5911 96.64 31.0595 97.7482 30.8388 98.2575C30.3741 99.3299 30.2551 100.188 30.2141 100.6C30.1708 101.034 30.1295 101.835 30.3391 102.881C30.4419 103.395 30.6887 104.399 31.3302 105.547C31.9584 106.671 33.398 108.678 36.1631 109.798L43.674 91.262C46.5526 92.4284 48.0856 94.5318 48.7887 95.7898C49.505 97.0715 49.808 98.2466 49.9499 98.9553C50.2376 100.392 50.2058 101.679 50.1151 102.587C50.0268 103.472 49.8037 104.793 49.1899 106.21C48.8947 106.891 48.2773 108.141 47.0955 109.371C45.8694 110.646 43.3812 112.518 39.7292 112.518V92.5183ZM36.8349 110.043C36.3388 109.882 34.3169 109.228 32.5275 107.329C31.5203 106.261 30.0133 104.166 29.8105 101.099C29.5937 97.8186 30.9815 95.2609 32.3664 93.7218C34.575 91.267 37.2608 90.7081 37.7208 90.6053C38.7029 90.3857 39.547 90.346 40.1078 90.346V110.346C40.4983 110.346 41.2052 110.32 42.0843 110.123C42.4414 110.044 45.0585 109.517 47.234 107.099C48.6024 105.578 49.9825 103.04 49.767 99.7799C49.5656 96.7329 48.0689 94.6589 47.0812 93.6111C45.3309 91.7542 43.3846 91.1414 43.0022 91.0174L36.8349 110.043ZM39.4149 90.37C40.1616 90.3181 42.6976 90.1783 45.3773 91.7066C48.558 93.5206 49.8361 96.3927 50.2928 98.2375C50.6807 99.8043 50.6264 101.148 50.6016 101.654C50.5699 102.3 50.4957 102.912 50.4385 103.347L30.6101 100.733C30.6475 100.449 30.6349 100.485 30.6256 100.674C30.6233 100.722 30.5525 101.725 30.8788 103.043C31.274 104.64 32.4456 107.355 35.4689 109.08C37.9913 110.518 40.319 110.355 40.8008 110.322L39.4149 90.37ZM50.4682 103.097C50.4682 103.097 50.4691 103.089 50.4703 103.074C50.4716 103.059 50.4734 103.036 50.4752 103.005C50.4787 102.945 50.483 102.845 50.4822 102.711C50.4808 102.46 50.4614 101.984 50.3362 101.368C50.0517 99.9688 49.2507 98.0743 47.4574 96.5548C45.8804 95.2186 44.3438 94.8728 43.8871 94.7855C43.4176 94.6958 43.2457 94.7274 43.7045 94.7274V114.727C42.7815 114.727 41.4927 114.69 40.1323 114.43C38.7847 114.172 36.5831 113.555 34.5282 111.814C29.8113 107.817 30.4517 102.192 30.5804 100.982L50.4682 103.097ZM43.7045 94.7274C44.3311 94.7274 44.3912 94.7093 44.235 94.7267C44.0508 94.7473 43.1015 94.8603 41.925 95.4471C40.5874 96.1142 39.6547 97.0355 39.0824 97.7992C38.6496 98.3769 38.4848 98.7928 38.6341 98.4759L56.7255 107.002C56.2881 107.931 54.755 111.398 50.8508 113.345C47.8158 114.858 44.5328 114.727 43.7045 114.727V94.7274ZM38.6555 98.4308C38.8236 98.0788 39.0282 97.6665 39.2553 97.2587C39.2879 97.2002 39.9302 95.9688 41.0329 94.84C41.3594 94.5059 42.1348 93.7488 43.3234 93.082C44.3869 92.4854 47.263 91.1426 50.9305 92.1677C54.9042 93.2784 56.749 96.2687 57.429 97.8382C58.0813 99.3439 58.2007 100.644 58.2363 101.158C58.3143 102.285 58.1814 103.183 58.1427 103.444C58.0834 103.844 58.011 104.185 57.9586 104.415L38.4612 99.9592C38.4466 100.023 38.4014 100.225 38.3588 100.512C38.3368 100.66 38.2102 101.472 38.284 102.539C38.3176 103.024 38.4323 104.3 39.0774 105.789C39.7501 107.342 41.5852 110.322 45.5465 111.429C49.2017 112.451 52.0629 111.111 53.1089 110.525C54.28 109.868 55.0355 109.127 55.3395 108.816C55.9931 108.147 56.3821 107.548 56.4647 107.423C56.6091 107.202 56.6998 107.041 56.7278 106.991C56.7857 106.887 56.7822 106.884 56.7041 107.048L38.6555 98.4308ZM58.0492 103.972C58.142 103.461 58.3224 102.161 57.8902 100.48C57.4417 98.7347 55.9228 95.4232 51.9389 93.9703L45.0867 112.76C40.7999 111.197 39.0727 107.609 38.52 105.459C37.9837 103.373 38.1642 101.539 38.3706 100.401L58.0492 103.972ZM52.3598 94.1347C48.8856 92.6867 44.8612 93.3953 42.0825 95.9553C39.678 98.1705 39.0049 100.954 39.0049 102.923H59.0049C59.0049 105.224 58.2183 108.283 55.634 110.664C52.6754 113.39 48.405 114.154 44.6657 112.595L52.3598 94.1347ZM39.0049 102.923C39.0049 101.651 39.2367 100.546 39.3185 100.161C39.4418 99.5816 39.5996 98.9839 39.7737 98.4339L58.842 104.467C58.8645 104.396 58.871 104.369 58.8807 104.323C58.8868 104.294 58.9079 104.193 58.9309 104.032C58.9428 103.948 58.9594 103.819 58.9738 103.655C58.9874 103.499 59.0049 103.245 59.0049 102.923H39.0049ZM39.8481 98.2081C39.9338 97.9581 39.7632 98.4061 39.6369 99.0397C39.5699 99.3756 39.4151 100.23 39.4705 101.347C39.5268 102.484 39.8346 104.546 41.3148 106.602C44.5969 111.162 49.593 110.704 49.9181 110.681C50.8473 110.618 51.5365 110.414 51.2949 110.476L46.3364 91.1C46.4544 91.0698 47.4182 90.806 48.5484 90.7284C49.0747 90.6923 54.1986 90.2663 57.547 94.9182C59.0602 97.0205 59.3859 99.1433 59.446 100.358C59.5051 101.553 59.3403 102.501 59.2509 102.95C59.0796 103.809 58.8144 104.556 58.7675 104.693L39.8481 98.2081ZM51.3792 110.454C50.0713 110.801 48.3348 111.014 46.4122 110.652C45.5015 110.481 43.8309 110.047 42.1397 108.797C40.2431 107.394 38.0206 104.633 38.0206 100.641H58.0206C58.0206 96.7405 55.8454 94.0576 54.0328 92.7169C52.4256 91.5281 50.8757 91.141 50.1117 90.9972C48.4825 90.6905 47.1435 90.8855 46.252 91.122L51.3792 110.454ZM38.0206 100.641C38.0206 96.5075 40.3939 93.9177 41.6675 92.8494C42.977 91.7511 44.2716 91.22 44.9817 90.9707C46.4906 90.4408 47.906 90.3091 48.9671 90.3091V110.309C49.4982 110.309 50.4402 110.251 51.6084 109.841C52.1482 109.651 53.3055 109.192 54.5203 108.173C55.6993 107.184 58.0206 104.681 58.0206 100.641H38.0206ZM48.9671 90.3091C49.1042 90.3091 49.4648 90.3089 49.8763 90.3335C50.2638 90.3567 51.075 90.42 52.0451 90.6742C53.0643 90.9412 54.5569 91.4946 56.0234 92.7009C57.5646 93.9687 58.5427 95.5167 59.1051 96.9849C60.0087 99.3436 59.7998 101.49 59.7795 101.785C59.7363 102.415 59.643 103.097 59.6014 103.415L39.7715 100.812C39.8434 100.264 39.8353 100.288 39.8264 100.417C39.8199 100.512 39.7952 100.886 39.8276 101.405C39.8586 101.9 39.9618 102.921 40.4287 104.14C40.9461 105.49 41.8609 106.948 43.3177 108.146C44.6997 109.283 46.0867 109.788 46.9763 110.021C48.3266 110.375 49.5103 110.309 48.9671 110.309V90.3091ZM59.585 103.534C59.535 103.882 59.5504 103.838 59.5618 103.636C59.5704 103.484 59.6287 102.537 59.3222 101.289C58.9438 99.7479 58.1404 98.2445 56.9308 97.0193C55.958 96.0338 55.0219 95.5524 54.9698 95.5243L45.4631 113.12C45.0703 112.908 43.8691 112.256 42.6976 111.07C41.2893 109.643 40.3533 107.907 39.8992 106.058C39.517 104.502 39.5564 103.171 39.5933 102.513C39.6331 101.806 39.7242 101.136 39.7878 100.693L59.585 103.534ZM54.8554 95.4634C54.0226 95.0274 53.3598 94.8519 53.1556 94.7999C52.8847 94.731 52.7157 94.708 52.6902 94.7045C52.6427 94.6981 52.7476 94.7127 52.965 94.7136C53.1801 94.7145 53.2992 94.7011 53.2744 94.7042C53.2604 94.7059 53.1116 94.724 52.8644 94.7822C52.6841 94.8246 52.058 94.9768 51.2576 95.366L60.0033 113.352C58.1959 114.231 56.414 114.468 55.7409 114.551C54.7625 114.673 53.7742 114.717 52.8819 114.713C51.9919 114.71 50.9894 114.658 49.9883 114.521C49.3042 114.428 47.4461 114.16 45.5775 113.181L54.8554 95.4634ZM50.773 95.6182C50.0146 96.0396 49.1674 96.664 48.3977 97.5557C47.6325 98.4419 47.1517 99.3515 46.8573 100.119C46.3577 101.421 46.3831 102.379 46.3932 102.076L66.3822 102.739C66.3543 103.578 66.2662 105.364 65.53 107.283C64.5848 109.747 62.8397 111.793 60.4879 113.1L50.773 95.6182ZM46.3944 102.041C46.4068 101.702 46.4267 101.293 46.4644 100.88C46.4646 100.877 46.5466 99.5326 47.057 98.1058C47.2036 97.696 47.6065 96.6262 48.4678 95.4699C49.2232 94.4558 51.6506 91.6513 56.0308 91.4442C60.4234 91.2365 63.1093 93.8125 63.9635 94.7648C64.9316 95.8441 65.4311 96.8794 65.6142 97.2755C66.252 98.6555 66.4535 99.993 66.4541 99.9964L46.7755 103.567C46.784 103.614 46.8151 103.783 46.8749 104.021C46.9052 104.142 47.0723 104.828 47.4593 105.666C47.6305 106.036 48.1185 107.053 49.0754 108.119C49.9183 109.059 52.5933 111.629 56.9752 111.422C61.3447 111.215 63.7618 108.418 64.5072 107.417C65.3584 106.274 65.7516 105.225 65.8887 104.841C66.1982 103.976 66.3035 103.28 66.3231 103.156C66.3615 102.914 66.3775 102.742 66.3819 102.694C66.3912 102.593 66.3874 102.598 66.3809 102.775L46.3944 102.041ZM66.4098 99.7675C66.3954 99.6974 66.228 98.8127 65.5697 97.6793C65.3224 97.2535 62.505 92.4515 56.3558 93.0265C53.4788 93.2955 51.5066 94.7248 50.4562 95.7578C49.4343 96.7628 48.8922 97.7519 48.6423 98.2665C48.1429 99.2945 48.0333 100.055 48.0223 100.125L67.7818 103.217C67.6383 104.134 67.3442 105.54 66.6318 107.006C66.3106 107.667 64.0197 112.397 58.2179 112.94C51.8226 113.538 48.7544 108.549 48.2752 107.724C47.385 106.192 47.0046 104.695 46.8198 103.796L66.4098 99.7675ZM48.0082 100.218L48.2354 98.6717L68.023 101.578L67.7959 103.125L48.0082 100.218ZM68.1271 99.9194L68.165 101.76L48.1692 102.172L48.1313 100.331L68.1271 99.9194ZM68.1625 101.664C68.2008 102.929 68.2595 105.354 67.4505 107.806C66.3502 111.14 64.1746 113.234 62.1188 114.524L51.4895 97.582C51.2072 97.7591 50.5664 98.1991 49.9027 98.98C49.1932 99.815 48.7283 100.719 48.4578 101.539C48.218 102.265 48.1817 102.774 48.178 102.825C48.1742 102.876 48.186 102.742 48.1717 102.268L68.1625 101.664ZM62.2441 114.444C59.1951 116.42 55.6511 116.781 53.7886 116.851C51.8369 116.925 48.4363 116.797 45.3442 115.225L54.4073 97.3962C53.9067 97.1418 53.5136 97.0161 53.3114 96.959C53.0958 96.898 52.9569 96.8757 52.9128 96.8692C52.839 96.8583 52.8935 96.8706 53.0332 96.8654C53.1757 96.86 53.2069 96.844 53.0944 96.8698C53.031 96.8843 52.8601 96.9266 52.608 97.0221C52.3727 97.1112 51.9193 97.3021 51.3641 97.662L62.2441 114.444ZM45.1897 115.145C44.889 114.985 45.0127 115.062 45.2895 115.176C45.5797 115.296 46.5743 115.691 47.9818 115.777C51.3325 115.98 53.6403 114.192 53.082 114.554L42.202 97.7724C42.4387 97.6189 45.2387 95.573 49.1952 95.8135C52.0903 95.9895 54.4795 97.4328 54.5617 97.4764L45.1897 115.145ZM53.082 114.554C50.8451 116.004 48.4581 116.397 47.5204 116.538C46.1908 116.737 44.8346 116.801 43.6158 116.784C42.4066 116.766 41.0336 116.663 39.6868 116.409C39.0155 116.283 38.1707 116.085 37.2729 115.76C36.5008 115.48 35.0078 114.868 33.5515 113.604L46.6641 98.502C46.0165 97.9397 45.4236 97.5857 45.0355 97.38C44.6337 97.1669 44.3009 97.0339 44.0871 96.9564C43.6771 96.8078 43.4161 96.7601 43.3944 96.756C43.3467 96.747 43.5354 96.7802 43.9069 96.7856C44.0684 96.788 44.221 96.7843 44.3508 96.7766C44.4142 96.7729 44.4653 96.7686 44.5033 96.7648C44.5417 96.7609 44.5596 96.7583 44.5573 96.7586C44.5561 96.7588 44.5219 96.7639 44.4584 96.7773C44.3971 96.7903 44.283 96.8165 44.1268 96.8628C43.9143 96.9258 43.1425 97.1626 42.202 97.7724L53.082 114.554ZM33.5218 113.578C33.27 113.357 33.557 113.627 34.0025 113.932C34.4373 114.23 36.1031 115.338 38.6172 115.517C41.3863 115.714 43.4009 114.683 44.2658 114.151C44.9405 113.736 45.4017 113.31 45.1433 113.531L32.1193 98.3533C32.1826 98.2989 32.8947 97.6651 33.7882 97.1155C34.872 96.449 37.0736 95.3563 40.0367 95.5672C42.7449 95.7599 44.6118 96.9579 45.2938 97.4244C45.9866 97.8983 46.5671 98.4169 46.6939 98.5279L33.5218 113.578ZM45.237 113.45C43.5105 114.969 41.6345 115.64 40.876 115.895C39.8418 116.243 38.8098 116.472 37.8984 116.621C36.4058 116.865 33.7819 117.136 31.1803 116.521L35.7843 97.0577C35.3431 96.9534 35.0187 96.9203 34.8683 96.9083C34.703 96.8951 34.6028 96.8963 34.5767 96.8968C34.5363 96.8976 34.5833 96.8976 34.6695 96.8836C34.7709 96.867 34.7137 96.8664 34.5007 96.9381C34.3904 96.9752 34.1333 97.0667 33.7849 97.24C33.4837 97.3899 32.7979 97.7551 32.0256 98.4347L45.237 113.45ZM31.2926 116.546C29.9088 116.236 28.7794 115.717 28.1168 115.378C27.4653 115.044 26.4811 114.482 25.5252 113.669L38.4863 98.4369C38.0987 98.107 37.7894 97.9042 37.6549 97.8188C37.491 97.7148 37.3502 97.6364 37.2293 97.5745C37.1088 97.5129 36.9472 97.4363 36.7388 97.3546C36.5515 97.2811 36.1831 97.1466 35.672 97.0319L31.2926 116.546ZM24.7528 112.937C24.9829 113.18 25.8924 114.126 27.4306 114.847C29.2041 115.678 30.9502 115.825 32.3233 115.681C33.4469 115.563 34.2105 115.261 34.2931 115.229C34.432 115.176 34.4337 115.167 34.1243 115.313L25.5712 97.2343C25.8433 97.1056 27.902 96.0345 30.2401 95.7897C31.9208 95.6136 33.9154 95.7991 35.9172 96.7371C37.6837 97.5649 38.8015 98.6867 39.2587 99.1684L24.7528 112.937ZM34.2206 115.267C31.5243 116.578 28.1736 117.058 26.0475 117.266C23.5955 117.506 20.633 117.573 18.0003 117.212L20.7207 97.3976C21.3061 97.478 22.6028 97.5079 24.0978 97.3615C24.7915 97.2935 25.3579 97.2035 25.742 97.1214C25.9305 97.0812 26.0162 97.0553 26.0142 97.0559C26.0099 97.0572 25.9637 97.0715 25.8828 97.1023C25.8046 97.1321 25.6627 97.1892 25.4749 97.2805L34.2206 115.267ZM18.0135 117.214C15.9806 116.937 13.1937 116.434 10.6011 114.976C7.41982 113.186 5.50425 110.557 4.42021 107.816L23.0185 100.46C22.9132 100.194 22.652 99.6291 22.126 98.994C21.5766 98.3308 20.9557 97.8533 20.4059 97.544C19.9131 97.2669 19.6014 97.1947 19.6831 97.2165C19.7691 97.2395 20.0667 97.3087 20.7075 97.3958L18.0135 117.214ZM4.41602 107.805C4.08011 106.953 3.72297 105.911 3.5016 104.803C3.40263 104.308 3.23287 103.334 3.2723 102.146C3.29167 101.563 3.37196 100.487 3.79063 99.2238C4.18565 98.0318 5.21995 95.6765 7.81396 93.9647C10.7319 92.0391 13.8476 92.0711 15.9917 92.6507C17.8654 93.1573 19.1322 94.0792 19.7107 94.5422C20.9002 95.4942 21.6258 96.5132 21.9058 96.9187C22.5939 97.9152 23.1 98.9613 23.4548 99.7756L5.11968 107.765C5.00124 107.493 5.09091 107.766 5.44772 108.282C5.56206 108.448 6.14329 109.3 7.21328 110.157C7.73203 110.572 8.94534 111.464 10.7721 111.958C12.8693 112.525 15.9449 112.561 18.8297 110.658C21.3905 108.968 22.3988 106.651 22.7754 105.515C23.1755 104.308 23.2449 103.304 23.2613 102.81C23.2948 101.8 23.1511 101.07 23.1136 100.883C23.0153 100.391 22.9232 100.219 23.0227 100.471L4.41602 107.805ZM23.3981 99.6479C23.4936 99.8589 23.5567 99.9678 23.5313 99.9241C23.5193 99.9037 23.4868 99.8485 23.4342 99.7667C23.3878 99.6944 23.2849 99.5374 23.132 99.3332C23.0237 99.1887 22.6685 98.7184 22.1074 98.1845C21.8329 97.9233 21.2682 97.4136 20.4476 96.9139C19.7823 96.5087 17.9196 95.4637 15.2716 95.4637V115.464C12.6094 115.464 10.7299 114.413 10.0453 113.996C9.20532 113.484 8.6188 112.957 8.32018 112.673C7.71089 112.093 7.29827 111.555 7.12494 111.324C6.72832 110.794 6.42742 110.296 6.25476 110C5.86965 109.34 5.49736 108.602 5.1764 107.892L23.3981 99.6479ZM15.2716 95.4637C13.253 95.4637 9.94093 96.1618 7.51707 99.2174C5.36098 101.935 5.31034 104.806 5.3944 106.033C5.55555 108.383 6.5217 109.958 6.76107 110.346L23.7821 99.8447C24.1351 100.417 25.177 102.176 25.3476 104.665C25.4364 105.96 25.3739 108.888 23.1859 111.647C20.7301 114.743 17.3659 115.464 15.2716 115.464V95.4637ZM6.37822 109.668C5.79135 108.527 3.94761 104.313 6.62146 99.7625C9.37792 95.0714 14.1288 94.7274 15.4988 94.7274V114.727C16.6037 114.727 21.1842 114.457 23.865 109.895C26.4631 105.473 24.6383 101.444 24.165 100.523L6.37822 109.668ZM15.4988 94.7274C14.5957 94.7274 11.283 94.8443 8.50182 97.6965C5.37444 100.904 5.57914 104.712 5.8365 106.214C6.09224 107.706 6.63767 108.728 6.77648 108.987C6.98273 109.372 7.15257 109.612 7.18176 109.653L23.5129 98.1079C23.7503 98.4437 24.0811 98.9368 24.4021 99.5354C24.6556 100.008 25.2697 101.205 25.5491 102.836C25.8301 104.475 26.0135 108.385 22.8211 111.659C19.9748 114.578 16.5533 114.727 15.4988 114.727V94.7274ZM6.93487 109.287C4.63158 105.703 4.8309 102.136 5.23586 99.8521L24.9288 103.343C24.9295 103.339 24.9359 103.303 24.944 103.239C24.9522 103.175 24.9631 103.075 24.9712 102.945C24.9873 102.686 24.9947 102.274 24.9339 101.755C24.7931 100.553 24.3632 99.4129 23.7598 98.474L6.93487 109.287ZM5.2873 99.5834L5.59018 98.1106L25.1802 102.139L24.8773 103.612L5.2873 99.5834ZM25.3822 99.8803L25.42 101.427L5.42604 101.916L5.38818 100.37L25.3822 99.8803ZM25.4194 101.401C25.4079 100.975 25.3045 99.8141 24.5323 98.4682C23.7051 97.0263 22.5614 96.1533 21.6873 95.7077C20.9547 95.3342 20.5386 95.3212 20.8655 95.3687C21.1548 95.4108 21.7626 95.4637 22.8436 95.4637V115.464C20.0656 115.464 16.0866 115.301 12.604 113.526C10.5563 112.482 8.57019 110.836 7.18452 108.421C5.85392 106.101 5.47609 103.767 5.4267 101.942L25.4194 101.401ZM22.8436 95.4637C23.9368 95.4637 24.5534 95.4105 24.8487 95.3678C25.1857 95.319 24.7584 95.3316 24.009 95.7152C23.112 96.1743 21.9233 97.0858 21.0832 98.6049C20.3007 100.02 20.2263 101.234 20.2263 101.671H40.2263C40.2263 103.508 39.9059 105.896 38.585 108.284C37.2066 110.777 35.1874 112.461 33.1214 113.519C29.6289 115.306 25.6194 115.464 22.8436 115.464V95.4637ZM20.2293 101.427L20.2672 99.8803L40.2612 100.37L40.2233 101.916L20.2293 101.427ZM39.6734 96.7387L40.2034 98.2114L21.3851 104.984L20.855 103.511L39.6734 96.7387ZM40.1669 98.1117C40.3453 98.5914 40.5187 99.0723 40.663 99.5107C40.7233 99.6937 41.0619 100.68 41.2179 101.792C41.263 102.114 41.3557 102.858 41.3034 103.798C41.2781 104.251 41.1656 107.179 38.8572 109.835C37.4454 111.459 35.435 112.705 33.0402 113.128C30.8458 113.515 29.0415 113.09 27.9648 112.711C26.0283 112.028 24.8155 110.918 24.52 110.649C23.7002 109.903 23.1718 109.165 23.0584 109.009C22.8436 108.714 22.6668 108.444 22.5477 108.256L39.4194 97.5165C39.4157 97.5107 39.3993 97.4851 39.372 97.4443C39.346 97.4057 39.2968 97.3334 39.2278 97.2386C39.2041 97.206 38.7484 96.5558 37.9842 95.8601C37.7165 95.6164 36.5272 94.5222 34.6099 93.8468C33.5428 93.4709 31.747 93.0464 29.56 93.4328C27.1727 93.8547 25.1686 95.0964 23.762 96.7147C21.4641 99.3586 21.3578 102.264 21.3343 102.686C21.2837 103.596 21.3737 104.299 21.4117 104.57C21.5393 105.48 21.7786 106.107 21.6661 105.765C21.6377 105.679 21.565 105.469 21.4215 105.084L40.1669 98.1117ZM22.7355 108.541C22.8883 108.764 23.2273 109.235 23.7666 109.773C24.0712 110.077 25.5321 111.551 28.0319 112.245C29.4884 112.65 31.6515 112.878 34.0328 112.026C36.4708 111.154 38.0939 109.524 39.0446 108.044C40.6296 105.578 40.6049 103.207 40.6049 102.776H20.6049C20.6049 102.216 20.5992 99.7528 22.2197 97.2314C23.1881 95.7246 24.8332 94.0758 27.2969 93.1945C29.7039 92.3335 31.8966 92.5614 33.3862 92.9753C35.9523 93.6883 37.4936 95.2171 37.8905 95.6129C38.522 96.2429 38.9652 96.8437 39.2315 97.2322L22.7355 108.541ZM40.6049 102.776C40.6049 100.957 40.096 99.5635 39.7225 98.7619C39.3245 97.9076 38.863 97.258 38.4778 96.797C37.7346 95.9075 36.7947 95.1448 35.6593 94.5928L26.9135 112.579C25.3995 111.843 24.1188 110.804 23.1296 109.62C22.4005 108.747 20.6049 106.344 20.6049 102.776H40.6049ZM35.8906 94.7089C35.8061 94.6651 35.3304 94.4155 34.6519 94.1884C34.0349 93.9818 32.4688 93.5186 30.4269 93.7651C28.0009 94.0579 25.7907 95.2424 24.2102 97.0484C22.877 98.5719 22.3738 100.099 22.187 100.762C21.9801 101.496 21.9206 102.063 21.902 102.259C21.8899 102.387 21.8845 102.482 21.8819 102.536C21.8793 102.591 21.8788 102.622 21.8787 102.624C21.8787 102.626 21.879 102.611 21.8788 102.573C21.8786 102.535 21.8781 102.483 21.8767 102.412C21.874 102.268 21.8688 102.08 21.8602 101.83L41.8485 101.145C41.8677 101.708 41.8859 102.354 41.876 102.953C41.8701 103.311 41.8612 104.683 41.4365 106.189C41.2094 106.994 40.6559 108.625 39.261 110.219C37.6189 112.096 35.3357 113.318 32.8239 113.621C30.6962 113.878 29.0316 113.398 28.3021 113.154C27.511 112.889 26.9088 112.58 26.6823 112.463L35.8906 94.7089ZM21.8555 101.641L21.8176 99.174L41.8153 98.867L41.8531 101.334L21.8555 101.641ZM41.7349 97.7456L41.9999 99.8075L22.1631 102.357L21.8981 100.295L41.7349 97.7456ZM42.0406 100.179C42.0262 100.021 41.995 99.8426 41.91 99.5924C41.8653 99.461 41.7778 99.227 41.6193 98.9178C41.4832 98.6523 41.1616 98.0677 40.5721 97.3901L25.4839 110.518C24.0466 108.866 23.3252 107.063 22.9723 106.024C22.5466 104.77 22.2503 103.396 22.1224 101.986L42.0406 100.179ZM48.5295 104.717C48.3798 105.105 47.6887 106.95 45.923 108.591C44.9505 109.495 42.8608 111.061 39.7244 111.265C36.2633 111.489 33.6115 109.938 32.0713 108.44C29.7053 106.139 29.246 103.411 29.1822 103.088C29.0021 102.179 28.972 101.401 28.972 100.898H48.972C48.972 100.598 48.9561 99.9853 48.8009 99.2017C48.7619 99.005 48.3381 96.3614 46.0147 94.102C44.4958 92.6248 41.8671 91.0836 38.4304 91.3064C35.3184 91.5082 33.2544 93.0615 32.3085 93.9404C30.5961 95.5317 29.9618 97.2803 29.8688 97.5213L48.5295 104.717ZM29.0154 101.829C28.9318 100.934 28.822 98.814 29.8331 96.4786C30.1573 95.7297 31.9113 91.8265 36.7161 90.6584C42.5496 89.2401 46.1841 93.151 47.0799 94.3126L31.2427 106.527C32.0818 107.615 35.6594 111.498 41.4409 110.092C46.1936 108.937 47.9003 105.087 48.1867 104.425C49.1221 102.265 48.9744 100.457 48.9286 99.9675L29.0154 101.829ZM46.1331 93.2506C48.8242 95.8677 49.1668 99.0045 49.2386 99.9816C49.3493 101.489 49.162 103.309 48.35 105.152L30.0484 97.0864C29.35 98.6712 29.2005 100.197 29.2923 101.447C29.3407 102.105 29.4731 102.931 29.7942 103.847C30.0785 104.659 30.7292 106.168 32.1896 107.589L46.1331 93.2506Z" fill="#F3F7F8" mask="url(#path-3-inside-1_12_708)"/>
<path d="M23.0311 90.8169C21.1894 92.0236 20.7674 93.4566 21.8417 94.5879C22.9543 95.7569 22.916 95.8701 21.3429 96.134C20.6139 96.2849 20 96.4357 20 96.5111C20 96.9636 20.8825 99 21.0743 99C22.0335 99 24.2205 98.1327 24.9111 97.4916C25.9854 96.5111 25.9854 95.3421 24.9111 94.1731C24.374 93.6074 24.1821 93.1926 24.4507 93.0795C24.6809 93.0041 25.1797 92.7401 25.525 92.4761C26.1005 92.0613 26.1389 91.8351 25.7168 90.9677C25.1413 89.7233 24.7193 89.6856 23.0311 90.8169ZM24.4123 94.4748C24.5274 94.701 24.374 94.7387 24.067 94.6256C23.3764 94.3616 23.2613 94.0977 23.7984 94.0977C24.0286 94.0977 24.2972 94.2485 24.4123 94.4748ZM24.9878 95.9832C24.9878 96.8128 22.9543 98.2458 21.8417 98.2458C20.6906 98.2458 20.9976 96.8505 22.187 96.5488C22.7625 96.4357 23.3764 96.0963 23.5299 95.8701C23.7601 95.5307 23.8368 95.5307 23.8368 95.9078C23.8368 96.1717 23.4148 96.5488 22.916 96.7374C21.6498 97.1899 21.151 98.0572 22.3404 97.6801C23.5299 97.3408 24.6042 96.398 24.6042 95.7192C24.6042 95.4552 24.6809 95.229 24.796 95.229C24.9111 95.229 24.9878 95.5684 24.9878 95.9832Z" fill="#F3F7F8"/>
<path d="M36.4453 91.5674C35.743 92.3645 35.8991 94.0472 36.7184 94.5787C37.7719 95.1986 38.162 95.1543 38.8643 94.313C39.4496 93.693 39.5276 93.693 40.1128 94.313C41.2833 95.6415 43 94.8886 43 93.0287C43 91.2574 41.0492 90.3274 39.9568 91.5674C39.6056 91.9659 39.3715 91.9659 39.0204 91.5674C38.7473 91.2574 38.201 91.036 37.7329 91.036C37.2647 91.036 36.7184 91.2574 36.4453 91.5674Z" fill="#F3F7F8"/>
<path d="M45.5605 109.542C44.7833 110.2 44.8203 110.758 45.6345 111.416C46.4857 112.106 47.3369 112.138 48.0401 111.481C48.5212 111.054 48.6322 111.054 49.0393 111.481C50.0015 112.533 52 111.876 52 110.495C52 109.115 50.0015 108.458 49.0023 109.542C48.5952 110.002 48.5212 110.002 48.2251 109.542C47.781 108.852 46.3007 108.885 45.5605 109.542ZM47.3369 109.542C48.1141 109.805 48.1141 111.185 47.3369 111.448C46.1526 111.843 45.2274 110.561 46.1526 109.74C46.6707 109.279 46.5967 109.279 47.3369 109.542ZM51.1858 110.364C51.3338 111.35 50.3716 111.876 49.5574 111.284C48.9283 110.824 48.8913 110.265 49.4834 109.74C50.1866 109.115 51.0748 109.444 51.1858 110.364Z" fill="#F3F7F8"/>
<path d="M55.6195 109.522C54.78 110.204 54.78 110.443 55.7034 111.363C57.2144 112.897 59.8587 111.397 58.7254 109.659C58.1798 108.841 56.5429 108.772 55.6195 109.522ZM58.0958 110.34C58.0958 110.886 57.844 111.226 57.2984 111.295C56.249 111.465 55.6614 110.886 55.9972 109.999C56.4169 108.943 58.0958 109.181 58.0958 110.34Z" fill="#F3F7F8"/>
</svg>
