<svg width="71" height="82" viewBox="0 0 71 82" fill="none" xmlns="http://www.w3.org/2000/svg">
<path d="M29.963 0.116661C18.0395 1.53216 8.07754 6.4119 3.46196 13.1914C1.19264 16.5066 -0.461275 22.4666 0.115672 25.3349L0.346451 26.5641L3.57735 23.5096C5.38512 21.8334 8.53909 19.3376 10.6161 17.9966C23.3859 9.80164 35.0786 8.87039 39.0788 15.7244C40.5019 18.1456 40.3096 21.4609 38.6173 24.7016C36.8479 28.0913 34.7709 30.4008 31.5016 32.4868L28.8476 34.2003L27.6937 37.7763C26.5014 41.5013 26.5014 42.2091 27.6168 41.7993C29.2707 41.1661 34.7325 39.7506 37.6172 39.2291C48.3484 37.2548 53.8871 40.2348 53.8871 47.9455C53.8871 51.5215 52.3101 53.98 48.6561 56.1033C43.8867 58.8598 36.9633 60.4988 20.155 62.8828C11.77 64.0375 7.00057 67.092 3.30811 73.648C2.03883 75.9202 0.346451 80.502 0.346451 81.7312C0.346451 82.141 0.615692 82.1037 1.50034 81.4705C3.15426 80.3157 7.42366 78.5277 10.7315 77.5592C15.1548 76.2927 21.9627 75.2497 31.5016 74.393C45.2714 73.1265 50.9255 71.8227 57.0796 68.3957C61.8874 65.751 66.6184 61.0948 68.7339 56.8855C72.5033 49.3983 71.5032 40.7563 66.2338 35.4296C60.8489 29.9911 52.7332 28.1658 43.4251 30.2518C42.6943 30.4381 42.8482 30.2891 43.8867 29.7303C46.656 28.2403 49.81 24.9996 51.4255 21.9451C55.6949 13.9364 53.7333 6.07664 46.5407 2.50066C43.2713 0.898911 34.3478 -0.404839 29.963 0.116661Z" fill="#80C4E9"/>
<path d="M15.9792 25.0271L14.2875 25.6652L13.4229 29.0431C12.6711 31.9332 11.4681 37.7132 9.96443 45.5576C9.6261 47.3967 9.58851 47.3592 9.66369 44.5817C9.73888 41.9544 9.66369 41.6917 8.83666 41.0536C8.23518 40.6032 8.00963 40.5657 8.23518 40.9035C8.38555 41.2038 8.00963 40.866 7.37056 40.2279C6.31798 39.1019 5.34058 39.1019 6.01724 40.1904C6.2052 40.4531 6.13002 40.4906 5.82928 40.3405C5.56613 40.1529 5.49095 39.7775 5.60372 39.4022C5.75409 39.0644 5.97965 37.488 6.16761 35.8366C6.35557 34.2227 6.61872 32.5337 6.76908 32.0833C6.91945 31.5578 6.88186 31.4077 6.61872 31.6704C5.7165 32.5712 3.72411 49.0857 3.34819 59.0694C3.23541 61.9594 3.04745 65.7127 2.97226 67.4017L2.7843 70.4794L5.67891 67.5893C8.61111 64.6618 11.9192 62.635 14.6635 62.072L15.8288 61.8468L16.0544 54.4529C16.2799 47.0964 17.2573 36.3245 18.3851 28.9305C18.6858 26.7912 18.8738 24.877 18.761 24.6893C18.4603 24.2389 17.8964 24.2765 15.9792 25.0271ZM9.43814 50.1366C9.36295 50.7371 9.28777 50.3242 9.28777 49.3109C9.28777 48.2599 9.36295 47.8095 9.43814 48.2599C9.51332 48.7479 9.51332 49.5736 9.43814 50.1366Z" fill="#FFE8C8"/>
</svg>
