<svg width="407" height="391" viewBox="0 0 407 391" fill="none" xmlns="http://www.w3.org/2000/svg">
<path d="M407 390.387C407 390.52 315.883 390.627 203.51 390.627C91.0978 390.627 0 390.52 0 390.387C0 390.254 91.0978 390.146 203.51 390.146C315.882 390.146 407 390.254 407 390.387Z" fill="#263238"/>
<path d="M140.971 237.346C140.971 237.346 132.058 231.127 127.966 232.257C123.875 233.387 118.616 239.138 118.616 239.138C118.616 239.138 129.004 236.148 132.138 236.77C135.274 237.394 140.971 237.346 140.971 237.346Z" fill="#E0E0E0"/>
<path d="M143.971 239.595C142.675 242.532 140.434 244.982 139.181 247.938C137.752 251.31 137.729 255.254 139.118 258.642C141.49 256.155 142.902 252.878 143.665 249.526C144.428 246.175 144.551 243.427 144.704 239.993L143.971 239.595Z" fill="#E0E0E0"/>
<path d="M142.605 238.825C143.014 237.625 132.919 238.148 129.704 242.041C126.488 245.933 123.272 250.164 125.98 259.981C125.98 259.981 132.073 249.34 132.073 249.498C132.073 249.658 141.796 241.195 142.605 238.825Z" fill="#E0E0E0"/>
<path d="M142.683 238.703C141.748 239.066 150.917 241.857 155.148 242.2C159.379 242.542 161.938 241.131 161.938 241.131C161.938 241.131 155.791 233.618 142.683 238.703Z" fill="#E0E0E0"/>
<path d="M189.005 277.334C189.005 277.334 193.419 275.541 194.661 276.783C195.903 278.025 201.007 284.784 205.835 285.198C205.835 285.198 201.421 275.817 197.42 274.3C194.79 273.302 189.005 277.334 189.005 277.334Z" fill="#E0E0E0"/>
<path d="M190.141 276.828C190.141 276.828 189.965 273.516 188.303 271.772C186.642 270.027 180.63 268.836 180.63 268.836C180.63 268.836 182.794 272.306 185.012 273.995C187.23 275.684 190.141 276.828 190.141 276.828Z" fill="#E0E0E0"/>
<path d="M190.135 276.637C190.135 276.637 187.061 276.59 184.887 280.434C182.714 284.278 181.533 289.106 181.714 288.785C181.895 288.465 187.513 286.006 188.991 282.896C190.468 279.785 190.135 276.637 190.135 276.637Z" fill="#E0E0E0"/>
<path d="M190.835 276.637C190.835 276.637 191.387 283.956 192.628 285.198C193.87 286.44 195.664 290.993 195.664 290.993C195.664 290.993 198.423 284.371 196.906 281.198C195.388 278.025 190.835 276.637 190.835 276.637Z" fill="#E0E0E0"/>
<path d="M164.02 290.771C163.666 291.302 156.584 296.791 155.521 299.446C154.459 302.102 155.344 306.174 155.521 307.414C155.699 308.653 161.895 305.82 162.958 301.04C164.02 296.26 164.02 290.771 164.02 290.771Z" fill="#E0E0E0"/>
<path d="M165.399 286.658C165.392 287.543 165.505 296.22 167.785 299.247C170.064 302.274 174.29 305.492 174.29 305.492C174.29 305.492 175.787 294.525 172.625 291.138C169.464 287.75 165.399 286.658 165.399 286.658Z" fill="#E0E0E0"/>
<path d="M164.358 288.148C163.842 288.026 157.435 287.421 154.389 291.068C151.344 294.714 149.636 298.859 149.636 298.859C149.636 298.859 159.324 294.053 161.1 291.926C162.877 289.799 164.358 288.148 164.358 288.148Z" fill="#E0E0E0"/>
<path d="M168.764 284.18C168.764 284.18 171.371 282.246 174.251 284.039C177.131 285.831 181.915 292.793 181.915 292.793C181.915 292.793 176.06 292.412 172.974 289.48C169.888 286.55 168.764 284.18 168.764 284.18Z" fill="#E0E0E0"/>
<path d="M164.601 285.253C164.601 285.253 160.882 282.095 158.049 281.391C155.216 280.689 146.895 282.764 146.895 282.764C146.895 282.764 150.789 285.743 156.544 285.253C162.299 284.762 164.601 285.253 164.601 285.253Z" fill="#E0E0E0"/>
<path d="M152.272 317.408C152.272 317.408 149.616 322.543 152.272 325.376C154.927 328.209 156.361 333.875 156.361 333.875C156.361 333.875 160.948 329.449 158.646 324.491C156.344 319.532 152.272 317.408 152.272 317.408Z" fill="#E0E0E0"/>
<path d="M148.01 317.519C147.302 317.873 142.698 324.07 142.344 328.496C141.99 332.922 141.636 340.536 142.344 340.005C143.052 339.474 148.187 334.693 149.603 330.089C151.02 325.486 148.01 317.519 148.01 317.519Z" fill="#E0E0E0"/>
<path d="M146.278 317.034C145.57 317.21 138.842 315.971 135.124 320.752C131.406 325.533 128.573 332.438 128.573 332.438C128.573 332.438 138.311 327.459 140.612 324.724C142.914 321.991 146.278 317.034 146.278 317.034Z" fill="#E0E0E0"/>
<path d="M184.278 308.535C184.278 308.535 182.255 314.555 184.278 319.866C186.302 325.178 188.604 328.719 188.604 328.719C188.604 328.719 191.599 318.096 189.659 315.263C187.717 312.43 184.278 308.535 184.278 308.535Z" fill="#E0E0E0"/>
<path d="M185.386 307.896C186.103 308.56 194.404 320.481 200.049 321.544C205.694 322.608 200.933 321.094 200.933 321.094C200.933 321.094 199.154 313.059 196.625 309.733C194.095 306.408 185.386 307.896 185.386 307.896Z" fill="#E0E0E0"/>
<path d="M184.121 307.687C184.121 307.687 190.25 303.436 192.645 302.353C195.097 301.243 202.963 302.696 202.963 302.696C202.963 302.696 193.34 307.704 191.027 307.173C188.714 306.642 184.121 308.691 184.121 308.691" fill="#E0E0E0"/>
<path d="M205.425 249.719C205.425 249.719 200.114 255.346 200.818 259.742C201.521 264.138 203.089 268.358 203.089 268.358L205.425 260.621V249.719Z" fill="#E0E0E0"/>
<path d="M206.143 248.595C206.143 248.595 204.912 257.21 207.374 260.727C209.835 264.244 213.177 270.925 213.528 270.398C213.88 269.87 218.978 265.299 215.286 258.793C211.594 252.287 206.143 248.595 206.143 248.595Z" fill="#E0E0E0"/>
<path d="M204.361 250.12C204.361 250.12 195.88 247.659 194.66 251.703C193.441 255.747 192.385 259.263 192.385 259.263C192.385 259.263 195.217 256.235 198.373 254.321C201.529 252.406 204.361 250.12 204.361 250.12Z" fill="#E0E0E0"/>
<path d="M166.322 252.4C166.322 252.4 166.575 252.17 167.012 251.797C169.015 250.09 174.868 245.386 177.82 246.108C181.417 246.987 186.374 249.216 186.374 249.216C186.374 249.216 173.558 255.878 166.322 252.4Z" fill="#E0E0E0"/>
<path d="M168.037 252.46C168.062 251.819 164.183 250.79 160.778 254.306C157.372 257.823 156.844 259.982 156.844 259.982C156.844 259.982 167.799 258.525 168.037 252.46Z" fill="#E0E0E0"/>
<path d="M167.434 253.168C167.434 253.168 163.538 257.652 166.527 262.047C169.516 266.443 172.105 270.663 172.105 270.663C172.105 270.663 173.639 266.706 172.105 261.915C170.572 257.124 167.434 253.168 167.434 253.168Z" fill="#E0E0E0"/>
<path d="M182.007 264.328C181.831 263.258 183.249 254.478 171.633 255.345H170.569C170.569 255.345 176.124 264.313 177.395 267.127C178.667 269.94 179.624 270.819 180.992 272.05C182.359 273.28 182.183 265.398 182.007 264.328Z" fill="#E0E0E0"/>
<path d="M184.255 308.172C184.42 305.438 183.396 302.652 181.5 300.674C181.321 300.488 181.065 300.294 180.83 300.4C180.673 300.47 180.599 300.648 180.548 300.813C180.055 302.405 180.416 304.168 181.196 305.641C181.977 307.114 183.144 308.341 184.339 309.501" fill="#E0E0E0"/>
<path d="M151.521 316.269C149.45 312.466 146.082 309.384 142.109 307.657C141.859 307.548 141.587 307.443 141.32 307.497C140.909 307.58 140.659 308.018 140.607 308.435C140.501 309.288 140.986 310.097 141.505 310.781C144.02 314.1 147.851 316.392 151.965 317.038" fill="#E0E0E0"/>
<path d="M198.062 303.304C198.062 303.343 197.464 303.341 196.398 303.473C195.335 303.608 193.8 303.906 192.013 304.603C190.229 305.296 188.2 306.378 186.169 307.897C184.128 309.404 182.087 311.321 179.988 313.38C175.768 317.482 172.05 321.295 169.472 324.161C168.179 325.59 167.157 326.769 166.453 327.585C166.124 327.962 165.855 328.272 165.637 328.521C165.448 328.733 165.343 328.84 165.331 328.831C165.32 328.822 165.403 328.697 165.572 328.468C165.741 328.24 165.991 327.902 166.328 327.48C166.994 326.63 167.983 325.42 169.249 323.962C171.775 321.04 175.47 317.183 179.693 313.078C181.795 311.017 183.859 309.091 185.938 307.582C188.008 306.062 190.084 304.99 191.907 304.323C193.734 303.653 195.301 303.396 196.379 303.31C196.92 303.266 197.341 303.258 197.626 303.269C197.912 303.278 198.062 303.29 198.062 303.304Z" fill="#E0E0E0"/>
<path d="M165.107 326.283C165.039 326.329 164.348 325.129 162.839 323.523C161.347 321.92 158.93 319.966 155.804 318.739C152.677 317.511 149.576 317.298 147.392 317.458C145.193 317.608 143.871 318.017 143.852 317.938C143.845 317.914 144.167 317.789 144.768 317.625C145.368 317.458 146.255 317.274 147.367 317.161C149.578 316.922 152.757 317.089 155.958 318.346C159.158 319.602 161.601 321.643 163.059 323.322C163.797 324.162 164.322 324.9 164.649 325.431C164.978 325.96 165.129 326.271 165.107 326.283Z" fill="#E0E0E0"/>
<path d="M167.389 252.338C167.397 252.339 167.394 252.425 167.382 252.591C167.365 252.78 167.345 253.024 167.319 253.33C167.252 254.008 167.158 254.957 167.039 256.167C166.79 258.629 166.431 262.192 166.036 266.6C165.251 275.41 164.332 287.614 164.349 301.112C164.393 314.616 165.338 326.816 166.024 335.637C166.382 340.026 166.672 343.588 166.876 346.084C166.969 347.295 167.043 348.247 167.094 348.926C167.114 349.232 167.13 349.476 167.141 349.666C167.149 349.833 167.15 349.918 167.143 349.919C167.135 349.92 167.12 349.835 167.098 349.67C167.075 349.481 167.046 349.238 167.01 348.933C166.939 348.257 166.839 347.307 166.712 346.099C166.463 343.636 166.117 340.071 165.727 335.662C164.965 326.846 163.971 314.638 163.928 301.113C163.909 287.593 164.879 275.381 165.739 266.572C166.172 262.166 166.577 258.607 166.876 256.149C167.029 254.944 167.149 253.996 167.235 253.321C167.278 253.017 167.313 252.775 167.339 252.587C167.365 252.421 167.382 252.337 167.389 252.338Z" fill="#E0E0E0"/>
<path d="M193.868 276.104C193.87 276.133 193.43 276.198 192.633 276.292C191.836 276.378 190.685 276.532 189.271 276.758C186.442 277.206 182.566 278.053 178.44 279.492C174.317 280.942 170.758 282.699 168.269 284.113C167.022 284.818 166.026 285.415 165.35 285.846C164.669 286.27 164.285 286.495 164.268 286.471C164.251 286.447 164.605 286.177 165.259 285.709C165.91 285.235 166.886 284.598 168.119 283.856C170.583 282.368 174.147 280.554 178.302 279.095C182.457 277.645 186.375 276.838 189.228 276.464C190.655 276.274 191.815 276.163 192.619 276.128C193.422 276.085 193.867 276.075 193.868 276.104Z" fill="#E0E0E0"/>
<path d="M165.201 272.18C165.186 272.182 165.149 272.018 165.089 271.707C165.027 271.35 164.948 270.898 164.852 270.344C164.76 269.751 164.646 269.025 164.426 268.201C164.213 267.377 164.05 266.418 163.692 265.405C163.531 264.893 163.362 264.358 163.187 263.802C163.015 263.243 162.757 262.69 162.535 262.101C162.109 260.915 161.493 259.716 160.881 258.441C159.559 255.939 157.878 253.308 155.827 250.763C151.685 245.686 146.98 241.983 143.454 239.556C142.588 238.921 141.745 238.434 141.036 237.961C140.325 237.488 139.69 237.119 139.173 236.813C138.691 236.52 138.299 236.282 137.989 236.095C137.72 235.927 137.583 235.831 137.59 235.819C137.597 235.807 137.748 235.876 138.03 236.021C138.35 236.191 138.755 236.406 139.254 236.671C139.785 236.956 140.434 237.306 141.159 237.762C141.883 238.217 142.739 238.688 143.62 239.31C147.204 241.683 151.975 245.376 156.154 250.498C158.224 253.065 159.912 255.729 161.227 258.264C161.835 259.557 162.443 260.772 162.861 261.974C163.078 262.57 163.33 263.132 163.495 263.699C163.663 264.262 163.823 264.804 163.979 265.323C164.32 266.349 164.464 267.32 164.657 268.153C164.857 268.988 164.947 269.72 165.015 270.32C165.079 270.882 165.133 271.337 165.174 271.699C165.206 272.013 165.216 272.178 165.201 272.18Z" fill="#E0E0E0"/>
<path d="M206.751 249.314C206.756 249.328 206.602 249.396 206.307 249.512C205.967 249.641 205.536 249.802 205.006 250.002C203.872 250.411 202.241 251.033 200.241 251.835C196.24 253.435 190.795 255.863 185.032 259.029C179.272 262.204 174.306 265.505 170.814 268.029C169.066 269.29 167.667 270.335 166.715 271.074C166.263 271.415 165.896 271.691 165.606 271.91C165.349 272.098 165.21 272.191 165.201 272.18C165.192 272.169 165.313 272.053 165.552 271.844C165.83 271.61 166.181 271.311 166.613 270.945C167.535 270.166 168.908 269.084 170.637 267.789C174.092 265.197 179.049 261.846 184.828 258.66C190.61 255.484 196.094 253.09 200.131 251.558C202.15 250.79 203.8 250.209 204.952 249.848C205.493 249.678 205.932 249.541 206.279 249.433C206.585 249.341 206.746 249.301 206.751 249.314Z" fill="#E0E0E0"/>
<path d="M182.228 389.531H148.876L145.389 348.784H186.136L182.228 389.531Z" fill="#E0E0E0"/>
<path d="M188.844 348.784H142.809V355.049H188.844V348.784Z" fill="#E0E0E0"/>
<path d="M188.545 355.065C188.545 355.182 178.251 355.276 165.556 355.276C152.856 355.276 142.564 355.182 142.564 355.065C142.564 354.949 152.856 354.855 165.556 354.855C178.251 354.855 188.545 354.949 188.545 355.065Z" fill="#EBEBEB"/>
<path d="M328.814 390.155L357.143 390.376L357.422 354.618L329.093 354.397L328.814 390.155Z" fill="#EBEBEB"/>
<path d="M346.358 355.675L345.855 390.297L341.379 390.263L342.338 355.644L346.358 355.675Z" fill="#FAFAFA"/>
<path d="M312.845 355.413L329.098 355.54L357.426 355.762L329.067 359.493L328.827 390.165L312.582 390.038L312.845 355.413Z" fill="#E0E0E0"/>
<path d="M321.693 355.483L321.047 390.105L316.225 390.067L317.013 355.446L321.693 355.483Z" fill="#FAFAFA"/>
<path d="M334.554 344.946C334.561 345.164 334.087 345.389 333.216 345.603C332.345 345.812 331.074 346.02 329.461 346.103C328.654 346.142 327.761 346.146 326.791 346.074C326.307 346.036 325.805 345.986 325.286 345.903C324.759 345.817 324.267 345.739 323.628 345.551C323.313 345.45 322.975 345.327 322.609 345.111C322.251 344.9 321.845 344.584 321.535 344.101C321.214 343.622 321.075 343.018 321.069 342.543C321.058 342.059 321.135 341.667 321.205 341.34C321.475 340.199 321.747 339.027 322.292 337.753C322.568 337.124 322.908 336.502 323.328 335.926C323.547 335.637 323.763 335.375 324.028 335.099C324.299 334.825 324.607 334.564 324.972 334.336C325.338 334.11 325.769 333.918 326.255 333.821C326.738 333.724 327.27 333.743 327.722 333.858C328.634 334.1 329.209 334.563 329.661 334.931C331.382 336.386 332.598 338.022 333.382 339.501C334.168 340.985 334.519 342.305 334.636 343.222C334.745 344.147 334.634 344.675 334.429 344.722C333.971 344.832 333.306 343.008 331.5 340.714C330.596 339.575 329.392 338.328 327.864 337.229C327.508 336.969 327.187 336.814 327.041 336.804C326.966 336.798 326.942 336.807 326.886 336.822C326.831 336.84 326.747 336.878 326.639 336.951C326.532 337.027 326.406 337.136 326.28 337.271C326.154 337.41 326.007 337.597 325.879 337.772C325.624 338.138 325.397 338.554 325.195 339.014C324.797 339.929 324.505 341.022 324.222 342.053C324.164 342.272 324.139 342.431 324.134 342.499L324.13 342.532L324.128 342.537C324.11 342.539 324.064 342.551 324.042 342.557C323.942 342.583 323.915 342.609 323.982 342.568C323.995 342.56 324.059 342.516 324.086 342.491C324.086 342.491 324.085 342.497 324.092 342.504C324.104 342.52 324.128 342.548 324.173 342.579C324.256 342.644 324.405 342.72 324.576 342.79C324.916 342.925 325.409 343.061 325.838 343.172C326.277 343.289 326.712 343.382 327.136 343.47C327.985 343.641 328.798 343.763 329.55 343.865C331.054 344.064 332.31 344.2 333.182 344.369C334.057 344.536 334.548 344.727 334.554 344.946Z" fill="#E0E0E0"/>
<path d="M333.969 345.204C333.891 344.755 336.009 344.091 339.316 343.121C340.962 342.621 342.895 342.015 344.892 341.121C345.384 340.907 345.833 340.67 346.099 340.448C346.23 340.343 346.289 340.247 346.271 340.256C346.251 340.263 346.237 340.384 346.233 340.322C346.221 340.267 346.157 340.087 346.029 339.826C345.894 339.547 345.759 339.266 345.623 338.982C345.351 338.429 345.07 337.912 344.762 337.441C344.45 336.974 344.119 336.568 343.753 336.236C343.573 336.065 343.375 335.919 343.182 335.78C343.006 335.66 342.829 335.565 342.666 335.501C342.33 335.375 342.092 335.358 341.831 335.423C341.56 335.488 341.207 335.696 340.83 336.004C339.205 337.366 337.891 338.868 336.958 340.211C335.059 342.912 334.559 345.022 334.087 344.953C333.88 344.925 333.724 344.348 333.797 343.307C333.872 342.272 334.208 340.776 335.021 339.09C335.831 337.397 337.092 335.558 338.906 333.811C339.396 333.36 340.022 332.848 340.912 332.542C341.806 332.224 342.87 332.274 343.716 332.581C344.146 332.73 344.536 332.931 344.896 333.16C345.233 333.383 345.556 333.618 345.857 333.889C346.465 334.421 346.975 335.047 347.403 335.692C347.828 336.338 348.167 336.989 348.459 337.608C348.599 337.914 348.738 338.217 348.875 338.518C349.014 338.838 349.202 339.247 349.294 339.817C349.398 340.375 349.3 341.15 348.977 341.698C348.667 342.254 348.276 342.596 347.926 342.855C347.218 343.36 346.569 343.606 345.99 343.821C343.689 344.663 341.558 345.071 339.784 345.307C336.228 345.746 334.04 345.616 333.969 345.204Z" fill="#EBEBEB"/>
<path d="M307.675 355.364L349.315 355.688L349.408 343.853L307.767 343.528L307.675 355.364Z" fill="#E0E0E0"/>
<path d="M322.985 355.484L360.625 355.777L360.717 343.942L323.078 343.648L322.985 355.484Z" fill="#EBEBEB"/>
<path d="M349.183 343.862L348.918 355.752L344.528 355.661L344.835 343.828L349.183 343.862Z" fill="#FAFAFA"/>
<path d="M317.994 343.677L317.57 355.46L312.743 355.422L313.003 343.579L317.994 343.677Z" fill="#FAFAFA"/>
<path d="M360.169 390.25L376.221 390.375L376.379 370.113L360.327 369.988L360.169 390.25Z" fill="#EBEBEB"/>
<path d="M370.116 370.717L369.832 390.337L367.295 390.316L367.839 370.7L370.116 370.717Z" fill="#FAFAFA"/>
<path d="M351.126 370.569L360.336 370.64L376.388 370.766L360.318 372.88L360.183 390.261L350.977 390.189L351.126 370.569Z" fill="#E0E0E0"/>
<path d="M356.14 370.608L355.774 390.227L353.042 390.205L353.488 370.588L356.14 370.608Z" fill="#FAFAFA"/>
<path d="M363.427 364.637C363.431 364.933 362.374 365.3 360.535 365.451C359.596 365.505 358.525 365.52 357.17 365.175C356.812 365.052 356.3 364.893 355.87 364.272C355.664 363.965 355.574 363.576 355.571 363.279C355.563 362.975 355.61 362.737 355.651 362.543C355.803 361.889 355.956 361.219 356.276 360.472C356.436 360.104 356.638 359.736 356.887 359.395C357.137 359.067 357.425 358.726 357.882 358.44C358.308 358.153 359.02 357.98 359.605 358.146C360.176 358.299 360.519 358.584 360.782 358.799C361.772 359.649 362.461 360.604 362.897 361.466C363.765 363.221 363.637 364.466 363.358 364.51C363.038 364.584 362.606 363.574 361.566 362.324C361.044 361.703 360.363 361.022 359.512 360.426C359.317 360.285 359.153 360.22 359.123 360.23L359.118 360.233L359.122 360.189L359.128 360.244C359.128 360.249 359.104 360.26 359.062 360.291C358.977 360.346 358.833 360.504 358.694 360.702C358.561 360.895 358.441 361.116 358.331 361.365C358.115 361.859 357.948 362.472 357.787 363.049L357.741 363.248C357.774 363.248 357.631 363.253 357.598 363.26C357.542 363.268 357.505 363.275 357.473 363.284C357.417 363.298 357.402 363.313 357.44 363.29C357.47 363.271 357.521 363.232 357.598 363.151L357.643 363.101V363.104C357.647 363.108 357.65 363.113 357.658 363.119C357.685 363.145 357.757 363.185 357.843 363.223C358.732 363.547 359.779 363.736 360.601 363.868C362.295 364.12 363.425 364.316 363.427 364.637Z" fill="#E0E0E0"/>
<path d="M363.097 364.784C363.038 364.442 364.23 363.984 366.079 363.38C366.999 363.069 368.074 362.706 369.175 362.194C369.445 362.073 369.679 361.94 369.785 361.843C369.836 361.799 369.836 361.77 369.793 361.832C369.747 361.892 369.727 362.052 369.735 362.067C369.629 361.848 369.521 361.624 369.412 361.398C369.261 361.091 369.107 360.812 368.944 360.563C368.779 360.316 368.61 360.109 368.427 359.941C368.238 359.766 368.039 359.63 367.918 359.584C367.78 359.53 367.73 359.525 367.646 359.536C367.555 359.549 367.383 359.635 367.181 359.794C366.279 360.526 365.53 361.344 364.988 362.068C363.885 363.526 363.518 364.688 363.163 364.642C362.855 364.632 362.598 363.215 363.495 361.205C363.941 360.21 364.651 359.134 365.698 358.104C365.987 357.834 366.369 357.512 366.937 357.314C367.508 357.108 368.195 357.14 368.727 357.333C368.997 357.426 369.24 357.55 369.463 357.691C369.668 357.826 369.864 357.969 370.047 358.133C370.416 358.456 370.723 358.832 370.978 359.216C371.231 359.599 371.429 359.983 371.597 360.341L371.833 360.863C371.913 361.05 372.032 361.306 372.093 361.681C372.162 362.048 372.095 362.578 371.877 362.945C371.668 363.319 371.412 363.537 371.192 363.699C370.745 364.014 370.358 364.155 370.02 364.277C368.686 364.748 367.458 364.96 366.439 365.066C364.399 365.259 363.152 365.105 363.097 364.784Z" fill="#E0E0E0"/>
<path d="M348.191 370.536L371.786 370.72L371.838 364.014L348.243 363.83L348.191 370.536Z" fill="#E0E0E0"/>
<path d="M356.865 370.604L378.194 370.771L378.246 364.064L356.917 363.898L356.865 370.604Z" fill="#EBEBEB"/>
<path d="M371.718 364.023L371.567 370.761L369.08 370.709L369.253 364.003L371.718 364.023Z" fill="#FAFAFA"/>
<path d="M354.044 363.918L353.804 370.595L351.069 370.574L351.216 363.863L354.044 363.918Z" fill="#FAFAFA"/>
<path d="M135.01 0H12.6939V202.468H135.01V0Z" fill="#E0E0E0"/>
<path d="M130.942 0H8.62549V202.468H130.942V0Z" fill="#EBEBEB"/>
<path d="M125.733 4.10631H13.8341V198.364H125.733V4.10631Z" fill="#FAFAFA"/>
<path d="M103.946 29.3484H35.1372V173.121H103.946V29.3484Z" fill="#EBEBEB"/>
<path d="M35.1371 122.244C34.9782 108.814 47.054 95.7031 60.3532 93.8274C66.6947 92.9329 73.4335 94.1924 79.3591 91.7622C89.9362 87.4249 93.3015 73.3717 103.946 69.2035L104.432 173.12H35.1371V122.244Z" fill="#E0E0E0"/>
<path d="M369.449 323.933L178.851 323.832C172.958 323.829 168.183 319.048 168.186 313.155L168.335 30.3443C168.338 24.451 173.119 19.6757 179.012 19.6785L369.61 19.7792C375.504 19.782 380.279 24.5628 380.276 30.4561L380.126 313.266C380.123 319.161 375.343 323.936 369.449 323.933Z" fill="#263238"/>
<path d="M373.124 40.7504H174.549V294.755H373.124V40.7504Z" fill="white"/>
<path d="M282.29 308.603C282.288 313.093 278.645 316.733 274.154 316.73C269.663 316.727 266.024 313.085 266.027 308.594C266.03 304.104 269.672 300.464 274.164 300.467C278.654 300.469 282.293 304.112 282.29 308.603Z" fill="#455A64"/>
<path d="M305.098 31.8652L243.511 31.8329C242.891 31.8329 242.388 31.3293 242.388 30.7093L242.389 29.5959C242.389 28.9759 242.892 28.4732 243.512 28.4732L305.1 28.5056C305.72 28.5056 306.223 29.0091 306.223 29.6292L306.222 30.7426C306.222 31.3626 305.718 31.8652 305.098 31.8652Z" fill="#455A64"/>
<path d="M364.673 259.613C363.355 259.612 362.287 258.543 362.288 257.225L362.383 76.8942C362.384 75.5765 363.453 74.5084 364.771 74.5093C366.088 74.5102 367.157 75.5793 367.156 76.8969L367.06 257.228C367.06 258.546 365.991 259.614 364.673 259.613Z" fill="#E0E0E0"/>
<path d="M315.433 61.5324C315.433 61.6654 297.011 61.7634 274.29 61.7513C251.562 61.7393 233.143 61.622 233.143 61.4889C233.143 61.3559 251.562 61.2579 274.29 61.2699C297.011 61.2819 315.434 61.3993 315.433 61.5324Z" fill="#263238"/>
<path d="M193.844 66.1073C193.85 66.1018 193.941 66.0953 194.11 66.0879C194.325 66.0805 194.567 66.0713 194.848 66.0611C195.556 66.0426 196.46 66.0204 197.562 65.9918L197.477 66.0787C197.466 65.4744 197.455 64.8165 197.443 64.1087C197.447 63.7409 197.411 63.4 197.448 62.9712C197.522 62.5434 197.903 62.1664 198.372 62.1221C198.814 62.1137 199.193 62.0934 199.674 62.1156C200.171 62.1757 200.593 62.6543 200.578 63.18C200.589 64.0994 200.6 65.0595 200.611 66.0537L200.468 65.9133C201.569 65.9022 202.715 65.8911 203.896 65.8791L203.748 66.0297C203.736 64.6492 203.724 63.2216 203.712 61.7589C203.709 61.3939 203.706 61.0317 203.703 60.6714C203.701 60.3415 203.506 60.1262 203.228 59.873C202.721 59.3731 202.221 58.8797 201.73 58.3946C201.239 57.9104 200.758 57.4337 200.286 56.967C200.05 56.7342 199.816 56.5032 199.585 56.274C199.343 56.0402 199.157 55.8046 198.885 55.7483C198.62 55.6762 198.326 55.7326 198.112 55.8952C197.908 56.067 197.684 56.3174 197.476 56.5198C197.053 56.9448 196.642 57.3588 196.244 57.7589C195.471 58.5609 194.66 59.2974 194.078 59.9858C193.833 60.3637 193.924 60.8294 193.905 61.2572C193.903 61.6804 193.902 62.0833 193.901 62.463C193.894 63.1985 193.889 63.8463 193.884 64.4081C193.877 64.8978 193.871 65.308 193.866 65.6536C193.858 65.9438 193.852 66.0999 193.844 66.1073C193.837 66.1147 193.829 65.9742 193.818 65.697C193.808 65.3579 193.796 64.9541 193.781 64.4737C193.768 63.9072 193.752 63.254 193.734 62.5111C193.727 62.1221 193.719 61.7109 193.71 61.2775C193.707 61.0576 193.703 60.8331 193.699 60.6021C193.697 60.3563 193.76 60.1031 193.89 59.8786C194.527 59.0959 195.281 58.4122 196.062 57.5833C196.456 57.1786 196.864 56.7619 197.283 56.3332C197.503 56.1169 197.681 55.9044 197.946 55.6762C198.224 55.4627 198.606 55.3861 198.954 55.4785C199.325 55.5607 199.565 55.8638 199.785 56.0717C200.017 56.299 200.251 56.529 200.488 56.761C200.962 57.2257 201.445 57.7007 201.938 58.183C202.43 58.6663 202.931 59.1588 203.438 59.6577C203.682 59.8684 204.021 60.2334 204.006 60.6631C204.008 61.0253 204.012 61.3902 204.015 61.7571C204.025 63.2198 204.035 64.6474 204.044 66.0278L204.045 66.1775L203.896 66.1785C202.715 66.1849 201.569 66.1914 200.468 66.1979L200.325 66.1988L200.324 66.0574C200.32 65.0622 200.316 64.1031 200.312 63.1828C200.327 62.7763 200.011 62.4177 199.633 62.3651C199.244 62.3438 198.774 62.3568 198.394 62.3595C198.032 62.3891 197.729 62.6792 197.666 63.0137C197.633 63.3528 197.658 63.7585 197.649 64.1068C197.648 64.8155 197.647 65.4734 197.647 66.0777V66.1655L197.561 66.1646C196.438 66.1535 195.516 66.1452 194.795 66.1378C194.522 66.1322 194.285 66.1267 194.076 66.1221C193.919 66.1175 193.839 66.1128 193.844 66.1073Z" fill="#263238"/>
<path d="M350.997 56.93C350.971 56.8995 350.933 56.8819 350.893 56.881L342.816 56.8376H340.445L339.748 56.8459L339.686 56.3829L339.564 55.4747C339.555 55.4072 339.497 55.3573 339.429 55.3573H339.395L337.185 55.3684C337.009 55.373 336.893 55.3758 336.893 55.5144C336.893 55.6511 337.008 55.6558 337.185 55.6631L339.24 55.7066L340.383 64.5604C340.393 64.6288 340.45 64.6787 340.518 64.6787L347.115 64.711L349.593 64.7009C349.803 64.6962 349.909 64.6944 349.909 64.5549C349.909 64.4172 349.805 64.4135 349.594 64.4061L340.746 64.286L340.535 62.717L349.835 62.8445H349.837C349.903 62.8445 349.959 62.7974 349.971 62.7336L350.657 59.0321L351.024 57.0418C351.033 57.002 351.022 56.9614 350.997 56.93ZM339.786 57.1332L350.582 57.2737L349.625 62.4527L342.997 62.4213L341.027 62.4232L340.496 62.4306L339.786 57.1332Z" fill="#263238"/>
<path d="M342.983 66.7421C342.962 66.6312 342.885 66.3485 342.609 66.1239C342.396 65.9447 341.996 65.7894 341.565 65.94C341.129 66.0786 340.813 66.5175 340.814 66.9805C340.805 67.5072 341.177 67.9091 341.546 68.0329C341.674 68.08 341.8 68.1004 341.919 68.1004C342.201 68.1004 342.444 67.9904 342.595 67.8684C342.876 67.6467 342.958 67.3658 342.98 67.2549C342.993 67.1865 343.009 67.0812 342.994 66.999C343.009 66.9158 342.995 66.8105 342.983 66.7421ZM341.678 67.6707C341.441 67.5857 341.204 67.3224 341.21 66.9832C341.21 66.646 341.451 66.3873 341.692 66.305C341.778 66.2736 341.862 66.2607 341.942 66.2607C342.124 66.2607 342.285 66.3291 342.387 66.4076C342.571 66.5443 342.644 66.7218 342.671 66.816C342.691 66.8844 342.699 66.938 342.705 66.9722C342.706 66.9786 342.708 66.9869 342.71 66.9962C342.708 67.0054 342.706 67.0137 342.705 67.0202C342.699 67.0544 342.69 67.108 342.669 67.1764C342.641 67.2697 342.564 67.4462 342.376 67.5829C342.23 67.6901 341.96 67.7797 341.678 67.6707Z" fill="#263238"/>
<path d="M348.905 66.7893C348.884 66.6784 348.807 66.3966 348.531 66.1711C348.318 65.9928 347.917 65.8376 347.487 65.9863C347.052 66.1259 346.736 66.5638 346.736 67.0268C346.727 67.5525 347.099 67.9554 347.468 68.0801C347.596 68.1263 347.722 68.1467 347.841 68.1467C348.123 68.1467 348.367 68.0367 348.517 67.9147C348.798 67.6939 348.88 67.4121 348.902 67.3012C348.915 67.2328 348.931 67.1266 348.916 67.0443C348.93 66.9565 348.915 66.8447 348.905 66.7893ZM347.599 67.717C347.368 67.6338 347.126 67.3659 347.131 67.0305C347.131 66.696 347.378 66.4326 347.614 66.3522C347.7 66.3208 347.784 66.307 347.865 66.307C348.047 66.307 348.208 66.3763 348.309 66.4548C348.493 66.5916 348.566 66.769 348.593 66.8632C348.613 66.9316 348.621 66.9852 348.627 67.0194C348.628 67.0249 348.63 67.0342 348.632 67.0434C348.63 67.0526 348.628 67.061 348.627 67.0674C348.621 67.1016 348.612 67.1543 348.59 67.2227C348.562 67.3169 348.486 67.4934 348.298 67.6292C348.152 67.7373 347.883 67.826 347.599 67.717Z" fill="#263238"/>
<path d="M225.236 267.531C225.236 268.841 224.287 269.631 222.723 269.63L221.072 269.629L221.071 271.57H220.421L220.423 265.422L222.725 265.423C224.288 265.423 225.236 266.214 225.236 267.531ZM224.587 267.53C224.588 266.547 223.937 265.985 222.707 265.984L221.074 265.983L221.072 269.057L222.706 269.058C223.936 269.059 224.586 268.497 224.587 267.53Z" fill="#263238"/>
<path d="M230.763 266.955L230.76 271.575H230.162L230.163 270.732C229.838 271.293 229.24 271.618 228.503 271.618C227.326 271.618 226.553 270.959 226.554 269.632L226.556 266.953H227.18L227.178 269.571C227.177 270.554 227.687 271.056 228.565 271.056C229.531 271.056 230.137 270.433 230.138 269.378L230.139 266.954L230.763 266.955Z" fill="#263238"/>
<path d="M234.841 266.922V267.527C234.788 267.527 234.735 267.518 234.691 267.518C233.724 267.518 233.136 268.132 233.135 269.221L233.134 271.576H232.51L232.513 266.956H233.111L233.11 267.859C233.399 267.246 233.988 266.922 234.841 266.922Z" fill="#263238"/>
<path d="M235.454 269.268C235.455 267.889 236.457 266.923 237.836 266.923C238.618 266.923 239.276 267.231 239.645 267.837L239.179 268.154C238.863 267.689 238.371 267.468 237.835 267.468C236.825 267.467 236.087 268.187 236.086 269.268C236.085 270.357 236.824 271.069 237.833 271.069C238.369 271.069 238.861 270.859 239.177 270.393L239.643 270.709C239.273 271.306 238.614 271.623 237.833 271.622C236.454 271.622 235.453 270.646 235.454 269.268Z" fill="#263238"/>
<path d="M245.047 268.904L245.046 271.582H244.423L244.424 268.965C244.425 267.99 243.916 267.489 243.038 267.488C242.045 267.487 241.421 268.102 241.42 269.156L241.42 271.581H240.796L240.8 265.063H241.423L241.422 267.768C241.765 267.232 242.371 266.926 243.153 266.926C244.276 266.927 245.048 267.577 245.047 268.904Z" fill="#263238"/>
<path d="M250.231 268.723L250.229 271.586H249.632V270.866C249.351 271.34 248.806 271.63 248.042 271.63C246.997 271.629 246.356 271.083 246.357 270.284C246.357 269.573 246.814 268.976 248.14 268.977L249.606 268.978V268.696C249.606 267.906 249.159 267.474 248.298 267.474C247.701 267.474 247.138 267.685 246.76 268.019L246.479 267.553C246.945 267.158 247.631 266.93 248.36 266.93C249.555 266.93 250.232 267.528 250.231 268.723ZM249.607 270.197V269.442L248.158 269.442C247.262 269.441 246.973 269.792 246.972 270.267C246.972 270.803 247.402 271.137 248.14 271.137C248.842 271.137 249.36 270.804 249.607 270.197Z" fill="#263238"/>
<path d="M251.285 271.059L251.566 270.567C251.935 270.857 252.558 271.085 253.209 271.086C254.088 271.087 254.447 270.789 254.448 270.331C254.449 269.127 251.452 270.075 251.453 268.248C251.453 267.493 252.104 266.93 253.281 266.931C253.878 266.931 254.528 267.098 254.915 267.363L254.642 267.863C254.238 267.582 253.755 267.468 253.281 267.468C252.447 267.467 252.077 267.792 252.077 268.231C252.076 269.478 255.073 268.541 255.071 270.316C255.071 271.114 254.368 271.632 253.165 271.632C252.4 271.631 251.662 271.384 251.285 271.059Z" fill="#263238"/>
<path d="M260.246 269.474L256.381 269.472C256.451 270.439 257.189 271.08 258.199 271.08C258.76 271.08 259.261 270.879 259.613 270.476L259.964 270.88C259.551 271.372 258.91 271.635 258.181 271.634C256.741 271.633 255.757 270.648 255.758 269.279C255.759 267.909 256.717 266.935 258.017 266.935C259.317 266.936 260.256 267.893 260.255 269.281C260.255 269.333 260.246 269.404 260.246 269.474ZM256.382 269.006L259.659 269.008C259.58 268.103 258.921 267.471 258.017 267.471C257.12 267.47 256.461 268.101 256.382 269.006Z" fill="#263238"/>
<path d="M270.614 266.976L268.863 271.595H268.275L266.819 267.808L265.359 271.593H264.77L263.033 266.973H263.63L265.077 270.9L266.564 266.974H267.1L268.572 270.901L270.042 266.976H270.614Z" fill="#263238"/>
<path d="M274.901 268.735L274.899 271.599H274.301V270.879C274.02 271.353 273.475 271.643 272.711 271.642C271.666 271.641 271.025 271.096 271.026 270.297C271.027 269.585 271.484 268.989 272.81 268.989L274.277 268.99V268.709C274.277 267.919 273.83 267.487 272.97 267.487C272.373 267.487 271.81 267.698 271.432 268.031L271.152 267.566C271.618 267.171 272.304 266.943 273.033 266.943C274.226 266.943 274.902 267.541 274.901 268.735ZM274.277 270.21V269.455L272.828 269.454C271.932 269.453 271.643 269.804 271.642 270.279C271.642 270.815 272.072 271.15 272.809 271.15C273.512 271.15 274.031 270.816 274.277 270.21Z" fill="#263238"/>
<path d="M275.955 271.072L276.237 270.581C276.605 270.871 277.229 271.099 277.879 271.1C278.757 271.101 279.117 270.803 279.117 270.345C279.118 269.141 276.122 270.089 276.123 268.262C276.124 267.507 276.774 266.944 277.951 266.945C278.549 266.945 279.199 267.112 279.584 267.376L279.312 267.877C278.908 267.595 278.424 267.482 277.951 267.482C277.117 267.481 276.747 267.806 276.747 268.245C276.746 269.492 279.743 268.555 279.742 270.33C279.742 271.128 279.039 271.646 277.835 271.646C277.07 271.643 276.333 271.397 275.955 271.072Z" fill="#263238"/>
<path d="M282.554 271.075L282.835 270.583C283.203 270.874 283.828 271.102 284.477 271.103C285.355 271.103 285.716 270.804 285.716 270.348C285.716 269.144 282.721 270.092 282.722 268.264C282.722 267.509 283.372 266.948 284.549 266.948C285.147 266.948 285.796 267.115 286.182 267.379L285.91 267.88C285.507 267.598 285.023 267.484 284.549 267.484C283.715 267.484 283.345 267.809 283.345 268.248C283.345 269.495 286.341 268.557 286.34 270.332C286.34 271.13 285.637 271.649 284.433 271.649C283.669 271.647 282.931 271.4 282.554 271.075Z" fill="#263238"/>
<path d="M291.657 266.987L291.654 271.607H291.057V270.765C290.732 271.326 290.134 271.651 289.397 271.651C288.221 271.65 287.447 270.991 287.448 269.664L287.449 266.986H288.073L288.072 269.603C288.071 270.586 288.581 271.088 289.459 271.088C290.425 271.088 291.032 270.465 291.032 269.411L291.033 266.987H291.657Z" fill="#263238"/>
<path d="M292.939 269.297C292.94 267.919 293.942 266.952 295.321 266.953C296.102 266.954 296.76 267.261 297.13 267.867L296.664 268.183C296.348 267.717 295.856 267.496 295.321 267.496C294.31 267.496 293.572 268.216 293.571 269.296C293.571 270.386 294.308 271.097 295.319 271.097C295.855 271.097 296.346 270.888 296.662 270.422L297.128 270.738C296.758 271.335 296.1 271.652 295.318 271.651C293.939 271.653 292.938 270.677 292.939 269.297Z" fill="#263238"/>
<path d="M297.806 269.3C297.807 267.922 298.809 266.955 300.187 266.956C300.969 266.957 301.627 267.264 301.996 267.87L301.53 268.187C301.214 267.721 300.722 267.5 300.186 267.5C299.176 267.499 298.438 268.22 298.437 269.3C298.436 270.39 299.174 271.101 300.185 271.101C300.72 271.101 301.212 270.891 301.529 270.426L301.995 270.742C301.625 271.339 300.966 271.656 300.185 271.655C298.807 271.656 297.805 270.679 297.806 269.3Z" fill="#263238"/>
<path d="M307.162 269.499L303.297 269.497C303.367 270.463 304.103 271.105 305.114 271.105C305.676 271.105 306.178 270.904 306.529 270.5L306.881 270.905C306.468 271.397 305.826 271.66 305.097 271.659C303.656 271.658 302.673 270.673 302.674 269.304C302.675 267.933 303.633 266.959 304.933 266.96C306.232 266.96 307.172 267.918 307.171 269.306C307.171 269.357 307.162 269.428 307.162 269.499ZM303.298 269.03L306.574 269.032C306.496 268.127 305.837 267.495 304.933 267.495C304.036 267.495 303.377 268.126 303.298 269.03Z" fill="#263238"/>
<path d="M307.803 271.089L308.085 270.597C308.453 270.888 309.077 271.116 309.727 271.117C310.605 271.117 310.965 270.818 310.965 270.362C310.966 269.158 307.97 270.106 307.971 268.278C307.971 267.523 308.622 266.961 309.799 266.961C310.396 266.961 311.045 267.129 311.432 267.393L311.16 267.894C310.756 267.612 310.272 267.498 309.799 267.498C308.964 267.498 308.595 267.823 308.595 268.262C308.594 269.509 311.59 268.571 311.59 270.346C311.59 271.144 310.886 271.663 309.682 271.663C308.918 271.66 308.181 271.413 307.803 271.089Z" fill="#263238"/>
<path d="M312.1 271.091L312.381 270.599C312.749 270.889 313.374 271.117 314.023 271.117C314.901 271.118 315.262 270.82 315.262 270.362C315.262 269.159 312.267 270.107 312.268 268.279C312.268 267.524 312.918 266.962 314.095 266.962C314.693 266.962 315.343 267.129 315.728 267.394L315.457 267.894C315.053 267.613 314.569 267.499 314.095 267.499C313.261 267.499 312.891 267.823 312.891 268.262C312.891 269.51 315.887 268.572 315.886 270.347C315.886 271.145 315.183 271.664 313.979 271.664C313.215 271.663 312.478 271.416 312.1 271.091Z" fill="#263238"/>
<path d="M317.751 266.456V267.001L319.174 267.002V267.529L317.768 267.528L317.767 271.621H317.143L317.145 267.528H316.318V267.001L317.145 267.002V266.431C317.145 265.606 317.637 265.061 318.541 265.061C318.884 265.061 319.235 265.159 319.463 265.352L319.252 265.818C319.077 265.668 318.831 265.588 318.567 265.587C318.033 265.586 317.751 265.885 317.751 266.456Z" fill="#263238"/>
<path d="M324.181 267.004L324.178 271.624H323.58L323.581 270.781C323.256 271.342 322.658 271.667 321.921 271.667C320.745 271.666 319.971 271.008 319.972 269.682L319.973 267.003H320.597L320.596 269.621C320.596 270.604 321.105 271.106 321.983 271.106C322.949 271.106 323.555 270.483 323.556 269.428L323.557 267.004H324.181Z" fill="#263238"/>
<path d="M325.932 265.108H326.556L326.552 271.626H325.928L325.932 265.108Z" fill="#263238"/>
<path d="M235.103 250.225H231.789V248.654H240.276V250.225H236.961V258.655H235.104V250.225H235.103Z" fill="#05B95F"/>
<path d="M249.017 254.283V258.654H247.231V254.511C247.231 253.154 246.559 252.497 245.416 252.497C244.144 252.497 243.287 253.267 243.287 254.797V258.654H241.501V248.053H243.287V251.911C243.873 251.282 244.773 250.939 245.83 250.939C247.659 250.94 249.017 251.983 249.017 254.283Z" fill="#05B95F"/>
<path d="M257.673 254.182V258.654H255.987V257.726C255.559 258.384 254.73 258.754 253.587 258.754C251.844 258.754 250.744 257.798 250.744 256.468C250.744 255.197 251.601 254.197 253.916 254.197H255.888V254.082C255.888 253.039 255.258 252.426 253.987 252.426C253.13 252.426 252.244 252.711 251.672 253.182L250.972 251.881C251.786 251.253 252.972 250.939 254.2 250.939C256.401 250.94 257.673 251.983 257.673 254.182ZM255.888 256.269V255.382H254.044C252.83 255.382 252.501 255.84 252.501 256.397C252.501 257.04 253.044 257.454 253.958 257.454C254.83 257.455 255.587 257.054 255.888 256.269Z" fill="#05B95F"/>
<path d="M267.472 254.283V258.654H265.686V254.511C265.686 253.154 265.014 252.497 263.871 252.497C262.6 252.497 261.742 253.267 261.742 254.797V258.654H259.956V251.025H261.656V252.011C262.242 251.311 263.171 250.939 264.285 250.939C266.115 250.94 267.472 251.983 267.472 254.283Z" fill="#05B95F"/>
<path d="M272.856 255.383L271.527 256.64V258.654H269.741V248.053H271.527V254.454L275.228 251.025H277.371L274.185 254.225L277.67 258.654H275.499L272.856 255.383Z" fill="#05B95F"/>
<path d="M289.912 251.026L286.341 259.27C285.641 260.999 284.67 261.527 283.398 261.527C282.64 261.527 281.84 261.269 281.355 260.827L282.069 259.512C282.413 259.841 282.898 260.04 283.384 260.04C284.013 260.04 284.384 259.741 284.727 258.983L284.855 258.683L281.526 251.026H283.383L285.784 256.669L288.198 251.026H289.912Z" fill="#05B95F"/>
<path d="M290.181 254.84C290.181 252.554 291.896 250.94 294.239 250.94C296.61 250.94 298.311 252.554 298.311 254.84C298.311 257.126 296.61 258.754 294.239 258.754C291.896 258.754 290.181 257.126 290.181 254.84ZM296.511 254.84C296.511 253.383 295.54 252.454 294.239 252.454C292.953 252.454 291.981 253.383 291.981 254.84C291.981 256.297 292.953 257.226 294.239 257.226C295.54 257.226 296.511 256.297 296.511 254.84Z" fill="#05B95F"/>
<path d="M307.41 251.026V258.655H305.71V257.683C305.138 258.384 304.238 258.755 303.252 258.755C301.295 258.755 299.966 257.683 299.966 255.383V251.026H301.753V255.14C301.753 256.527 302.41 257.183 303.539 257.183C304.781 257.183 305.625 256.412 305.625 254.883V251.026H307.41Z" fill="#05B95F"/>
<path d="M309.423 257.641C309.423 257.026 309.909 256.54 310.581 256.54C311.238 256.54 311.709 257.026 311.709 257.641C311.709 258.254 311.238 258.754 310.581 258.754C309.909 258.754 309.423 258.255 309.423 257.641ZM309.523 248.654H311.638L311.28 255.34H309.866L309.523 248.654Z" fill="#05B95F"/>
<path d="M297.167 98.9508L294.469 137.171C294.028 143.41 288.838 148.247 282.583 148.247C275.695 148.247 270.24 142.424 270.692 135.552C270.931 131.914 271.147 128.935 271.147 128.935C271.147 128.935 261.894 127.496 261.78 118.245C261.715 112.901 262.636 100.777 263.426 91.4876C263.96 85.2081 269.217 80.3875 275.519 80.3875H281.108C290.733 80.9502 297.996 89.3448 297.167 98.9508Z" fill="#FFBE9D"/>
<path d="M271.148 128.935C271.148 128.935 276.979 129.277 283.193 125.374C283.193 125.374 280.214 132.104 270.983 131.271L271.148 128.935Z" fill="#EB996E"/>
<path d="M265.163 100.323C265.327 100.495 266.327 99.7547 267.749 99.7584C269.17 99.7418 270.213 100.474 270.367 100.299C270.443 100.222 270.277 99.9109 269.822 99.5801C269.375 99.2511 268.613 98.9305 267.726 98.9342C266.841 98.9388 266.096 99.265 265.668 99.5986C265.231 99.934 265.082 100.246 265.163 100.323Z" fill="#263238"/>
<path d="M277.834 104.267C277.809 104.965 278.38 105.561 279.108 105.601C279.835 105.64 280.445 105.107 280.47 104.41C280.495 103.712 279.924 103.115 279.198 103.076C278.47 103.037 277.859 103.57 277.834 104.267Z" fill="#263238"/>
<path d="M265.143 104.267C265.118 104.965 265.689 105.561 266.417 105.601C267.143 105.64 267.754 105.107 267.779 104.41C267.804 103.712 267.233 103.115 266.507 103.076C265.778 103.037 265.167 103.57 265.143 104.267Z" fill="#263238"/>
<path d="M278.892 100.515C279.056 100.687 280.058 99.9469 281.479 99.9506C282.9 99.934 283.943 100.665 284.097 100.491C284.173 100.414 284.007 100.103 283.551 99.7723C283.104 99.4424 282.341 99.1227 281.455 99.1264C280.57 99.131 279.825 99.4572 279.397 99.7908C278.96 100.126 278.812 100.438 278.892 100.515Z" fill="#263238"/>
<path d="M273.836 111.574C273.842 111.492 272.959 111.34 271.527 111.157C271.164 111.12 270.82 111.047 270.759 110.799C270.673 110.537 270.826 110.146 271.001 109.724C271.343 108.845 271.7 107.925 272.075 106.959C273.566 103.024 274.644 99.7871 274.486 99.7289C274.327 99.6707 272.989 102.812 271.498 106.749C271.14 107.72 270.796 108.644 270.47 109.53C270.333 109.942 270.096 110.41 270.281 110.955C270.379 111.226 270.645 111.423 270.878 111.486C271.111 111.557 271.315 111.561 271.495 111.572C272.937 111.648 273.83 111.654 273.836 111.574Z" fill="#263238"/>
<path d="M278.02 112.557C277.789 112.543 277.786 114.087 276.465 115.182C275.146 116.281 273.501 116.108 273.489 116.323C273.468 116.42 273.856 116.623 274.55 116.642C275.231 116.665 276.225 116.447 277.034 115.777C277.84 115.105 278.186 114.209 278.239 113.576C278.297 112.93 278.125 112.548 278.02 112.557Z" fill="#263238"/>
<path d="M278.982 95.3604C279.122 95.7466 280.541 95.5637 282.209 95.7651C283.882 95.9323 285.226 96.4211 285.448 96.0737C285.547 95.9083 285.312 95.5443 284.768 95.17C284.229 94.7967 283.369 94.441 282.367 94.3301C281.366 94.2211 280.449 94.38 279.842 94.6267C279.229 94.8734 278.922 95.1774 278.982 95.3604Z" fill="#263238"/>
<path d="M264.943 96.0312C265.194 96.3537 266.172 96.0192 267.35 96.0035C268.527 95.9462 269.525 96.2206 269.755 95.8824C269.855 95.7189 269.698 95.3955 269.262 95.0896C268.832 94.7847 268.114 94.5361 267.305 94.5602C266.496 94.586 265.794 94.878 265.385 95.2088C264.969 95.5415 264.832 95.8732 264.943 96.0312Z" fill="#263238"/>
<path d="M294.049 105.894C294.207 105.826 300.405 104.014 300.202 110.338C300 116.663 293.693 115.156 293.687 114.974C293.683 114.792 294.049 105.894 294.049 105.894Z" fill="#FFBE9D"/>
<path d="M295.696 112.64C295.725 112.621 295.804 112.721 295.987 112.812C296.166 112.901 296.477 112.968 296.81 112.855C297.487 112.632 298.083 111.589 298.15 110.45C298.185 109.875 298.082 109.323 297.892 108.863C297.714 108.393 297.425 108.061 297.09 107.99C296.758 107.902 296.514 108.096 296.431 108.271C296.34 108.446 296.376 108.574 296.343 108.583C296.324 108.598 296.211 108.473 296.27 108.213C296.3 108.088 296.379 107.942 296.531 107.825C296.688 107.707 296.913 107.65 297.146 107.684C297.633 107.733 298.057 108.196 298.266 108.701C298.5 109.209 298.63 109.83 298.591 110.476C298.51 111.749 297.819 112.921 296.896 113.156C296.448 113.257 296.081 113.111 295.894 112.956C295.703 112.793 295.674 112.65 295.696 112.64Z" fill="#EB996E"/>
<path d="M297.567 105.679C296.602 105.446 294.934 106.336 294.523 107.24C294.111 108.144 294.021 109.167 293.611 110.07C293.2 110.974 292.274 111.791 291.308 111.562C290.642 111.404 290.166 110.781 289.99 110.119C289.815 109.458 289.886 108.758 289.972 108.079C290.344 105.125 290.966 102.196 291.084 99.2215C291.204 96.2471 290.779 93.1563 289.218 90.6217C287.655 88.0872 284.786 86.2235 281.819 86.4628C279.854 86.6208 278.051 87.6464 276.098 87.9199C273.782 88.2443 271.335 87.4274 269.679 85.7772C269.466 85.5656 268.479 84.9151 268.479 84.9151C268.479 84.7617 268.624 83.4413 269.144 82.9589C273.018 79.3756 279.999 78.3759 285.116 79.6639C290.233 80.952 295.03 84.5649 297.232 89.3605C299.434 94.157 298.78 100.826 297.567 105.679Z" fill="#263238"/>
<path d="M262.414 89.8189C263.243 91.7399 265.357 92.8579 267.44 93.0695C269.522 93.2811 271.6 92.7415 273.613 92.1705C275.627 91.5994 281.027 90.7041 283.118 90.7678C283.432 90.7771 283.808 90.7715 283.974 90.5063C284.194 90.1552 283.842 89.7302 283.516 89.4751C280.759 87.3148 274.093 85.9907 270.594 85.8438C267.094 85.696 263.42 87.2012 261.524 90.146" fill="#263238"/>
<path d="M263.323 90.06C263.323 90.06 266.022 87.3046 270.214 86.947C278.214 86.2642 291.333 88.7239 298.222 102.502C298.222 102.502 299.662 97.9944 299.662 95.1771C299.662 93.2959 298.536 82.0923 287.009 78.5681C287.009 78.5681 269.64 71.9402 263.323 90.06Z" fill="#80C4E9"/>
<g opacity="0.4">
<path d="M263.323 90.06C263.323 90.06 266.085 86.7742 271.041 86.5552C278.2 86.2392 291.729 89.5176 298.221 102.502C298.221 102.502 299.661 97.9944 299.661 95.1771C299.661 93.2959 298.536 82.0923 287.008 78.5681C287.008 78.5681 269.64 71.9402 263.323 90.06Z" fill="black"/>
</g>
<path d="M297.143 100.538C293.687 94.7281 288.517 90.7337 282.938 87.2483C277.359 83.763 268.135 80.3164 261.777 78.6283C259.868 78.1219 257.878 77.6784 255.932 78.0147C253.986 78.3511 252.082 79.6465 251.599 81.5611C250.994 83.9579 255.248 87.6567 257.247 89.1111C259.246 90.5655 263.323 92.699 263.323 92.699C263.323 92.699 263.267 88.2361 270.384 87.337C280.088 86.1118 297.438 100.787 297.143 100.538Z" fill="#80C4E9"/>
<path d="M284.224 83.1781C284.147 83.3176 281.507 81.5158 277.747 80.6241C273.996 79.6918 270.825 80.0817 270.82 79.9228C270.813 79.8673 271.591 79.6955 272.875 79.6419C274.157 79.5864 275.947 79.6946 277.861 80.1566C279.773 80.6232 281.413 81.3485 282.526 81.9861C283.643 82.6227 284.256 83.1328 284.224 83.1781Z" fill="white"/>
<path d="M233.95 158.323L220.349 164.475L199.24 147.269L192.809 157.453C192.809 157.453 204.828 171.359 209.281 176.082C213.735 180.806 216.704 183.328 220.213 182.877C223.722 182.426 243.768 172.979 243.768 172.979C243.768 172.979 239.049 158.919 233.95 158.323Z" fill="#FFBE9D"/>
<path d="M176.121 138.592C176.121 138.592 178.773 140.583 180.506 140.458C182.238 140.333 188.808 140.299 189.298 140.333C189.789 140.368 196.194 143.853 196.194 143.853L200.886 148.368L193.521 158.608C193.521 158.608 192.305 157.209 191.477 157.316C190.648 157.422 180.531 156.551 179.007 156.034C177.483 155.518 175.534 155.217 175.025 154.279C174.516 153.34 174.399 152.675 175.797 151.459C175.797 151.459 173.928 150.015 175.284 148.222C175.284 148.222 173.175 146.679 173.931 145.254C173.931 145.254 172.735 144.759 172.541 144.007C172.347 143.255 172.625 141.633 172.625 141.633L175.645 140.695C175.646 140.693 174.734 139.644 176.121 138.592Z" fill="#FFBE9D"/>
<path d="M174.937 140.913C174.936 140.877 175.079 140.85 175.329 140.779C175.582 140.721 175.934 140.563 176.456 140.549C176.985 140.569 177.556 140.755 178.096 141.189C178.632 141.606 179.011 142.457 178.724 143.264C178.597 143.668 178.256 144.002 177.904 144.148C177.552 144.306 177.219 144.358 176.919 144.429C176.364 144.543 175.826 144.655 175.294 144.766C174.367 144.944 173.785 145.022 173.77 144.957C173.754 144.892 174.307 144.697 175.216 144.435C175.739 144.292 176.27 144.147 176.815 143.998C177.422 143.846 178.09 143.705 178.27 143.106C178.474 142.519 178.229 141.886 177.804 141.523C177.391 141.151 176.847 140.937 176.442 140.89C176.016 140.858 175.629 140.96 175.359 140.964C175.087 140.98 174.937 140.944 174.937 140.913Z" fill="#EB996E"/>
<path d="M178.723 143.566C178.719 143.533 178.969 143.46 179.43 143.368C179.892 143.279 180.567 143.156 181.422 143.144C182.267 143.139 183.344 143.25 184.343 143.898C184.827 144.224 185.297 144.723 185.444 145.406C185.593 146.052 185.373 146.898 184.69 147.282C184.029 147.645 183.359 147.607 182.774 147.674C182.177 147.721 181.6 147.766 181.042 147.81C179.976 147.884 178.992 147.951 178.105 148.013C176.433 148.115 175.395 148.144 175.389 148.078C175.384 148.011 176.41 147.862 178.076 147.674C178.96 147.581 179.942 147.479 181.004 147.368C181.561 147.315 182.138 147.26 182.734 147.204C183.333 147.139 183.972 147.139 184.447 146.866C184.918 146.607 185.088 146.012 184.983 145.5C184.882 144.987 184.512 144.555 184.093 144.263C183.229 143.672 182.228 143.519 181.418 143.484C179.771 143.457 178.732 143.659 178.723 143.566Z" fill="#EB996E"/>
<path d="M184.969 147.269C184.982 147.246 185.162 147.296 185.357 147.554C185.542 147.807 185.705 148.294 185.53 148.862C185.355 149.432 184.803 149.944 184.105 150.194C183.4 150.459 182.595 150.46 181.809 150.498C178.63 150.647 176.105 151.272 176.07 151.132C176.029 151.017 178.542 150.171 181.785 150.018C182.594 149.98 183.343 149.985 183.957 149.776C184.571 149.579 185.037 149.178 185.211 148.746C185.387 148.31 185.31 147.89 185.196 147.651C185.079 147.403 184.945 147.3 184.969 147.269Z" fill="#EB996E"/>
<path d="M195.453 149.048C195.473 149.102 194.982 149.355 194.119 149.564C193.26 149.774 192.018 149.898 190.667 149.72C189.317 149.537 188.151 149.09 187.377 148.661C186.599 148.232 186.193 147.859 186.226 147.813C186.299 147.679 188.122 148.914 190.732 149.243C193.334 149.612 195.417 148.899 195.453 149.048Z" fill="#EB996E"/>
<path d="M184.921 144.33C184.983 144.206 185.639 144.438 186.45 144.338C187.263 144.259 187.851 143.888 187.939 143.995C188.038 144.078 187.478 144.712 186.502 144.817C185.529 144.928 184.843 144.432 184.921 144.33Z" fill="#EB996E"/>
<path d="M184.196 154.423C184.072 154.41 184.362 153.019 185.597 151.88C186.819 150.727 188.227 150.534 188.23 150.658C188.272 150.796 187.038 151.174 185.925 152.232C184.793 153.269 184.33 154.474 184.196 154.423Z" fill="#EB996E"/>
<path d="M162.276 181.001H202.41L209.857 239.697H154.438L162.276 181.001Z" fill="#80C4E9"/>
<path d="M202.41 181.001H207.053L220.746 239.697H209.857L202.41 181.001Z" fill="#80C4E9"/>
<path opacity="0.3" d="M202.41 181.001H207.053L220.746 239.697H209.857L202.41 181.001Z" fill="black"/>
<path d="M179.996 150.482C179.996 150.454 180.112 150.415 180.32 150.465C180.525 150.512 180.813 150.682 181.02 151.011C181.233 151.325 181.339 151.85 181.149 152.339C180.972 152.83 180.57 153.259 180.06 153.526C179.337 153.895 178.598 153.917 178.022 153.926L178.198 153.808C177.673 154.818 177.044 155.263 176.997 155.206C176.925 155.141 177.419 154.604 177.827 153.636L177.872 153.53L178.004 153.518C178.565 153.467 179.242 153.408 179.838 153.1C180.256 152.882 180.584 152.541 180.736 152.18C180.897 151.815 180.854 151.455 180.723 151.177C180.454 150.603 179.977 150.552 179.996 150.482Z" fill="#EB996E"/>
<path d="M172.472 183.562C172.439 183.558 172.472 183.134 172.559 182.371C172.645 181.608 172.801 180.508 173.024 179.156C173.462 176.446 174.196 172.729 175.061 168.639C175.927 164.547 176.714 160.846 177.236 158.158C177.481 156.888 177.686 155.822 177.85 154.974C177.994 154.222 178.089 153.807 178.123 153.813C178.156 153.817 178.123 154.241 178.036 155.003C177.95 155.765 177.794 156.865 177.571 158.218C177.133 160.928 176.399 164.646 175.533 168.737C174.667 172.828 173.881 176.528 173.359 179.216C173.114 180.486 172.908 181.553 172.745 182.4C172.601 183.152 172.506 183.567 172.472 183.562Z" fill="#FF725E"/>
<path d="M193.66 184.151C193.627 184.16 193.471 183.679 193.216 182.802C192.948 181.839 192.599 180.586 192.179 179.077C191.323 175.926 190.173 171.564 188.931 166.739C187.689 161.913 186.59 157.538 185.819 154.365C185.458 152.842 185.159 151.576 184.929 150.603C184.729 149.712 184.634 149.215 184.666 149.207C184.699 149.199 184.855 149.68 185.111 150.557C185.379 151.521 185.728 152.774 186.149 154.283C187.004 157.434 188.155 161.795 189.396 166.62C190.637 171.444 191.736 175.818 192.508 178.991C192.868 180.515 193.167 181.781 193.397 182.754C193.597 183.646 193.692 184.143 193.66 184.151Z" fill="#FF725E"/>
<path d="M220.746 239.697C220.705 239.749 219.969 239.229 218.815 238.346C217.661 237.464 216.086 236.22 214.367 234.822C214.069 234.579 213.776 234.341 213.497 234.113L213.847 234.058C212.766 235.686 211.794 237.112 211.079 238.123C210.364 239.134 209.907 239.73 209.856 239.696C209.805 239.663 210.17 239.007 210.815 237.949C211.459 236.892 212.383 235.433 213.448 233.797L213.592 233.576L213.798 233.742C214.078 233.969 214.371 234.206 214.67 234.448C216.389 235.845 217.929 237.131 219.028 238.081C220.129 239.033 220.789 239.646 220.746 239.697Z" fill="#263238"/>
<path d="M204.849 181.001C204.98 180.979 207.056 192.811 209.485 207.425C211.915 222.043 213.779 233.908 213.648 233.93C213.517 233.951 211.441 222.123 209.011 207.504C206.581 192.889 204.718 181.022 204.849 181.001Z" fill="#263238"/>
<path d="M204.752 197.661C204.752 197.661 204.46 197.998 203.816 198.55C203.176 199.103 202.18 199.874 200.755 200.633C199.337 201.391 197.483 202.151 195.215 202.536C192.963 202.903 190.266 202.986 187.485 202.087C186.11 201.626 184.719 200.883 183.604 199.723C182.497 198.58 181.633 197.034 181.492 195.283C181.339 193.541 182.054 191.668 183.492 190.456C184.203 189.847 185.127 189.447 186.094 189.371C187.063 189.287 188.047 189.523 188.925 189.96C189.801 190.407 190.584 191.052 191.197 191.849C191.809 192.652 192.235 193.589 192.491 194.574C193.011 196.553 192.888 198.667 192.47 200.703C191.631 204.793 189.445 208.763 186.168 211.752C184.525 213.236 182.674 214.465 180.668 215.283C178.671 216.106 176.515 216.525 174.409 216.351C172.308 216.178 170.291 215.406 168.696 214.139C167.093 212.894 165.952 211.079 165.641 209.146C165.315 207.227 165.675 205.225 166.719 203.679C167.73 202.139 169.483 201.051 171.291 201.21C172.189 201.286 173.014 201.767 173.553 202.428C174.105 203.087 174.42 203.881 174.58 204.668C174.904 206.263 174.582 207.832 174.051 209.18C172.929 211.899 170.875 213.764 168.905 214.914C166.903 216.062 164.968 216.589 163.396 216.907C161.815 217.216 160.567 217.318 159.724 217.374C159.302 217.399 158.98 217.414 158.763 217.417C158.547 217.421 158.435 217.419 158.435 217.411C158.435 217.403 158.545 217.388 158.76 217.368C159 217.346 159.316 217.316 159.716 217.278C160.554 217.191 161.794 217.059 163.358 216.724C164.912 216.381 166.817 215.831 168.769 214.683C170.686 213.537 172.674 211.689 173.735 209.055C174.238 207.752 174.533 206.239 174.217 204.745C174.063 204.004 173.761 203.268 173.26 202.679C172.768 202.086 172.046 201.673 171.253 201.608C169.644 201.47 168.007 202.469 167.072 203.915C166.102 205.362 165.764 207.258 166.079 209.071C166.378 210.894 167.451 212.593 168.982 213.78C170.501 214.982 172.438 215.72 174.448 215.883C178.521 216.202 182.671 214.289 185.845 211.398C189.045 208.481 191.184 204.6 192.01 200.609C192.423 198.62 192.539 196.572 192.048 194.692C191.808 193.757 191.404 192.869 190.841 192.125C190.271 191.38 189.54 190.774 188.726 190.356C187.912 189.949 187.008 189.731 186.13 189.805C185.253 189.871 184.421 190.225 183.765 190.781C182.438 191.888 181.755 193.636 181.892 195.253C182.015 196.889 182.822 198.367 183.875 199.466C184.932 200.579 186.264 201.308 187.597 201.765C190.294 202.662 192.955 202.61 195.174 202.272C197.413 201.917 199.254 201.193 200.671 200.469C202.094 199.742 203.101 199.002 203.758 198.476C204.096 198.223 204.328 198.001 204.497 197.865C204.658 197.724 204.746 197.655 204.752 197.661Z" fill="white"/>
<path d="M261.556 140.346H254.322C251.989 141.163 233.203 157.149 233.203 157.149L243.82 173.833L257.588 165.783L261.556 140.346Z" fill="#455A64"/>
<path d="M254.47 140.284L270.456 134.217C270.456 134.217 272.79 139.118 279.906 138.067C287.023 137.016 295.425 132 295.425 132C295.425 132 307.676 139.001 311.293 141.917C314.91 144.834 308.376 205.974 308.376 205.974L306.742 224.293C306.742 224.293 308.026 225.226 308.026 228.377C308.026 231.527 308.142 233.627 308.142 233.627H244.816C244.816 233.627 243.269 226.276 244.436 223.359C245.603 220.442 247.527 217.525 247.527 217.525L248.519 189.288L248.869 164.086L254.47 140.284Z" fill="#455A64"/>
<path d="M311.144 141.98C311.144 141.98 316.253 143.422 317.769 151.001C319.284 158.58 319.009 187.518 319.009 187.518L290.474 181.338C290.474 181.338 294.343 169.19 294.343 168.364C294.343 167.538 302.197 147.97 302.474 147.556C302.748 147.142 311.144 141.98 311.144 141.98Z" fill="#455A64"/>
<path d="M248.237 152.248C248.37 152.247 248.552 157.305 248.645 163.545C248.737 169.788 248.704 174.849 248.572 174.85C248.439 174.852 248.257 169.795 248.164 163.552C248.072 157.312 248.105 152.25 248.237 152.248Z" fill="#263238"/>
<path d="M255.419 205.447L286.992 201.652L291.97 181.662L309.634 185.488C309.634 185.488 302.648 213.237 295.448 215.919C288.248 218.601 252.628 214.068 252.628 214.068L255.419 205.447Z" fill="#FFBE9D"/>
<path d="M254.131 205.221C254.131 205.221 250.338 203.658 248.873 203.441C247.407 203.224 245.681 203.545 245.247 204.25L236.726 209.188C236.726 209.188 230.43 208.591 229.833 210.002C229.833 210.002 225.816 208.863 225.165 209.677C225.165 209.677 223.157 210.329 223.482 211.251C223.807 212.174 231.081 214.724 231.081 214.724L241.068 215.755C241.068 215.755 244.867 213.693 246.441 213.53C248.014 213.368 251.15 213.949 250.964 213.888C250.835 213.846 256.785 214.557 256.785 214.557C256.785 214.557 258.001 213.259 258.49 209.676C258.979 206.094 258.49 205.334 258.49 205.334L254.131 205.221Z" fill="#FFBE9D"/>
<path d="M249.916 209.777C249.919 209.801 249.645 209.816 249.296 209.535C248.936 209.282 248.636 208.69 248.085 208.312C247.805 208.136 247.426 208.062 246.994 207.982C246.574 207.908 246.033 207.776 245.63 207.384C245.23 207.009 244.966 206.473 244.898 205.888C244.823 205.314 244.979 204.636 245.429 204.17C246.323 203.267 247.6 203.078 248.603 203.296C249.621 203.516 250.406 204.038 250.986 204.516C251.568 205.002 251.972 205.456 252.244 205.771C252.515 206.089 252.65 206.277 252.627 206.3C252.567 206.364 251.932 205.676 250.776 204.785C250.193 204.358 249.435 203.905 248.517 203.732C247.627 203.551 246.502 203.766 245.782 204.498C245.085 205.227 245.318 206.477 245.937 207.065C246.544 207.696 247.587 207.525 248.273 208.03C248.921 208.549 249.122 209.131 249.422 209.397C249.694 209.687 249.928 209.736 249.916 209.777Z" fill="#EB996E"/>
<path d="M244.647 208.128C244.642 208.206 244.167 208.18 243.493 208.484C242.804 208.746 241.984 209.446 240.765 209.773C239.504 210.036 238.456 209.631 237.725 209.537C236.986 209.397 236.522 209.43 236.509 209.358C236.494 209.299 236.978 209.141 237.764 209.199C238.54 209.221 239.598 209.539 240.656 209.304C241.709 209.032 242.601 208.372 243.376 208.164C244.149 207.918 244.665 208.076 244.647 208.128Z" fill="#EB996E"/>
<path d="M244.856 212.1C244.87 212.127 244.671 212.27 244.28 212.477C243.89 212.683 243.295 212.932 242.531 213.145C241.005 213.59 238.786 213.743 236.396 213.5C235.208 213.35 234.082 213.17 233.056 213.017C232.039 212.839 231.1 212.784 230.333 212.409C229.962 212.225 229.655 211.939 229.518 211.622C229.376 211.314 229.352 211.011 229.397 210.779C229.5 210.293 229.807 210.183 229.803 210.208C229.838 210.238 229.61 210.394 229.583 210.803C229.554 211.199 229.782 211.827 230.478 212.102C231.145 212.392 232.104 212.43 233.119 212.578C234.16 212.716 235.273 212.865 236.441 213.02C238.796 213.259 240.946 213.162 242.449 212.813C243.96 212.486 244.819 212.023 244.856 212.1Z" fill="#EB996E"/>
<path d="M292.234 209.728C292.09 209.77 291.571 207.807 290.183 205.782C288.818 203.741 287.188 202.53 287.28 202.413C287.331 202.306 289.156 203.385 290.581 205.512C292.026 207.626 292.351 209.721 292.234 209.728Z" fill="#EB996E"/>
<path d="M56.7767 318.843L55.569 380.528L70.5074 382.129L80.7713 319.325L72.7075 309.182L56.7767 318.843Z" fill="#FFBE9D"/>
<path d="M72.3397 379.082L72.3314 380.089C72.3314 380.089 89.3276 387.144 89.4727 390.385L55.569 389.821V378.525C60.5707 380.944 66.4908 381.317 72.3397 379.082Z" fill="#80C4E9"/>
<path d="M55.569 389.822L55.7252 387.11L88.1624 388.644C88.1624 388.644 89.6612 389.326 89.4727 390.386L55.569 389.822Z" fill="#263238"/>
<path d="M50.6006 130.383C50.3576 127.542 48.6519 124.667 45.9335 123.804L42.8057 125.598C39.5107 127.116 37.7662 131.349 39.0348 134.746C34.9489 137.072 33.5444 143.085 36.1787 146.98C34.1496 147.92 33.281 150.4 33.3162 152.635C33.3513 154.871 34.0692 157.041 34.2688 159.268C34.4231 160.988 34.2688 162.737 34.5848 164.434C34.9008 166.132 35.8221 167.86 37.4243 168.506C39.1078 169.184 41.1185 168.439 42.3418 167.098C43.5643 165.758 44.1261 163.94 44.4181 162.149C45.2608 156.987 44.1649 151.594 45.465 146.528C46.1737 143.766 47.5625 141.236 48.724 138.632C49.8873 136.03 50.8436 133.224 50.6006 130.383Z" fill="#263238"/>
<path d="M49.101 130.016C45.5583 129.992 42.1025 127.921 40.4107 124.808C38.7198 121.695 38.862 117.668 40.7692 114.684C41.0575 114.233 41.4077 113.785 41.9057 113.587C42.9572 113.17 44.0485 114.024 44.8588 114.813C46.8076 116.712 48.7563 118.611 50.705 120.51" fill="#263238"/>
<path d="M49.2627 122.712C44.8718 120.637 41.4215 115.715 40.1409 111.029C38.8602 106.345 40.3349 96.8541 41.5999 92.1648C43.1393 86.4581 45.5112 93.8012 47.4525 94.4036C48.6085 94.7621 49.4188 95.8534 49.7662 97.013C50.1137 98.1727 50.0749 99.4081 50.0324 100.618C49.7764 107.983 49.5195 115.348 49.2627 122.712Z" fill="#263238"/>
<path d="M60.4884 76.1611C67.8315 72.2156 73.7211 74.5468 76.5855 76.7866C79.45 79.0264 81.1779 82.4388 82.2284 85.9204C83.279 89.4021 83.7392 93.0316 84.593 96.5668C85.31 99.5375 85.3026 99.7269 85.723 102.754C86.1444 105.781 86.0049 111.182 84.4562 113.816C82.9677 116.349 81.3645 118.605 78.9076 120.216C78.0233 120.795 76.9782 121.401 75.9702 121.081C75.2383 120.849 74.7431 120.185 74.3023 119.557C66.3402 108.188 60.0643 95.6401 55.7427 82.4499" fill="#263238"/>
<path d="M52.3147 84.6423L65.0308 79.5178L68.361 79.8892C75.85 79.88 81.054 88.1147 81.1317 94.1799C81.2185 100.918 81.0577 109.148 80.0108 114.12C77.905 124.118 70.1166 125.013 70.1166 125.013C70.1166 124.997 70.208 127.744 70.2875 131.097C70.4307 137.123 65.5178 142.052 59.4905 141.93C53.745 141.812 49.1435 137.133 49.1222 131.387L48.9624 88.0796C49.0187 86.2362 50.475 84.744 52.3147 84.6423Z" fill="#FFBE9D"/>
<path d="M77.8875 100.851C77.8773 101.535 77.2896 102.09 76.5754 102.093C75.863 102.096 75.291 101.545 75.3012 100.861C75.3113 100.178 75.899 99.6213 76.6114 99.6195C77.3266 99.6158 77.8976 100.168 77.8875 100.851Z" fill="#263238"/>
<path d="M78.4761 97.6201C78.307 97.7809 77.3645 97.0075 75.9729 96.9409C74.5841 96.855 73.528 97.5194 73.3857 97.341C73.3155 97.2616 73.4938 96.9659 73.954 96.6647C74.4077 96.3644 75.17 96.089 76.0358 96.1352C76.9016 96.1833 77.6149 96.539 78.0168 96.8864C78.4289 97.2366 78.5583 97.548 78.4761 97.6201Z" fill="#263238"/>
<path d="M69.9817 108.506C69.9789 108.426 70.8512 108.321 72.2612 108.211C72.6179 108.192 72.9579 108.138 73.03 107.899C73.1261 107.646 72.9976 107.257 72.8461 106.834C72.555 105.958 72.251 105.04 71.9313 104.077C70.6663 100.154 69.7691 96.9345 69.9271 96.8855C70.0861 96.8356 71.2402 99.9754 72.506 103.899C72.8091 104.866 73.1002 105.787 73.3755 106.67C73.4901 107.08 73.698 107.549 73.4901 108.073C73.3811 108.334 73.1113 108.513 72.8803 108.563C72.6493 108.621 72.4497 108.615 72.2732 108.617C70.8585 108.623 69.9835 108.585 69.9817 108.506Z" fill="#263238"/>
<path d="M70.1175 125.012C70.1175 125.012 63.3159 125.109 56.8016 120.735C56.8016 120.735 60.0468 127.901 70.1813 127.464L70.1175 125.012Z" fill="#EB996E"/>
<path d="M69.0928 111.514C68.5661 110.697 67.7548 110.327 66.8521 110.331C66.2256 110.333 65.5945 110.594 65.2175 111.113C64.8414 111.633 64.7675 112.423 65.1186 112.999C65.5141 113.649 66.33 113.882 67.0184 113.744C67.7068 113.607 68.2963 113.175 68.8562 112.74C69.0105 112.62 69.1695 112.495 69.2646 112.316C69.3607 112.139 69.2147 111.685 69.0928 111.514Z" fill="#EB996E"/>
<path d="M65.8403 109.263C66.0666 109.261 65.9946 110.77 67.2327 111.907C68.4681 113.046 70.0861 112.958 70.0879 113.169C70.1046 113.265 69.7146 113.445 69.0346 113.429C68.3674 113.419 67.4046 113.155 66.6469 112.461C65.8911 111.764 65.5963 110.87 65.576 110.248C65.5511 109.615 65.7377 109.249 65.8403 109.263Z" fill="#263238"/>
<path d="M78.2755 93.7319C78.015 94.0349 77.0734 93.6598 75.9221 93.5859C74.7736 93.4722 73.784 93.6912 73.5761 93.3502C73.4855 93.1848 73.6555 92.8762 74.0963 92.5981C74.5315 92.3209 75.2457 92.113 76.0367 92.1767C76.8267 92.2414 77.4985 92.5621 77.8829 92.9058C78.2737 93.2514 78.391 93.5831 78.2755 93.7319Z" fill="#263238"/>
<path d="M62.5194 100.771C62.487 101.455 63.0378 102.045 63.7511 102.092C64.4626 102.139 65.0669 101.626 65.1001 100.943C65.1325 100.26 64.5818 99.6676 63.8703 99.6204C63.157 99.5724 62.5527 100.088 62.5194 100.771Z" fill="#263238"/>
<path d="M59.9155 97.4563C60.0735 97.6273 61.0632 96.9139 62.4556 96.9352C63.8472 96.9361 64.8599 97.6661 65.0124 97.497C65.0872 97.4221 64.9273 97.1154 64.4875 96.7864C64.0532 96.4584 63.3103 96.135 62.4427 96.1276C61.5751 96.1211 60.8414 96.4316 60.4182 96.7532C59.9867 97.0766 59.8379 97.3806 59.9155 97.4563Z" fill="#263238"/>
<path d="M60.5226 93.0426C60.7638 93.3614 61.7266 93.0463 62.8807 93.0453C64.0338 93.0038 65.0087 93.2847 65.2369 92.9566C65.3376 92.7968 65.1879 92.4789 64.7647 92.174C64.348 91.87 63.6476 91.6177 62.8548 91.6316C62.062 91.6464 61.3718 91.9245 60.9661 92.2433C60.555 92.563 60.4164 92.8864 60.5226 93.0426Z" fill="#263238"/>
<path d="M63.5635 78.443C60.3433 77.1457 55.4184 77.5837 52.6538 79.684C49.8891 81.7842 48.1622 85.0682 47.532 88.4824C46.9018 91.8966 47.7473 96.9546 48.6482 100.308C53.8605 93.5949 59.2253 85.8489 64.2556 78.9974L63.5635 78.443Z" fill="#263238"/>
<path d="M66.0288 75.393C83.693 72.9038 82.0612 99.6186 82.0612 99.6186C80.2963 89.7752 66.5952 79.4762 66.5952 79.4762L63.8093 79.0059L66.0288 75.393Z" fill="#263238"/>
<path d="M50.0592 105.105C50.0952 104.355 49.3163 102.542 48.5807 102.389C46.6172 101.981 43.0413 101.961 42.7567 106.986C42.3668 113.855 49.344 112.829 49.3671 112.632C49.3846 112.48 49.9353 107.697 50.0592 105.105Z" fill="#FFBE9D"/>
<path d="M48.3294 109.912C48.3008 109.888 48.2047 109.989 47.9977 110.07C47.7953 110.149 47.4525 110.192 47.1023 110.038C46.3918 109.73 45.8466 108.544 45.8836 107.304C45.9011 106.677 46.0656 106.089 46.316 105.609C46.5544 105.118 46.8991 104.786 47.2687 104.742C47.6364 104.679 47.8831 104.912 47.9561 105.11C48.0374 105.308 47.9857 105.443 48.0217 105.456C48.0393 105.474 48.1751 105.349 48.1363 105.063C48.116 104.924 48.0448 104.758 47.8905 104.617C47.7334 104.473 47.495 104.391 47.2391 104.404C46.7069 104.411 46.2033 104.871 45.9289 105.398C45.6258 105.926 45.4253 106.587 45.4059 107.289C45.3708 108.676 46.0065 110.011 46.9831 110.355C47.459 110.508 47.8711 110.385 48.0883 110.235C48.3072 110.077 48.3525 109.926 48.3294 109.912Z" fill="#EB996E"/>
<path d="M41.9815 88.6739C43.7371 83.9643 47.289 80.0742 51.4313 77.2273C53.6526 75.6999 56.1262 74.4202 58.8021 74.1005C61.479 73.7799 64.3905 74.5514 66.1701 76.5759L66.6673 77.0832C63.6282 83.8164 61.4891 89.5139 57.5787 95.7814C56.1419 98.0849 55.5228 105.927 55.1763 108.619C53.9936 117.812 48.9624 121.747 48.9624 121.747C38.0794 121.754 40.2259 93.3836 41.9815 88.6739Z" fill="#263238"/>
<path d="M47.3038 120.666C47.2862 120.72 46.7475 120.614 45.951 120.235C45.1564 119.859 44.1243 119.17 43.2113 118.171C42.3012 117.169 41.7108 116.077 41.4105 115.251C41.1065 114.423 41.051 113.877 41.1065 113.864C41.2488 113.812 41.7939 115.933 43.5662 117.847C45.307 119.789 47.3694 120.529 47.3038 120.666Z" fill="#455A64"/>
<path d="M45.9981 129.609C45.9991 129.733 44.5401 129.619 43.1531 128.565C41.7551 127.526 41.2395 126.157 41.3578 126.123C41.4835 126.053 42.1478 127.224 43.4423 128.18C44.7212 129.158 46.0314 129.469 45.9981 129.609Z" fill="#455A64"/>
<path d="M41.4141 138.047C41.306 138.124 40.6768 137.43 40.0087 136.498C39.3407 135.565 38.8861 134.746 38.9942 134.668C39.1023 134.591 39.7315 135.285 40.3996 136.217C41.0676 137.15 41.5223 137.97 41.4141 138.047Z" fill="#455A64"/>
<path d="M37.8734 148.447C37.7736 148.535 37.2875 148.144 36.7886 147.574C36.2896 147.004 35.9653 146.472 36.066 146.384C36.1658 146.296 36.6518 146.687 37.1508 147.257C37.6498 147.826 37.9732 148.359 37.8734 148.447Z" fill="#455A64"/>
<path d="M39.9699 104.227C39.9561 104.196 40.4199 103.927 41.27 103.466C41.6978 103.241 42.2171 102.958 42.7992 102.594C43.3841 102.236 44.0688 101.86 44.7757 101.363C46.2273 100.431 47.8767 99.2003 49.6175 97.7311C51.3361 96.2352 53.1324 94.4833 54.8474 92.4893C56.5438 90.4777 57.9862 88.4236 59.1893 86.4888C60.3628 84.5354 61.3145 82.7114 62.0038 81.1295C62.3808 80.3524 62.6432 79.616 62.9038 78.9821C63.1708 78.3492 63.3667 77.792 63.5201 77.3337C63.8398 76.4217 64.032 75.92 64.0643 75.9292C64.0967 75.9384 63.9645 76.4577 63.6984 77.3919C63.5709 77.8613 63.4009 78.4305 63.156 79.0764C62.9176 79.7241 62.6755 80.4735 62.3161 81.2653C61.6619 82.8768 60.7333 84.7341 59.569 86.7188C58.3752 88.6851 56.9273 90.7697 55.2133 92.8016C53.4808 94.8168 51.654 96.578 49.9039 98.0693C48.1298 99.5348 46.4454 100.747 44.9586 101.651C44.2342 102.132 43.532 102.491 42.9314 102.829C42.3326 103.174 41.7985 103.432 41.355 103.633C40.4754 104.044 39.9838 104.257 39.9699 104.227Z" fill="#455A64"/>
<path d="M56.9643 95.9949C56.9883 96.018 56.8081 96.249 56.4598 96.6482C56.1151 97.051 55.581 97.6036 54.8926 98.2559C53.5186 99.5625 51.4637 101.219 48.9661 102.699C46.4648 104.172 44.0217 105.172 42.2134 105.745C41.3097 106.033 40.5687 106.234 40.0494 106.341C39.531 106.453 39.2418 106.5 39.2335 106.468C39.2141 106.392 40.3395 106.076 42.1025 105.423C43.8655 104.774 46.2522 103.738 48.7212 102.284C51.1855 100.824 53.2442 99.2335 54.6644 98.0028C56.0874 96.7738 56.9079 95.9404 56.9643 95.9949Z" fill="#455A64"/>
<path d="M82.6054 104.768C82.5666 104.757 82.6978 104.227 82.8873 103.263C83.0795 102.3 83.2855 100.89 83.3428 99.1403C83.4796 95.6679 82.769 90.6931 80.058 86.0703C77.3386 81.4493 73.3377 78.4075 70.2376 76.8367C68.6807 76.0346 67.3492 75.5283 66.4141 75.228C65.4799 74.9249 64.9532 74.7817 64.9625 74.742C64.9662 74.7253 65.102 74.7438 65.3579 74.7937C65.6111 74.8501 65.9936 74.9083 66.4686 75.0487C67.4268 75.2964 68.7925 75.7584 70.391 76.5327C73.5733 78.0462 77.6943 81.1037 80.4728 85.8263C83.2439 90.5508 83.9101 95.6384 83.6828 99.1542C83.5812 100.927 83.3206 102.346 83.0702 103.304C82.9621 103.787 82.8272 104.149 82.7533 104.399C82.671 104.646 82.6212 104.773 82.6054 104.768Z" fill="#455A64"/>
<path d="M164.489 167.231C164.022 167.716 163.904 168.774 164.18 169.377C164.457 169.979 164.996 170.416 165.554 170.776C166.48 169.825 167.251 168.722 167.826 167.524" fill="#EB996E"/>
<path d="M160.475 166.063C159.902 166.417 159.525 167.413 159.644 168.065C159.762 168.717 160.177 169.274 160.627 169.76C161.76 169.069 162.781 168.191 163.634 167.174" fill="#EB996E"/>
<path d="M69.3506 135.592C69.3506 135.592 99.7439 159.51 105.22 160.292C110.695 161.075 136.336 157.97 146.853 157.64L148.345 166.466C148.345 166.466 119.299 176.328 108.739 176.719C98.1787 177.11 92.1135 174.259 92.1135 174.259L72.3656 154.034L69.3506 135.592Z" fill="#FFBE9D"/>
<path d="M146.186 157.731C146.186 157.731 159.755 155.798 161.865 156.853C163.974 157.908 170.036 163.027 170.036 163.027C170.036 163.027 172.053 168.711 170.782 168.979C169.512 169.246 168.193 167.137 168.193 167.137L166.479 163.972L158.9 162.128L146.319 163.24L146.186 157.731Z" fill="#FFBE9D"/>
<path d="M148.346 166.466C148.543 166.705 153.387 169.047 155.853 168.979C158.319 168.91 161.141 166.988 163.266 167.282C165.389 167.576 169.793 167.916 170.328 167.155C170.863 166.394 171.014 165.508 170.291 164.823C169.567 164.138 166.008 163.463 163.439 162.775C160.871 162.086 159.634 161.022 159.634 161.022L144.694 162.668L143.846 167.33L148.346 166.466Z" fill="#FFBE9D"/>
<path d="M154.809 160.87C154.809 160.837 155.086 160.818 155.592 160.811C156.094 160.828 156.828 160.88 157.711 161.067C159.493 161.394 161.811 162.323 164.376 163.182C165.667 163.607 166.906 163.894 168.075 164.054C168.66 164.144 169.281 164.288 169.726 164.695C170.176 165.102 170.328 165.686 170.278 166.169C170.236 166.664 169.968 167.076 169.659 167.303C169.35 167.538 169.022 167.626 168.76 167.646C168.223 167.677 167.971 167.479 167.986 167.464C167.998 167.421 168.265 167.544 168.736 167.46C169.177 167.393 169.906 166.984 169.939 166.144C169.961 165.746 169.813 165.286 169.463 164.994C169.111 164.69 168.583 164.567 168.01 164.493C166.834 164.357 165.529 164.07 164.228 163.64C161.626 162.768 159.364 161.804 157.636 161.399C155.919 160.947 154.805 160.96 154.809 160.87Z" fill="#EB996E"/>
<path d="M164.587 163.682C164.538 163.799 163.471 163.43 162.393 162.576C161.31 161.727 160.702 160.776 160.803 160.7C160.911 160.613 161.657 161.39 162.69 162.197C163.717 163.014 164.646 163.557 164.587 163.682Z" fill="#EB996E"/>
<path d="M43.1688 316.82L15.6261 329.086L18.9358 343.79C18.9358 343.79 53.5741 333.467 64.9338 331.172C76.2631 328.883 94.624 325.956 99.8105 314.969L43.1688 316.82Z" fill="#FFBE9D"/>
<path d="M21.5786 344.059L20.6176 344.318C20.6176 344.318 18.4055 362.373 15.3572 363.37L6.90627 330.937L17.6626 327.942C16.685 333.346 17.9001 339.081 21.5786 344.059Z" fill="#80C4E9"/>
<path d="M6.90526 330.936L9.52852 330.366L16.6674 361.661C16.6674 361.661 16.4151 363.269 15.3553 363.37L6.90526 330.936Z" fill="#263238"/>
<path d="M99.6718 315.39C99.6718 315.39 99.6118 315.672 99.3789 316.163C99.1544 316.657 98.7284 317.346 98.0585 318.133C96.7215 319.715 94.3736 321.592 91.2634 323.552C89.6843 324.518 87.8399 325.354 85.8099 326.106C83.7817 326.891 81.504 327.366 79.1672 327.963C74.4705 329.149 69.3173 330.501 63.9109 331.928C53.1121 334.78 43.3389 337.36 36.2138 339.241C32.6934 340.137 29.8308 340.867 27.8008 341.384C26.8361 341.614 26.0701 341.797 25.5046 341.932C24.9779 342.053 24.6998 342.108 24.6961 342.091C24.6915 342.076 24.9622 341.989 25.4806 341.838C26.0405 341.682 26.7982 341.469 27.7536 341.202C29.7744 340.65 32.6241 339.87 36.127 338.912C43.2003 336.988 52.9716 334.322 63.789 331.462C69.1963 330.035 74.3541 328.696 79.061 327.533C81.419 326.942 83.669 326.489 85.675 325.73C87.6893 325.001 89.5272 324.189 91.0878 323.26C94.1999 321.35 96.5598 319.529 97.919 318.008C99.3013 316.496 99.6155 315.358 99.6718 315.39Z" fill="#EB996E"/>
<path d="M55.9192 197.264L56.5411 202.688C56.5411 202.688 47.0044 220.717 47.0044 230.391C47.0044 240.065 42.6034 317.072 42.6034 317.072C42.6034 317.072 94.3422 320.017 99.8114 314.969C105.28 309.921 105.28 309.921 105.28 309.921L123.788 304.873L94.9141 199.51V193.865L55.9192 197.264Z" fill="#263238"/>
<path d="M91.317 223.363C91.3253 223.362 91.3419 223.434 91.3678 223.576C91.3955 223.746 91.4288 223.953 91.4704 224.207C91.5554 224.803 91.6709 225.614 91.8169 226.638C92.1181 228.792 92.545 231.837 93.0689 235.581C94.1481 243.129 95.755 253.54 97.8266 264.986C99.9056 276.435 102.055 286.748 103.695 294.195C104.518 297.884 105.188 300.884 105.662 303.008C105.885 304.018 106.061 304.818 106.191 305.406C106.242 305.657 106.282 305.863 106.316 306.032C106.342 306.174 106.352 306.247 106.343 306.249C106.335 306.251 106.31 306.182 106.268 306.043C106.222 305.877 106.165 305.674 106.096 305.428C105.945 304.845 105.74 304.052 105.48 303.05C104.951 300.984 104.224 297.984 103.363 294.269C101.638 286.838 99.4335 276.529 97.3535 265.071C95.2801 253.616 93.7249 243.189 92.7316 235.626C92.2336 231.844 91.8603 228.78 91.6312 226.66C91.523 225.631 91.4371 224.816 91.3743 224.217C91.3521 223.961 91.3346 223.752 91.3198 223.58C91.3096 223.438 91.3087 223.364 91.317 223.363Z" fill="#455A64"/>
<path d="M54.1571 233.008C54.1728 233.004 54.2468 233.214 54.3724 233.618C54.5064 234.07 54.681 234.658 54.8982 235.39C55.3648 236.984 56.0125 239.198 56.8072 241.91C58.439 247.409 60.8026 254.973 63.6901 263.234C66.5841 271.494 69.4541 278.883 71.6079 284.198C72.6789 286.814 73.553 288.949 74.1813 290.485C74.4677 291.193 74.6987 291.761 74.8752 292.198C75.0286 292.592 75.1025 292.802 75.0868 292.809C75.072 292.816 74.9685 292.619 74.7856 292.237C74.5878 291.81 74.33 291.253 74.0085 290.56C73.3395 289.101 72.409 286.972 71.2919 284.329C69.0558 279.041 66.1323 271.664 63.2346 263.392C60.3434 255.123 58.0278 247.533 56.4792 242.005C55.703 239.241 55.1033 236.996 54.7162 235.439C54.5351 234.697 54.3891 234.101 54.2773 233.642C54.183 233.23 54.1405 233.012 54.1571 233.008Z" fill="#455A64"/>
<path d="M96.6753 202.059C96.6771 202.092 96.1246 202.158 95.123 202.248C94.1214 202.341 92.6707 202.447 90.8753 202.555C87.2865 202.772 82.3199 202.966 76.8323 202.99C71.3427 203.012 66.3753 202.858 62.7837 202.67C60.9883 202.576 59.5358 202.482 58.5341 202.397C57.5316 202.315 56.979 202.253 56.9809 202.22C56.9827 202.186 57.539 202.185 58.5443 202.21C59.63 202.24 61.0641 202.28 62.7975 202.329C66.3882 202.429 71.3492 202.529 76.8304 202.508C82.3098 202.484 87.2698 202.344 90.8596 202.214C92.593 202.151 94.0262 202.1 95.1119 202.061C96.1163 202.028 96.6735 202.027 96.6753 202.059Z" fill="#455A64"/>
<path d="M70.1803 131.718C69.9309 131.131 88.5339 145.966 90.8716 153.191C93.2094 160.417 93.6058 181.261 93.6058 181.261L94.9132 194.642L57.7728 197.264L56.7767 194.642L54.0324 187.186L50.207 175.922C50.207 175.922 41.0529 161.704 39.2344 155.579C36.9771 147.974 40.7184 140.185 40.7184 140.185L49.1213 130.704L70.1803 131.718Z" fill="#80C4E9"/>
<path d="M49.1232 131.387C49.1232 131.387 47.0645 127.563 48.334 125.899C49.344 124.576 67.2254 126.234 70.8752 127.008C73.018 127.461 70.8355 132.24 70.8355 132.24L49.1232 131.387Z" fill="#80C4E9"/>
<g opacity="0.3">
<path d="M59.8352 149.402C61.394 153.434 59.193 165.956 58.8529 168.936C58.5129 171.917 57.6665 174.814 56.8007 177.687C56.3978 179.022 56.0144 180.56 56.7702 181.732C57.9881 183.62 61.1297 183.086 62.6497 184.741C59.8213 186.063 56.5614 186.441 53.5057 185.8C52.9707 185.689 52.4052 185.523 52.0587 185.101C51.7907 184.775 51.6956 184.344 51.6124 183.93C50.7328 179.547 50.3428 175.001 51.1837 170.61C52.0245 166.219 56.2158 155.676 59.7428 152.928" fill="black"/>
</g>
<path d="M60.4866 154.932C60.6039 154.965 60.0403 157.005 58.7014 159.22C57.3736 161.445 55.8388 162.901 55.7547 162.812C55.6476 162.716 56.9929 161.146 58.2893 158.973C59.5977 156.808 60.3517 154.883 60.4866 154.932Z" fill="#263238"/>
<path d="M70.8761 131.784C70.8817 131.816 70.5795 131.898 70.026 132.019C69.4735 132.143 68.6659 132.282 67.6624 132.417C65.6564 132.689 62.8511 132.88 59.7594 132.727C56.6667 132.569 53.8947 132.097 51.9266 131.625C50.9416 131.39 50.1516 131.171 49.6147 130.992C49.076 130.816 48.784 130.705 48.7933 130.673C48.8145 130.599 50.0231 130.911 51.9977 131.293C53.9714 131.678 56.7213 132.091 59.7843 132.248C62.8456 132.398 65.6231 132.263 67.6255 132.08C69.6278 131.897 70.8623 131.708 70.8761 131.784Z" fill="#263238"/>
<path d="M83.96 167.696C83.8778 167.67 84.2031 166.673 84.4535 165.019C84.7085 163.369 84.8064 161.041 84.3666 158.529C83.9166 156.02 83.0231 153.867 82.2164 152.404C81.4126 150.937 80.7658 150.113 80.8332 150.061C80.8591 150.039 81.0402 150.229 81.3479 150.592C81.662 150.95 82.0649 151.51 82.5112 152.235C83.4093 153.68 84.3796 155.872 84.8406 158.446C85.2925 161.021 85.1345 163.413 84.7889 165.078C84.6189 165.912 84.4331 166.577 84.2613 167.021C84.0959 167.467 83.9915 167.706 83.96 167.696Z" fill="#263238"/>
<g opacity="0.3">
<path d="M59.3445 132.416C56.4191 132.159 52.9753 131.808 50.1229 131.107C54.3724 133.382 59.5552 134.561 64.3378 133.956C66.1258 133.73 68.0071 133.226 69.1917 131.868C66.4557 132.938 62.2699 132.672 59.3445 132.416Z" fill="black"/>
</g>
<g opacity="0.3">
<path d="M80.3102 171.947C83.645 168.471 85.2878 163.44 84.6466 158.666C85.152 160.531 85.2546 161.56 85.3331 163.49C85.4117 165.421 85.177 167.27 84.0367 168.83C82.8974 170.391 82.2377 171.335 80.3102 171.947Z" fill="black"/>
</g>
<path d="M54.4214 141.275C50.4399 137.962 44.3904 138.412 41.2257 142.514C41.0917 142.688 40.9642 142.865 40.844 143.045C38.9166 145.937 33.5961 190.985 35.7158 196.382C37.8364 201.779 40.9198 201.394 40.9198 201.394C40.9198 201.394 54.8529 201.237 64.8756 198.924C74.8983 196.611 86.0751 192.813 86.0751 192.813L84.2225 181.903C84.2225 181.903 59.6808 185.152 52.9347 184.382L55.5099 162.451C55.5099 162.451 61.3736 155.304 59.6919 148.751C58.8936 145.638 56.6048 143.092 54.4214 141.275Z" fill="#FFBE9D"/>
<path d="M91.9582 175.197L97.4672 171.494L101.433 168.15C101.433 168.15 101.922 169.808 100.687 171.673C99.4538 173.54 97.3868 176.33 97.3868 176.33L91.9582 175.197Z" fill="#FFBE9D"/>
<path d="M100.181 172.965C100.135 172.927 100.491 172.542 100.877 171.743C101.249 170.964 101.595 169.651 101.235 168.209L101.565 168.307C100.393 169.309 99.0537 170.453 97.6224 171.677L97.6132 171.685L97.6011 171.692C97.5078 171.755 97.4071 171.823 97.3064 171.891C96.0802 172.707 94.9114 173.485 93.8303 174.206C92.7631 174.918 91.7938 175.547 90.9317 175.998C89.2352 176.945 88.1707 177.502 88.1366 177.444C88.1033 177.387 89.1058 176.727 90.7524 175.709C91.5896 175.222 92.5385 174.565 93.59 173.833C94.6628 173.105 95.8215 172.318 97.0384 171.492C97.1392 171.424 97.2399 171.357 97.3323 171.294L97.3119 171.31C98.7599 170.106 100.114 168.979 101.3 167.993L101.561 167.776L101.63 168.092C101.987 169.714 101.54 171.058 101.09 171.853C100.863 172.256 100.635 172.541 100.466 172.716C100.295 172.894 100.198 172.98 100.181 172.965Z" fill="#EB996E"/>
<path d="M89.9689 184.498C90.1564 184.126 104.645 167.978 108.214 164.002C108.68 163.483 109.435 163.342 110.058 163.655C110.968 164.114 111.193 165.311 110.511 166.069L91.9573 186.701L89.9689 184.498Z" fill="#263238"/>
<path d="M105.393 177.443C105.987 176.637 105.099 175.06 104.279 174.627C103.459 174.195 100.181 176.004 100.181 176.004L98.9927 176.111C98.9927 176.111 92.63 174.823 92.4175 174.927C92.3315 174.97 89.8672 175.994 87.8205 177.697C87.1543 178.251 86.6184 178.939 86.1444 179.664C85.6584 180.407 84.4673 181.633 81.6962 182.295L84.3962 193.261C84.3962 193.261 90.3126 191.868 90.7598 191.864C91.208 191.859 96.1615 191.46 96.8204 191.351C97.4801 191.242 100.276 190.369 102.397 188.792C104.517 187.215 103.528 185.874 103.528 185.874C105.723 184.385 104.012 182.904 104.012 182.904L104.625 181.855C105.534 180.18 103.697 179.257 103.697 179.257C103.697 179.257 104.799 178.248 105.393 177.443Z" fill="#FFBE9D"/>
<path d="M100.992 180.847C100.954 180.726 101.648 180.411 102.435 179.923C103.225 179.441 103.818 178.963 103.909 179.051C103.997 179.13 103.511 179.784 102.667 180.301C101.827 180.822 101.024 180.96 100.992 180.847Z" fill="#EB996E"/>
<path d="M102.851 183.827C102.774 183.731 102.999 183.417 103.356 183.125C103.713 182.832 104.064 182.672 104.142 182.767C104.22 182.861 103.994 183.175 103.638 183.468C103.281 183.761 102.929 183.922 102.851 183.827Z" fill="#EB996E"/>
<path d="M102.197 186.257C102.185 186.132 102.554 185.999 102.985 185.833C103.419 185.67 103.782 185.525 103.856 185.626C103.929 185.721 103.64 186.06 103.142 186.248C102.647 186.437 102.205 186.377 102.197 186.257Z" fill="#EB996E"/>
<path d="M100.181 176.003C100.192 176.143 98.6841 176.337 96.8296 176.477C94.9714 176.605 93.4902 176.771 93.4607 176.659C93.4228 176.513 94.9225 176.125 96.7917 175.997C98.6582 175.857 100.171 175.878 100.181 176.003Z" fill="#EB996E"/>
<path d="M53.259 184.18C53.3588 184.268 52.2564 185.685 50.7974 187.343C49.3384 189.003 48.0744 190.276 47.9746 190.188C47.8748 190.1 48.9762 188.685 50.4362 187.025C51.8961 185.367 53.1592 184.094 53.259 184.18Z" fill="#EB996E"/>
<path d="M59.4803 154.394C59.4341 154.384 59.5469 153.903 59.631 153.022C59.7169 152.146 59.7797 150.854 59.4535 149.318C59.1292 147.784 58.3503 146.051 57.101 144.387C55.8906 142.708 54.1035 141.191 51.9192 140.229C49.7367 139.276 47.3611 139.076 45.416 139.805C43.434 140.411 41.9556 141.676 41.1868 143.036C40.3922 144.384 40.0743 145.646 39.8646 146.5C39.6613 147.362 39.5837 147.849 39.5421 147.843C39.5255 147.841 39.5283 147.717 39.5486 147.483C39.5717 147.249 39.5976 146.901 39.6816 146.462C39.8378 145.587 40.1048 144.289 40.8939 142.864C41.2894 142.157 41.8457 141.433 42.5932 140.824C43.337 140.212 44.261 139.726 45.2774 139.385C47.3019 138.596 49.8559 138.792 52.1114 139.788C54.3798 140.785 56.2306 142.379 57.4586 144.125C58.7199 145.843 59.4979 147.658 59.7871 149.25C60.0809 150.847 59.9608 152.166 59.8176 153.046C59.7464 153.49 59.667 153.828 59.5995 154.053C59.5367 154.281 59.496 154.398 59.4803 154.394Z" fill="#263238"/>
<path d="M128.019 110.725H90.1322C88.5771 110.725 87.3159 111.986 87.3159 113.541V150.257C87.3159 151.813 88.5771 153.074 90.1322 153.074H104.082L109.531 160.796L114.26 153.074H128.02C129.576 153.074 130.837 151.813 130.837 150.257V113.541C130.837 111.985 129.575 110.725 128.019 110.725Z" fill="#FAFAFA"/>
<path d="M128.019 110.725C128.019 110.725 128.422 110.644 129.133 110.911C129.48 111.053 129.89 111.306 130.251 111.733C130.601 112.16 130.898 112.776 130.91 113.514C130.925 116.391 130.948 120.553 130.976 125.786C130.991 131.043 131.008 137.373 131.028 144.555C131.032 146.351 131.034 148.201 131.038 150.1C131.097 151.097 130.599 152.164 129.731 152.75C129.299 153.043 128.788 153.235 128.26 153.273C127.734 153.298 127.262 153.282 126.755 153.287C122.764 153.292 118.589 153.297 114.258 153.302L114.452 153.193C112.958 155.638 111.36 158.251 109.729 160.919L109.544 161.223L109.338 160.931C107.605 158.477 105.761 155.867 103.885 153.212L104.08 153.312C100.956 153.313 97.649 153.313 94.2986 153.314C92.774 153.303 91.3103 153.338 89.7617 153.289C88.9541 153.196 88.2001 152.76 87.7123 152.121C87.204 151.498 87.0257 150.621 87.0747 149.889C87.0756 146.943 87.0775 144.041 87.0784 141.188C87.083 135.484 87.0876 129.983 87.0922 124.74C87.0959 122.12 87.0987 119.564 87.1024 117.081C87.107 115.836 87.1107 114.61 87.1144 113.403C87.1551 112.096 88.1281 110.932 89.3477 110.63C89.9705 110.459 90.5591 110.549 91.1237 110.527C91.6966 110.528 92.2639 110.529 92.8257 110.531C93.9502 110.534 95.0535 110.535 96.1355 110.538C98.2986 110.544 100.375 110.548 102.358 110.554C110.269 110.586 116.679 110.612 121.134 110.631C123.333 110.65 125.05 110.666 126.238 110.676C126.805 110.686 127.246 110.694 127.566 110.7C127.867 110.708 128.019 110.725 128.019 110.725C128.019 110.725 127.866 110.741 127.567 110.75C127.248 110.755 126.806 110.764 126.239 110.774C125.05 110.784 123.334 110.8 121.134 110.819C116.68 110.838 110.27 110.863 102.359 110.896C100.377 110.9 98.2995 110.906 96.1364 110.911C95.0544 110.914 93.9511 110.916 92.8266 110.919C92.2639 110.92 91.6966 110.922 91.1246 110.923C90.5499 110.944 89.9622 110.867 89.4522 111.019C88.3951 111.283 87.557 112.297 87.5265 113.424C87.5265 114.625 87.5265 115.846 87.5265 117.084C87.5302 119.567 87.533 122.122 87.5367 124.743C87.5413 129.985 87.5459 135.487 87.5505 141.191C87.5515 144.044 87.5533 146.946 87.5542 149.892C87.5145 150.625 87.6633 151.28 88.0929 151.831C88.506 152.371 89.1408 152.738 89.8199 152.815C91.254 152.857 92.8008 152.826 94.2995 152.835C97.6499 152.836 100.956 152.836 104.081 152.837H104.205L104.276 152.939C106.149 155.596 107.991 158.209 109.721 160.664L109.329 160.677C110.964 158.012 112.566 155.401 114.064 152.958L114.131 152.849H114.258C118.589 152.854 122.764 152.86 126.755 152.864C127.247 152.86 127.767 152.876 128.226 152.856C128.682 152.824 129.121 152.661 129.495 152.41C130.246 151.895 130.679 151.009 130.631 150.102C130.635 148.203 130.639 146.354 130.642 144.556C130.661 137.376 130.679 131.045 130.693 125.788C130.721 120.555 130.742 116.394 130.758 113.517C130.76 112.817 130.488 112.224 130.161 111.806C129.824 111.389 129.435 111.132 129.101 110.984C128.421 110.699 128.014 110.755 128.019 110.725Z" fill="#263238"/>
<path d="M115.421 137.507C115.421 137.513 115.333 137.518 115.163 137.524C114.978 137.527 114.73 137.533 114.419 137.54C113.754 137.548 112.819 137.558 111.663 137.571C109.312 137.581 106.067 137.596 102.414 137.612H102.338L102.328 137.538C102.259 137.049 102.186 136.53 102.111 136.006C101.491 131.519 100.938 127.517 100.575 124.9L100.63 124.947C99.5876 124.938 98.756 124.93 98.1665 124.925C97.892 124.919 97.6749 124.915 97.5113 124.911C97.3626 124.906 97.285 124.901 97.285 124.896C97.285 124.891 97.3626 124.886 97.5113 124.88C97.6749 124.877 97.892 124.871 98.1665 124.865C98.7551 124.857 99.5876 124.848 100.63 124.836L100.678 124.835L100.684 124.883C101.061 127.497 101.637 131.497 102.283 135.98C102.357 136.504 102.43 137.023 102.499 137.512L102.413 137.437C106.065 137.442 109.311 137.448 111.663 137.452C112.818 137.461 113.754 137.469 114.418 137.475C114.73 137.481 114.977 137.486 115.162 137.489C115.333 137.496 115.421 137.501 115.421 137.507Z" fill="#263238"/>
<path d="M102.315 137.779C102.242 137.769 102.183 137.711 102.173 137.636L100.437 125.114L97.5086 125.081C97.2462 125.073 97.126 125.069 97.1186 124.905C97.1214 124.728 97.2498 124.723 97.5067 124.715L98.1637 124.699L100.676 124.67C100.761 124.669 100.832 124.73 100.844 124.813L102.635 137.272L115.165 137.324C115.468 137.332 115.583 137.336 115.589 137.502C115.589 137.505 115.589 137.509 115.589 137.512C115.585 137.678 115.471 137.682 115.168 137.692L114.422 137.708L111.664 137.739L102.338 137.781C102.331 137.781 102.323 137.78 102.315 137.779Z" fill="#263238"/>
<path d="M102.033 134.832C102.033 134.829 102.056 134.827 102.098 134.824C102.15 134.823 102.213 134.82 102.29 134.817C102.471 134.813 102.719 134.809 103.034 134.802C103.697 134.796 104.639 134.786 105.818 134.774C108.208 134.763 111.549 134.747 115.417 134.729L115.335 134.799C115.616 133.182 115.921 131.435 116.237 129.626C116.401 128.695 116.561 127.782 116.714 126.91L116.799 127.012C112.307 127.006 108.343 127.003 105.486 126.999C104.073 126.99 102.935 126.982 102.136 126.978C101.753 126.972 101.451 126.968 101.233 126.964C101.138 126.961 101.061 126.958 100.999 126.957C100.947 126.954 100.92 126.951 100.92 126.948C100.92 126.945 100.947 126.943 100.999 126.94C101.061 126.938 101.138 126.935 101.233 126.932C101.451 126.928 101.753 126.922 102.136 126.915C102.935 126.908 104.073 126.897 105.486 126.884C108.343 126.873 112.307 126.858 116.799 126.839L116.903 126.838L116.885 126.94C116.733 127.811 116.573 128.725 116.41 129.656C116.092 131.464 115.785 133.211 115.5 134.826L115.488 134.896H115.418C111.55 134.888 108.209 134.883 105.819 134.878C104.641 134.87 103.698 134.862 103.035 134.858C102.72 134.852 102.472 134.848 102.291 134.845C102.214 134.842 102.151 134.839 102.099 134.837C102.056 134.836 102.033 134.835 102.033 134.832Z" fill="#263238"/>
<path d="M102.039 135.002C101.966 134.992 101.864 134.958 101.865 134.83C101.867 134.669 102.033 134.66 102.089 134.656L103.031 134.634L105.816 134.606L115.205 134.562L116.497 127.179L100.995 127.124C100.919 127.12 100.749 127.112 100.753 126.945C100.756 126.786 100.914 126.777 100.99 126.773L102.132 126.748L107.845 126.707L116.901 126.671C116.951 126.671 116.998 126.692 117.029 126.73C117.061 126.768 117.074 126.818 117.066 126.867L115.651 134.925C115.638 135.006 115.567 135.064 115.486 135.064L102.091 135.006C102.08 135.007 102.061 135.005 102.039 135.002Z" fill="#263238"/>
<path d="M105.671 141.052C105.656 141.052 105.655 140.936 105.597 140.742C105.541 140.552 105.406 140.276 105.119 140.067C104.841 139.858 104.388 139.743 103.954 139.908C103.522 140.059 103.151 140.519 103.157 141.054C103.152 141.59 103.525 142.049 103.956 142.199C104.391 142.363 104.844 142.247 105.121 142.037C105.409 141.826 105.542 141.55 105.598 141.36C105.655 141.167 105.655 141.051 105.671 141.052C105.679 141.051 105.703 141.168 105.664 141.378C105.625 141.583 105.501 141.891 105.196 142.135C104.902 142.38 104.399 142.528 103.902 142.352C103.409 142.191 102.977 141.669 102.982 141.055C102.976 140.442 103.407 139.919 103.898 139.757C104.394 139.579 104.898 139.726 105.194 139.97C105.499 140.213 105.624 140.521 105.663 140.726C105.703 140.935 105.679 141.052 105.671 141.052Z" fill="#263238"/>
<path d="M104.141 142.583C104.045 142.569 103.945 142.545 103.845 142.51C103.331 142.341 102.809 141.787 102.814 141.054C102.807 140.324 103.327 139.768 103.845 139.598C104.442 139.385 105.003 139.595 105.3 139.841C105.688 140.15 105.798 140.541 105.827 140.696C105.842 140.774 105.866 140.933 105.844 141.052C105.866 141.172 105.843 141.331 105.828 141.409C105.799 141.563 105.69 141.955 105.301 142.267C105.056 142.47 104.626 142.651 104.141 142.583ZM104.536 140.007C104.374 139.984 104.196 139.996 104.013 140.065C103.665 140.187 103.32 140.565 103.324 141.053C103.321 141.545 103.667 141.922 104.012 142.042C104.419 142.195 104.81 142.063 105.02 141.904C105.29 141.707 105.397 141.45 105.437 141.314C105.465 141.216 105.478 141.14 105.486 141.091C105.488 141.081 105.49 141.067 105.494 141.052C105.49 141.038 105.488 141.025 105.486 141.015C105.478 140.966 105.465 140.889 105.436 140.791C105.395 140.656 105.288 140.399 105.02 140.204C104.902 140.115 104.732 140.035 104.536 140.007Z" fill="#263238"/>
<path d="M114.042 141.039C114.026 141.04 114.025 140.924 113.968 140.73C113.912 140.539 113.777 140.264 113.489 140.055C113.211 139.845 112.758 139.731 112.324 139.895C111.893 140.047 111.523 140.507 111.528 141.042C111.524 141.578 111.895 142.036 112.327 142.187C112.762 142.35 113.215 142.235 113.492 142.024C113.779 141.814 113.912 141.538 113.969 141.348C114.025 141.155 114.026 141.038 114.042 141.039C114.049 141.038 114.073 141.156 114.034 141.365C113.996 141.571 113.872 141.878 113.567 142.123C113.272 142.368 112.769 142.516 112.272 142.339C111.78 142.179 111.348 141.656 111.353 141.043C111.346 140.429 111.777 139.906 112.269 139.745C112.765 139.567 113.268 139.713 113.564 139.957C113.87 140.201 113.995 140.509 114.034 140.714C114.073 140.923 114.049 141.04 114.042 141.039Z" fill="#263238"/>
<path d="M112.513 142.57C112.416 142.557 112.317 142.533 112.216 142.497C111.701 142.329 111.179 141.775 111.186 141.042C111.177 140.312 111.698 139.757 112.216 139.586C112.813 139.372 113.373 139.582 113.67 139.828C114.058 140.137 114.168 140.528 114.198 140.683C114.213 140.761 114.237 140.92 114.215 141.039C114.237 141.159 114.214 141.317 114.199 141.396C114.169 141.55 114.06 141.941 113.671 142.254C113.426 142.458 112.997 142.64 112.513 142.57ZM112.905 139.995C112.745 139.972 112.565 139.984 112.382 140.052C112.035 140.174 111.689 140.552 111.695 141.041C111.691 141.533 112.038 141.91 112.381 142.03C112.791 142.184 113.18 142.051 113.389 141.892C113.659 141.694 113.766 141.438 113.806 141.302C113.835 141.205 113.848 141.128 113.856 141.079C113.858 141.069 113.86 141.055 113.863 141.04C113.861 141.025 113.858 141.013 113.856 141.002C113.848 140.953 113.835 140.877 113.805 140.779C113.765 140.644 113.657 140.387 113.389 140.192C113.273 140.102 113.103 140.023 112.905 139.995Z" fill="#263238"/>
<path d="M121.565 128.265C121.565 130.674 119.612 132.627 117.203 132.627C114.794 132.627 112.841 130.675 112.841 128.265C112.841 125.856 114.793 123.903 117.203 123.903C119.613 123.904 121.565 125.856 121.565 128.265Z" fill="#FF725E"/>
<path d="M114.709 128.358L115.362 127.706L116.621 128.825L119.092 126.448L119.698 127.1L116.527 130.084L114.709 128.358Z" fill="white"/>
</svg>
