<svg width="422" height="270" viewBox="0 0 422 270" fill="none" xmlns="http://www.w3.org/2000/svg">
<path d="M74.0515 1.99953H69.5137V99.6689H74.0515V1.99953Z" fill="#E0E0E0"/>
<path d="M3.68619 2.82021V99.7393C3.68619 99.7756 3.71538 99.8048 3.75155 99.8048H68.7585C68.7947 99.8048 68.8239 99.7756 68.8239 99.7393V2.82021C68.8239 2.784 68.7947 2.75478 68.7585 2.75478H3.75218C3.71601 2.75478 3.68619 2.784 3.68619 2.82021Z" fill="#F5F5F5"/>
<path d="M69.5137 100.56H2.99706C2.96089 100.56 2.9317 100.531 2.9317 100.495V2.06495C2.9317 2.02874 2.96089 1.99952 2.99706 1.99952H69.5137C69.5499 1.99952 69.579 2.02874 69.579 2.06495V100.495C69.5797 100.531 69.5499 100.56 69.5137 100.56ZM4.5067 99.0495H68.0041C68.0402 99.0495 68.0694 99.0203 68.0694 98.9841V3.57551C68.0694 3.5393 68.0402 3.51008 68.0041 3.51008H4.5067C4.47053 3.51008 4.44134 3.5393 4.44134 3.57551V98.9835C4.44134 99.0203 4.47053 99.0495 4.5067 99.0495Z" fill="#EBEBEB"/>
<path d="M10.2451 8.80726V93.6876C10.2451 93.7238 10.2742 93.7531 10.3104 93.7531H62.3151C62.3513 93.7531 62.3805 93.7238 62.3805 93.6876V8.80726C62.3805 8.77105 62.3513 8.74183 62.3151 8.74183H10.3104C10.2742 8.74183 10.2451 8.77168 10.2451 8.80726Z" fill="white"/>
<path d="M50.8517 67.1892H21.6597C21.6368 67.1892 21.619 67.1708 21.619 67.1486V32.8834C21.619 32.8611 21.6374 32.8427 21.6597 32.8427H50.8517C50.8739 32.8427 50.8923 32.8611 50.8923 32.8834V67.1479C50.8923 67.1708 50.8739 67.1892 50.8517 67.1892Z" fill="#EBEBEB"/>
<path d="M48.5749 62.9854C48.6123 63.0959 47.1681 63.7292 44.4191 63.4065C43.0656 63.2223 41.3808 62.7351 39.7468 61.537C38.1483 60.3384 36.6304 58.4054 36.1164 55.822C35.5828 53.2582 36.4388 50.063 38.8927 48.0087C39.5025 47.4993 40.2113 47.0692 40.9975 46.7738C41.8332 46.4632 42.735 46.3609 43.631 46.4702C44.5219 46.5788 45.4655 46.8894 46.2638 47.6212C47.0703 48.3536 47.512 49.5904 47.302 50.6919C47.1116 51.8029 46.5062 52.6547 45.8564 53.3274C45.1857 54.0128 44.4261 54.5197 43.6513 54.9536C42.0769 55.8239 40.2767 56.3695 38.3901 56.4578C36.5118 56.548 34.5262 56.1618 32.7837 55.1804C31.057 54.2098 29.581 52.7386 28.6577 50.899C27.7217 49.0816 27.4241 46.8755 27.9178 44.9031C28.3925 42.9377 29.508 41.1807 31.0748 39.963C31.861 39.3532 32.7501 38.9028 33.7216 38.6252C34.6994 38.3743 35.7071 38.3273 36.7015 38.5325C37.6851 38.7395 38.6902 39.2236 39.406 40.0595C40.132 40.8885 40.4562 41.9703 40.4658 42.9523C40.481 43.9395 40.2126 44.9025 39.7601 45.7086C39.3166 46.5166 38.7194 47.1721 38.0906 47.7171C36.824 48.79 35.4025 49.4964 33.9437 49.9226C32.4854 50.3425 30.9898 50.453 29.581 50.2599C28.1761 50.0611 26.8537 49.544 25.7844 48.804C23.6269 47.3385 22.38 45.1115 22.1579 43.054C21.9135 40.959 22.6795 39.2407 23.5012 38.124C24.3471 36.9857 25.3186 36.4032 25.9862 36.1364C26.6696 35.8772 27.0593 35.8861 27.0764 35.9515C27.1049 36.0449 26.7667 36.1955 26.2121 36.5664C25.6696 36.9438 24.9017 37.5803 24.2798 38.6455C23.6719 39.6905 23.1706 41.2061 23.4885 42.8564C23.7779 44.501 24.9011 46.2682 26.7128 47.3767C28.4864 48.5048 30.9745 48.7951 33.3643 48.0106C34.5484 47.6282 35.7281 46.9892 36.6926 46.1259C37.6495 45.2664 38.3012 44.1605 38.2473 43.0038C38.2168 41.8439 37.4865 41.0257 36.2433 40.7881C35.638 40.67 34.9583 40.7081 34.3295 40.8783C33.7051 41.0695 33.0705 41.3884 32.5235 41.8254C31.4187 42.6951 30.583 44.0157 30.2467 45.4583C29.9002 46.8996 30.1071 48.4273 30.8057 49.8127C31.4936 51.1943 32.6403 52.3454 33.9551 53.0905C35.2642 53.8375 36.7891 54.1558 38.2886 54.0999C39.7906 54.0459 41.264 53.6215 42.5503 52.9336C43.2007 52.5823 43.7991 52.1859 44.2509 51.7337C44.7142 51.2807 45.0359 50.763 45.114 50.326C45.1984 49.8832 45.0638 49.4989 44.765 49.1934C44.4508 48.8821 43.9178 48.6471 43.3556 48.5721C42.7902 48.4858 42.2057 48.5398 41.6962 48.7132C41.1365 48.905 40.6142 49.1978 40.1497 49.5612C39.2207 50.2898 38.5233 51.2877 38.1331 52.3422C37.7358 53.3992 37.6426 54.4931 37.7936 55.5361C38.1033 57.6317 39.2817 59.3659 40.5825 60.4826C41.9088 61.6056 43.3733 62.1837 44.5923 62.4854C47.0697 63.0616 48.5559 62.7764 48.5749 62.9854Z" fill="#E0E0E0"/>
<path d="M413.813 9.96841H361.991V64.0437H413.813V9.96841Z" fill="#E0E0E0"/>
<path d="M410.303 9.96841H358.482V64.0437H410.303V9.96841Z" fill="#FAFAFA"/>
<path d="M410.319 64.0595H358.466V9.95248H410.319V64.0595ZM358.498 64.0277H410.287V9.98487H358.498V64.0277Z" fill="#E0E0E0"/>
<path d="M403.337 17.2379H365.448V56.7742H403.337V17.2379Z" fill="white"/>
<path d="M365.448 57.0373C365.478 57.0728 365.118 57.4864 364.513 58.1254C363.908 58.7644 363.058 59.6296 362.105 60.5698C361.151 61.5099 360.276 62.3471 359.63 62.9417C358.984 63.5362 358.567 63.8875 358.534 63.8545C358.502 63.8215 358.859 63.4098 359.465 62.7708C360.07 62.1318 360.922 61.264 361.878 60.322C362.834 59.3793 363.712 58.5402 364.358 57.9463C365.004 57.3517 365.418 57.0023 365.448 57.0373Z" fill="#E0E0E0"/>
<path d="M403.337 56.9406C403.372 56.9107 403.785 57.2709 404.424 57.8763C405.062 58.4823 405.926 59.3335 406.865 60.2876C407.805 61.2417 408.641 62.1189 409.235 62.7656C409.829 63.4122 410.18 63.8289 410.147 63.862C410.114 63.8944 409.703 63.5367 409.064 62.9314C408.426 62.3254 407.559 61.4723 406.618 60.515C405.677 59.5583 404.838 58.6792 404.245 58.0325C403.651 57.3846 403.302 56.9704 403.337 56.9406Z" fill="#E0E0E0"/>
<path d="M403.233 17.3434C403.203 17.3078 403.563 16.8943 404.168 16.2552C404.773 15.6162 405.623 14.751 406.577 13.8115C407.53 12.8714 408.406 12.0342 409.052 11.4396C409.698 10.845 410.115 10.4938 410.148 10.5268C410.18 10.5598 409.823 10.9714 409.217 11.6105C408.612 12.2495 407.76 13.1166 406.803 14.0593C405.848 15.0019 404.969 15.8411 404.323 16.4356C403.677 17.0296 403.263 17.3789 403.233 17.3434Z" fill="#E0E0E0"/>
<path d="M365.345 17.4405C365.309 17.4704 364.896 17.1102 364.258 16.5049C363.619 15.8995 362.755 15.0477 361.816 14.0936C360.877 13.1388 360.04 12.2622 359.446 11.6155C358.852 10.9689 358.501 10.5522 358.534 10.5198C358.567 10.4868 358.978 10.8444 359.617 11.4504C360.255 12.0558 361.122 12.9095 362.063 13.8668C363.005 14.8234 363.843 15.7026 364.436 16.3492C365.031 16.9959 365.38 17.4107 365.345 17.4405Z" fill="#E0E0E0"/>
<path d="M403.233 56.7743C403.231 56.7718 403.228 56.707 403.225 56.5825C403.223 56.4478 403.22 56.2661 403.217 56.0305C403.212 55.535 403.207 54.8216 403.2 53.8961C403.191 52.0235 403.178 49.2984 403.162 45.8383C403.144 38.9137 403.118 29.0494 403.087 17.238L403.233 17.3841C392.203 17.3905 379.25 17.3981 365.452 17.4057H365.448L365.615 17.238C365.607 31.7497 365.598 45.325 365.592 56.7743L365.448 56.6301C376.771 56.6606 386.197 56.686 392.807 56.7038C396.109 56.7197 398.706 56.733 400.491 56.7413C401.373 56.7489 402.052 56.754 402.524 56.7578C402.748 56.761 402.921 56.7641 403.05 56.766C403.169 56.7692 403.231 56.7718 403.233 56.7743C403.236 56.7768 403.18 56.78 403.066 56.7826C402.941 56.7845 402.774 56.787 402.556 56.7908C402.09 56.7946 401.42 56.8004 400.55 56.8073C398.773 56.8162 396.186 56.8289 392.898 56.8448C386.267 56.8626 376.808 56.888 365.448 56.9185L365.304 56.9191V56.7743C365.297 45.325 365.289 31.7497 365.28 17.238V17.0703H365.449H365.452C379.25 17.078 392.204 17.0856 403.234 17.0919H403.38V17.238C403.349 29.0881 403.324 38.9849 403.306 45.9323C403.29 49.3784 403.276 52.0921 403.268 53.9571C403.26 54.8705 403.254 55.5744 403.25 56.0629C403.247 56.2915 403.244 56.4681 403.242 56.599C403.239 56.7184 403.236 56.7775 403.233 56.7743Z" fill="#E0E0E0"/>
<path d="M390.715 30.6786H378.071V43.3348H390.715V30.6786Z" fill="#EBEBEB"/>
<path d="M413.813 82.951H361.991V137.026H413.813V82.951Z" fill="#E0E0E0"/>
<path d="M410.303 82.9511H358.482V137.026H410.303V82.9511Z" fill="#FAFAFA"/>
<path d="M410.319 137.042H358.466V82.9352H410.319V137.042ZM358.498 137.01H410.287V82.967H358.498V137.01Z" fill="#E0E0E0"/>
<path d="M403.337 90.2205H365.448V129.757H403.337V90.2205Z" fill="white"/>
<path d="M365.448 130.02C365.478 130.055 365.118 130.469 364.513 131.108C363.908 131.747 363.058 132.612 362.105 133.552C361.151 134.492 360.276 135.329 359.63 135.924C358.984 136.519 358.567 136.87 358.534 136.837C358.502 136.804 358.859 136.392 359.465 135.753C360.07 135.114 360.922 134.247 361.878 133.304C362.834 132.362 363.712 131.523 364.358 130.928C365.004 130.333 365.418 129.984 365.448 130.02Z" fill="#E0E0E0"/>
<path d="M403.337 129.923C403.372 129.893 403.785 130.253 404.424 130.858C405.062 131.464 405.926 132.316 406.865 133.27C407.805 134.224 408.641 135.101 409.235 135.748C409.829 136.394 410.18 136.811 410.147 136.844C410.114 136.876 409.703 136.519 409.064 135.913C408.426 135.307 407.559 134.454 406.618 133.497C405.677 132.54 404.838 131.661 404.245 131.015C403.651 130.367 403.302 129.953 403.337 129.923Z" fill="#E0E0E0"/>
<path d="M403.233 90.3258C403.203 90.2903 403.563 89.8767 404.168 89.2377C404.773 88.5987 405.623 87.7335 406.577 86.7934C407.53 85.8532 408.406 85.016 409.052 84.4214C409.698 83.8269 410.115 83.4756 410.148 83.5086C410.18 83.5417 409.823 83.9533 409.217 84.5923C408.612 85.2313 407.76 86.0984 406.803 87.0411C405.848 87.9838 404.969 88.8229 404.323 89.4175C403.677 90.0114 403.263 90.3614 403.233 90.3258Z" fill="#E0E0E0"/>
<path d="M365.345 90.4232C365.309 90.453 364.896 90.0929 364.258 89.4875C363.619 88.8821 362.755 88.0303 361.816 87.0768C360.877 86.1221 360.04 85.2455 359.446 84.5988C358.852 83.9522 358.501 83.5355 358.534 83.5031C358.567 83.47 358.978 83.8277 359.617 84.4337C360.255 85.0397 361.122 85.8928 362.063 86.8501C363.005 87.8067 363.843 88.6859 364.436 89.3325C365.031 89.9785 365.38 90.3927 365.345 90.4232Z" fill="#E0E0E0"/>
<path d="M403.233 129.757C403.231 129.754 403.228 129.69 403.225 129.565C403.223 129.43 403.22 129.249 403.217 129.014C403.212 128.518 403.207 127.805 403.2 126.879C403.191 125.006 403.178 122.282 403.162 118.822C403.144 111.897 403.118 102.033 403.087 90.2212L403.233 90.3673C392.203 90.3737 379.25 90.3807 365.452 90.3889H365.448L365.615 90.2212C365.607 104.733 365.598 118.308 365.592 129.758L365.448 129.613C376.771 129.644 386.197 129.669 392.807 129.687C396.109 129.703 398.706 129.716 400.491 129.724C401.373 129.732 402.052 129.737 402.524 129.741C402.748 129.744 402.921 129.747 403.05 129.749C403.169 129.752 403.231 129.754 403.233 129.757C403.236 129.759 403.18 129.763 403.066 129.765C402.941 129.767 402.774 129.77 402.556 129.773C402.09 129.777 401.42 129.783 400.55 129.79C398.773 129.799 396.186 129.811 392.898 129.827C386.267 129.845 376.808 129.871 365.448 129.901L365.304 129.902V129.757C365.297 118.308 365.289 104.732 365.28 90.2206V90.0529H365.449H365.452C379.25 90.0605 392.204 90.0681 403.234 90.0745H403.38V90.2206C403.349 102.071 403.324 111.967 403.306 118.915C403.29 122.361 403.276 125.075 403.268 126.94C403.26 127.853 403.254 128.556 403.25 129.045C403.247 129.274 403.244 129.451 403.242 129.582C403.239 129.701 403.236 129.76 403.233 129.757Z" fill="#E0E0E0"/>
<path d="M390.715 103.661H378.071V116.317H390.715V103.661Z" fill="#EBEBEB"/>
<path d="M290.977 47.3792C290.405 65.2061 275.471 79.1924 257.621 78.6201C255.686 78.5579 253.797 78.3273 251.966 77.9423C236.906 74.7783 225.827 61.1972 226.337 45.302C226.908 27.4751 241.842 13.4888 259.692 14.0624C277.542 14.6354 291.549 29.5523 290.977 47.3792Z" fill="#EBEBEB"/>
<path d="M284.165 47.4948C283.729 61.0791 272.349 71.7381 258.745 71.3011C245.144 70.864 234.469 59.4961 234.905 45.9119C235.341 32.3263 246.722 21.6673 260.324 22.105C273.926 22.5426 284.6 33.9093 284.165 47.4948Z" fill="#EBEBEB"/>
<path d="M283.287 47.1321C283.278 47.1321 283.266 46.9962 283.253 46.7319C283.242 46.4436 283.226 46.0561 283.206 45.5612C283.197 45.3014 283.188 45.0143 283.177 44.6999C283.152 44.3842 283.095 44.0405 283.049 43.6676C282.953 42.9225 282.865 42.0592 282.608 41.1153C282.229 39.2039 281.407 36.9343 280.075 34.5172C278.732 32.1097 276.768 29.579 274.059 27.3996C271.358 25.2404 267.926 23.3684 263.926 22.5319C259.951 21.72 255.438 21.6991 251.089 23.1906C249.985 23.5056 248.94 24.0113 247.867 24.4845C247.343 24.745 246.84 25.0556 246.32 25.3408C245.792 25.6133 245.304 25.9557 244.817 26.3051C243.805 26.953 242.909 27.7737 241.976 28.5633C241.127 29.4431 240.235 30.3019 239.495 31.3087C237.977 33.2735 236.639 35.4707 235.791 37.9062C234.917 40.3257 234.404 42.9098 234.284 45.553C234.234 48.1987 234.579 50.8113 235.296 53.2836C235.986 55.7699 237.181 58.0484 238.569 60.1072C239.243 61.1598 240.078 62.0738 240.869 63.007C241.751 63.855 242.591 64.7316 243.56 65.4431C244.468 66.2301 245.505 66.8209 246.488 67.4567C247.528 67.9979 248.539 68.5696 249.621 68.9552C253.866 70.723 258.371 70.9917 262.39 70.4366C266.436 69.8579 269.981 68.2101 272.815 66.2288C275.657 64.2279 277.779 61.8286 279.273 59.512C280.757 57.1858 281.723 54.9733 282.224 53.0905C282.54 52.1656 282.683 51.31 282.827 50.5725C282.895 50.2034 282.975 49.8649 283.02 49.5511C283.051 49.2379 283.079 48.952 283.104 48.6935C283.155 48.2012 283.196 47.8156 283.226 47.5285C283.258 47.2668 283.278 47.1321 283.287 47.1321C283.296 47.1321 283.293 47.2674 283.28 47.5317C283.263 47.8207 283.239 48.2088 283.209 48.7037C283.192 48.9641 283.172 49.2525 283.15 49.5682C283.113 49.8846 283.041 50.2263 282.98 50.5992C282.851 51.3443 282.723 52.2095 282.419 53.1464C281.944 55.0527 280.997 57.2995 279.518 59.6683C278.029 62.0268 275.9 64.4769 273.028 66.5268C270.166 68.5569 266.571 70.2523 262.456 70.8602C258.37 71.4447 253.78 71.1867 249.446 69.3973C248.342 69.0067 247.308 68.428 246.246 67.8772C245.243 67.2325 244.183 66.6303 243.255 65.8306C242.265 65.1058 241.405 64.2139 240.506 63.3494C239.696 62.3997 238.844 61.4666 238.153 60.3943C236.732 58.2949 235.511 55.9681 234.804 53.4297C234.069 50.906 233.716 48.2368 233.768 45.5352C233.89 42.8368 234.414 40.1974 235.31 37.7264C236.178 35.2395 237.545 32.9972 239.098 30.9937C239.855 29.9678 240.766 29.0918 241.634 28.1961C242.588 27.3913 243.503 26.5566 244.537 25.8973C245.035 25.5422 245.534 25.1941 246.073 24.9165C246.603 24.6262 247.117 24.3111 247.653 24.0469C248.747 23.566 249.816 23.0546 250.942 22.7358C255.381 21.2284 259.978 21.2659 264.018 22.1113C268.085 22.9822 271.564 24.9044 274.289 27.1144C277.024 29.3446 278.993 31.9262 280.327 34.3756C281.651 36.8352 282.452 39.1379 282.805 41.0715C283.048 42.0262 283.121 42.8977 283.201 43.6498C283.239 44.0259 283.288 44.3721 283.305 44.6897C283.306 45.006 283.308 45.2951 283.308 45.5561C283.306 46.0523 283.305 46.4416 283.305 46.7307C283.302 46.9975 283.296 47.1328 283.287 47.1321Z" fill="#E0E0E0"/>
<path d="M260.971 61.1361L260.895 65.4328L257.064 65.3642L257.138 61.1838C253.348 60.8859 249.729 59.6338 247.651 57.9467L249.84 53.3039C251.732 54.7579 254.472 55.8416 257.227 56.1592L257.339 49.7523C253.104 48.6426 248.378 47.139 248.475 41.6532C248.547 37.5872 251.559 34.1487 257.625 33.5662L257.7 29.3077L261.533 29.375L261.458 33.5567C264.328 33.8374 267.112 34.6537 269.195 36.0334L267.197 40.7182C265.262 39.5716 263.281 38.8843 261.369 38.6188L261.254 45.1406C265.49 46.2122 270.14 47.7152 270.044 53.1228C269.974 57.1126 267 60.5136 260.971 61.1361ZM257.439 44.1128L257.534 38.6664C255.496 39.0907 254.672 40.189 254.649 41.455C254.626 42.7973 255.762 43.5475 257.439 44.1128ZM263.867 53.4747C263.891 52.1312 262.792 51.3836 261.154 50.7782L261.061 56.0722C262.985 55.6847 263.846 54.702 263.867 53.4747Z" fill="#E0E0E0"/>
<path d="M289.349 76.4191C277.932 86.8584 261.647 90.6602 246.786 86.3102C234.572 82.7351 224.101 73.7556 219.244 61.9049C214.303 49.8509 215.649 35.9446 222.653 24.9953C229.699 13.9818 241.895 6.77456 254.861 5.52063C271.155 3.94464 287.264 11.4047 296.184 25.2075C297.511 27.2599 300.808 25.351 299.472 23.284C290.882 9.99387 276.162 1.84015 260.346 1.50729C245.962 1.20429 231.691 7.48411 222.559 18.6837C213.517 29.7734 210.188 44.7539 214.091 58.5859C217.933 72.2025 228.316 83.1569 241.331 88.4369C258.479 95.3932 278.444 91.5476 292.042 79.1144C293.855 77.4564 291.156 74.7675 289.349 76.4191Z" fill="#F5F5F5"/>
<path d="M285.825 23.9497L301.336 13.4939V29.3066L285.825 23.9497Z" fill="#F5F5F5"/>
<path d="M407.335 269.178C407.335 269.27 316.204 269.343 203.815 269.343C91.3873 269.343 0.276093 269.269 0.276093 269.178C0.276093 269.087 91.3873 269.013 203.815 269.013C316.204 269.013 407.335 269.087 407.335 269.178Z" fill="#263238"/>
<path d="M226.834 100.571C226.834 100.571 250.094 106.703 257.448 131.259L247.56 135.648C247.56 135.648 245.295 118.565 222.25 111.125C209.782 107.1 193.274 112.781 188.701 117.984L177.605 113.193C185.052 105.019 203.364 94.1674 226.834 100.571Z" fill="#80C4E9"/>
<path d="M263.771 125.067L239.189 133.232L258.054 142.698L263.771 125.067Z" fill="#80C4E9"/>
<path d="M197.821 269.178L110.886 269.124C100.43 269.119 91.9577 260.198 91.9596 249.199L92.0021 19.918C92.004 8.91218 100.489 -0.00634884 110.95 3.39118e-06L197.887 0.0539968C208.342 0.060349 216.815 8.98078 216.813 19.9797L216.77 249.261C216.768 260.266 208.283 269.185 197.821 269.178Z" fill="#263238"/>
<path d="M197.794 8.16261L180.939 8.15244C178.678 8.15117 176.845 10.1655 176.845 12.6511L176.844 15.8679C176.844 18.3535 175.011 20.3678 172.751 20.3665L139.896 20.3462C137.636 20.3449 135.804 18.3281 135.804 15.8424L135.804 12.6263C135.804 10.1407 133.972 8.12386 131.712 8.12259L125.784 8.11878L111.032 8.10925C103.705 8.1048 97.7628 14.3509 97.7615 22.0587L97.7196 245.853C97.7183 253.558 103.652 259.804 110.974 259.809L197.737 259.863C205.063 259.867 211.005 253.621 211.007 245.913L211.049 22.1172C211.05 14.4138 205.117 8.16705 197.794 8.16261Z" fill="white"/>
<path d="M116.088 242.16V248.729C116.088 249.298 115.462 249.644 114.982 249.338L109.825 246.054C109.379 245.77 109.379 245.118 109.825 244.834L114.982 241.55C115.462 241.245 116.088 241.591 116.088 242.16Z" fill="#E0E0E0"/>
<path d="M158.472 245.383C158.472 247.889 156.447 249.92 153.95 249.92C151.452 249.92 149.428 247.889 149.428 245.383C149.428 242.878 151.453 240.847 153.95 240.847C156.447 240.846 158.472 242.878 158.472 245.383Z" fill="#E0E0E0"/>
<path d="M198.095 249.808H192.124C191.469 249.808 190.938 249.276 190.938 248.62V242.624C190.938 241.968 191.469 241.436 192.124 241.436H198.095C198.75 241.436 199.281 241.968 199.281 242.624V248.62C199.281 249.276 198.75 249.808 198.095 249.808Z" fill="#E0E0E0"/>
<path d="M129.254 88.9826C131.577 88.9826 133.901 88.9826 136.225 88.9826C135.773 88.6377 135.32 88.2928 134.868 87.9478C135.896 91.3368 136.925 94.725 137.954 98.114C139.586 103.49 141.218 108.866 142.85 114.243C143.226 115.483 143.603 116.723 143.979 117.964C144.16 118.557 144.707 119 145.337 118.998C151.992 118.98 158.646 118.961 165.301 118.943C166.254 118.94 167.207 118.938 168.16 118.935C169.971 118.93 169.975 116.112 168.16 116.117C161.505 116.135 154.85 116.154 148.196 116.172C147.242 116.175 146.29 116.177 145.337 116.18C145.789 116.525 146.242 116.87 146.694 117.214C145.666 113.826 144.637 110.437 143.608 107.048C141.976 101.672 140.344 96.2959 138.712 90.9194C138.336 89.6788 137.959 88.4389 137.582 87.1983C137.402 86.6037 136.855 86.1641 136.225 86.1641C133.901 86.1641 131.577 86.1641 129.254 86.1641C127.442 86.1641 127.439 88.9826 129.254 88.9826Z" fill="#263238"/>
<path d="M172.622 92.5685C171.307 98.464 169.993 104.36 168.678 110.256C168.489 111.103 168.3 111.95 168.111 112.798C168.451 112.54 168.79 112.281 169.129 112.023C166.28 111.995 163.432 111.967 160.582 111.939C156.013 111.894 151.445 111.849 146.876 111.804C145.832 111.794 144.787 111.784 143.742 111.774C144.082 112.032 144.421 112.291 144.76 112.549C142.927 106.713 141.095 100.876 139.262 95.0395C139.004 94.2163 138.745 93.393 138.487 92.5692C138.147 93.0151 137.808 93.461 137.469 93.9069C141.561 93.9069 145.652 93.9069 149.744 93.9069C156.213 93.9069 162.681 93.9069 169.15 93.9069C170.647 93.9069 172.143 93.9069 173.64 93.9069C174.998 93.9069 175.001 91.7936 173.64 91.7936C169.548 91.7936 165.456 91.7936 161.365 91.7936C154.896 91.7936 148.427 91.7936 141.958 91.7936C140.462 91.7936 138.966 91.7936 137.469 91.7936C136.803 91.7936 136.243 92.4713 136.451 93.1313C138.284 98.9678 140.116 104.805 141.949 110.641C142.207 111.465 142.466 112.288 142.724 113.112C142.865 113.561 143.266 113.883 143.742 113.887C146.591 113.915 149.44 113.943 152.289 113.971C156.857 114.016 161.426 114.061 165.995 114.106C167.04 114.116 168.085 114.126 169.129 114.136C169.573 114.141 170.048 113.807 170.147 113.361C171.462 107.465 172.776 101.569 174.091 95.6735C174.28 94.8261 174.469 93.9787 174.658 93.1313C174.953 91.8056 172.918 91.2396 172.622 92.5685Z" fill="#263238"/>
<path d="M144.664 93.4725C145.775 99.9225 147.187 106.316 148.298 112.766C148.529 114.104 150.564 113.537 150.334 112.205C149.223 105.755 147.811 99.361 146.7 92.9103C146.47 91.5725 144.434 92.1398 144.664 93.4725Z" fill="#263238"/>
<path d="M155.814 93.1917C155.921 99.8056 156.043 106.419 156.15 113.033C156.171 114.392 158.283 114.396 158.261 113.033C158.154 106.419 158.032 99.8056 157.925 93.1917C157.904 91.8329 155.793 91.8285 155.814 93.1917Z" fill="#263238"/>
<path d="M166.113 113.272C167.006 107.398 167.899 101.525 168.794 95.6512C168.922 94.8108 169.049 93.971 169.177 93.1306C169.263 92.5621 169.033 92.0005 168.439 91.8303C167.941 91.6874 167.227 92.005 167.141 92.5684C166.247 98.4423 165.354 104.316 164.459 110.19C164.332 111.03 164.204 111.87 164.076 112.71C163.99 113.278 164.22 113.84 164.814 114.01C165.312 114.153 166.027 113.836 166.113 113.272Z" fill="#263238"/>
<path d="M139.769 100.094C150.415 100.094 161.061 100.094 171.707 100.094C173.065 100.094 173.068 97.9806 171.707 97.9806C161.061 97.9806 150.415 97.9806 139.769 97.9806C138.411 97.9806 138.409 100.094 139.769 100.094Z" fill="#263238"/>
<path d="M142.764 107.515C151.984 107.515 161.204 107.515 170.423 107.515C171.782 107.515 171.784 105.401 170.423 105.401C161.203 105.401 151.983 105.401 142.764 105.401C141.405 105.401 141.403 107.515 142.764 107.515Z" fill="#263238"/>
<path d="M168.159 128.273C170.234 128.273 171.916 126.589 171.916 124.512C171.916 122.435 170.234 120.751 168.159 120.751C166.084 120.751 164.402 122.435 164.402 124.512C164.402 126.589 166.084 128.273 168.159 128.273Z" fill="#263238"/>
<path d="M147.499 128.273C149.574 128.273 151.256 126.589 151.256 124.512C151.256 122.435 149.574 120.751 147.499 120.751C145.425 120.751 143.743 122.435 143.743 124.512C143.743 126.589 145.425 128.273 147.499 128.273Z" fill="#263238"/>
<path d="M140.3 73.8662C140.3 73.8662 124.843 73.3434 115.785 87.108L121.065 91.6391C121.065 91.6391 125.611 81.5365 141.177 81.2144C149.597 81.0397 155.391 85.9557 157.248 90.0053L166.8 89.8414C163.722 83.4294 155.936 74.26 140.3 73.8662Z" fill="#80C4E9"/>
<path d="M113.742 82.6253L127.376 92.1981L114.991 94.7098L113.742 82.6253Z" fill="#80C4E9"/>
<path d="M204.031 31.7325C204.031 32.5805 203.345 33.2678 202.497 33.2678C201.65 33.2678 200.964 32.5805 200.964 31.7325C200.964 30.8845 201.65 30.1972 202.497 30.1972C203.345 30.1972 204.031 30.8845 204.031 31.7325Z" fill="#263238"/>
<path d="M202.497 37.4677C203.344 37.4677 204.031 36.7803 204.031 35.9324C204.031 35.0844 203.344 34.397 202.497 34.397C201.65 34.397 200.964 35.0844 200.964 35.9324C200.964 36.7803 201.65 37.4677 202.497 37.4677Z" fill="#263238"/>
<path d="M202.497 41.6679C203.344 41.6679 204.031 40.9805 204.031 40.1326C204.031 39.2846 203.344 38.5972 202.497 38.5972C201.65 38.5972 200.964 39.2846 200.964 40.1326C200.964 40.9805 201.65 41.6679 202.497 41.6679Z" fill="#263238"/>
<path d="M111.054 31.0064L104.793 35.7052H106.388V41.3231L109.764 41.3351V37.1312L112.424 37.1198V41.3231H115.689V35.6493L117.315 35.6321L111.054 31.0064Z" fill="#263238"/>
<path d="M211.452 47.2415C211.452 47.3329 185.9 47.4073 154.388 47.4073C122.864 47.4073 97.3173 47.3329 97.3173 47.2415C97.3173 47.15 122.864 47.0763 154.388 47.0763C185.9 47.0763 211.452 47.15 211.452 47.2415Z" fill="#E0E0E0"/>
<path d="M153.181 215.53H152.163C148.729 215.53 145.946 212.743 145.946 209.306V159.22C145.946 155.783 148.73 152.996 152.163 152.996H153.181C156.614 152.996 159.398 155.783 159.398 159.22V209.306C159.398 212.744 156.614 215.53 153.181 215.53Z" fill="#E0E0E0"/>
<path d="M178.865 185.744C178.88 197.705 169.184 207.412 157.208 207.428C155.91 207.429 154.638 207.317 153.403 207.1C143.24 205.316 135.511 196.462 135.498 185.798C135.483 173.838 145.179 164.13 157.154 164.116C169.13 164.101 178.85 173.784 178.865 185.744Z" fill="#05B95F"/>
<path d="M174.302 185.975C174.314 195.089 166.925 202.487 157.798 202.498C148.672 202.51 141.264 195.13 141.253 186.016C141.243 176.901 148.631 169.504 157.757 169.492C166.884 169.481 174.291 176.86 174.302 185.975Z" fill="#05B95F"/>
<path d="M173.706 185.751C173.7 185.751 173.689 185.661 173.674 185.484C173.66 185.291 173.64 185.032 173.616 184.701C173.605 184.527 173.592 184.335 173.578 184.124C173.554 183.913 173.508 183.684 173.469 183.435C173.388 182.938 173.31 182.361 173.117 181.735C172.82 180.463 172.218 178.96 171.272 177.37C170.318 175.786 168.945 174.134 167.081 172.734C165.222 171.347 162.881 170.169 160.181 169.698C157.499 169.243 154.474 169.33 151.593 170.427C150.86 170.662 150.17 171.024 149.462 171.365C149.116 171.552 148.786 171.771 148.444 171.974C148.097 172.168 147.777 172.409 147.458 172.654C146.794 173.11 146.213 173.681 145.605 174.23C145.055 174.839 144.477 175.435 144.004 176.126C143.03 177.476 142.182 178.979 141.669 180.63C141.137 182.272 140.851 184.015 140.83 185.789C140.855 187.563 141.144 189.307 141.68 190.947C142.198 192.598 143.05 194.098 144.026 195.447C144.502 196.137 145.082 196.731 145.633 197.338C146.242 197.887 146.825 198.456 147.491 198.911C148.117 199.418 148.825 199.791 149.498 200.195C150.207 200.534 150.898 200.895 151.631 201.129C154.515 202.219 157.541 202.298 160.222 201.836C162.921 201.358 165.26 200.174 167.115 198.783C168.975 197.379 170.343 195.722 171.293 194.137C172.236 192.544 172.834 191.04 173.127 189.767C173.319 189.14 173.395 188.564 173.475 188.066C173.513 187.817 173.559 187.588 173.582 187.377C173.595 187.166 173.608 186.974 173.619 186.8C173.642 186.469 173.661 186.21 173.675 186.017C173.689 185.842 173.699 185.751 173.706 185.751C173.712 185.751 173.713 185.842 173.71 186.019C173.705 186.213 173.698 186.474 173.689 186.806C173.682 186.981 173.676 187.175 173.668 187.387C173.651 187.6 173.61 187.83 173.577 188.082C173.508 188.584 173.441 189.167 173.258 189.802C172.982 191.09 172.398 192.617 171.46 194.237C170.515 195.851 169.143 197.541 167.264 198.979C165.391 200.404 163.02 201.621 160.275 202.12C157.55 202.603 154.468 202.533 151.523 201.431C150.774 201.194 150.069 200.829 149.345 200.483C148.658 200.074 147.935 199.694 147.295 199.179C146.615 198.715 146.019 198.137 145.397 197.577C144.832 196.959 144.241 196.353 143.754 195.649C142.755 194.274 141.884 192.742 141.354 191.057C140.805 189.382 140.509 187.601 140.484 185.789C140.505 183.978 140.798 182.197 141.342 180.521C141.868 178.835 142.735 177.301 143.731 175.924C144.216 175.219 144.806 174.612 145.368 173.992C145.989 173.431 146.584 172.851 147.262 172.386C147.588 172.137 147.914 171.893 148.27 171.695C148.619 171.488 148.956 171.266 149.309 171.076C150.032 170.73 150.737 170.363 151.485 170.124C154.426 169.015 157.507 168.937 160.233 169.413C162.979 169.906 165.353 171.116 167.229 172.536C169.112 173.97 170.489 175.656 171.439 177.267C172.381 178.886 172.969 180.411 173.248 181.699C173.432 182.334 173.501 182.916 173.571 183.418C173.605 183.67 173.646 183.9 173.665 184.113C173.673 184.325 173.68 184.519 173.686 184.694C173.696 185.027 173.704 185.287 173.71 185.481C173.713 185.661 173.712 185.751 173.706 185.751Z" fill="#263238"/>
<g opacity="0.3">
<path d="M173.577 185.925C173.478 185.929 173.407 185.203 173.142 183.936C172.871 182.677 172.373 180.856 171.248 178.868C170.687 177.878 169.972 176.852 169.078 175.865C168.177 174.887 167.108 173.939 165.854 173.138C165.229 172.735 164.565 172.36 163.857 172.042C163.15 171.72 162.411 171.432 161.634 171.216C160.86 170.998 160.058 170.818 159.232 170.72C158.407 170.62 157.563 170.579 156.71 170.601C155.855 170.636 155.016 170.732 154.199 170.885C153.381 171.038 152.593 171.27 151.834 171.538C151.073 171.805 150.352 172.142 149.669 172.51C148.983 172.874 148.344 173.293 147.746 173.735C146.547 174.617 145.541 175.634 144.706 176.669C143.878 177.713 143.232 178.784 142.735 179.809C141.741 181.866 141.363 183.715 141.173 184.99C140.991 186.271 140.968 187 140.868 187.002C140.795 187.006 140.652 186.28 140.687 184.945C140.731 183.62 140.985 181.66 141.927 179.437C142.399 178.331 143.038 177.166 143.884 176.025C144.737 174.894 145.784 173.777 147.051 172.803C147.683 172.315 148.361 171.853 149.094 171.449C149.824 171.042 150.596 170.67 151.414 170.373C152.23 170.075 153.079 169.819 153.961 169.65C154.842 169.479 155.749 169.373 156.669 169.337C157.59 169.312 158.5 169.358 159.39 169.471C160.281 169.582 161.145 169.781 161.979 170.025C162.814 170.267 163.608 170.588 164.362 170.946C165.12 171.3 165.827 171.717 166.488 172.162C167.816 173.05 168.933 174.095 169.858 175.169C170.774 176.25 171.489 177.371 172.031 178.444C173.116 180.599 173.496 182.539 173.626 183.858C173.746 185.189 173.65 185.923 173.577 185.925Z" fill="black"/>
</g>
<g opacity="0.3">
<path d="M159.063 195.636L159.108 198.517L156.539 198.557L156.495 195.753C153.949 195.638 151.495 194.881 150.065 193.796L151.429 190.635C152.729 191.567 154.59 192.232 156.443 192.384L156.375 188.088C153.512 187.439 150.311 186.537 150.254 182.858C150.211 180.131 152.153 177.759 156.205 177.233L156.161 174.377L158.731 174.336L158.774 177.141C160.704 177.265 162.588 177.749 164.015 178.627L162.78 181.812C161.457 181.086 160.115 180.67 158.827 180.535L158.896 184.908C161.758 185.531 164.908 186.435 164.965 190.061C165.007 192.738 163.09 195.084 159.063 195.636ZM156.316 184.306L156.258 180.654C154.901 180.983 154.373 181.738 154.386 182.587C154.4 183.487 155.179 183.965 156.316 184.306ZM160.833 190.437C160.818 189.536 160.066 189.059 158.955 188.69L159.011 192.24C160.29 191.937 160.846 191.26 160.833 190.437Z" fill="black"/>
</g>
<path d="M145.456 155.503H120.426V211.505H145.456V155.503Z" fill="white"/>
<path d="M284.355 180.847C287.142 193.316 279.281 205.69 266.798 208.487C265.444 208.79 264.092 208.969 262.753 209.029C251.742 209.53 241.631 202.092 239.146 190.974C236.358 178.506 244.219 166.131 256.703 163.334C269.187 160.538 281.568 168.379 284.355 180.847Z" fill="#05B95F"/>
<path d="M279.651 182.146C281.775 191.647 275.784 201.078 266.27 203.21C256.756 205.341 247.321 199.366 245.198 189.865C243.074 180.363 249.065 170.932 258.578 168.802C268.091 166.67 277.526 172.645 279.651 182.146Z" fill="#05B95F"/>
<path d="M278.977 182.052C278.97 182.054 278.939 181.962 278.882 181.781C278.822 181.583 278.742 181.317 278.64 180.978C278.588 180.799 278.53 180.602 278.467 180.385C278.392 180.17 278.291 179.942 278.194 179.692C277.994 179.192 277.779 178.609 277.433 178C276.828 176.743 275.853 175.315 274.497 173.877C273.135 172.447 271.321 171.043 269.053 170.016C266.794 169.002 264.079 168.318 261.154 168.453C258.252 168.601 255.118 169.394 252.367 171.207C251.658 171.623 251.022 172.161 250.363 172.682C250.046 172.956 249.752 173.262 249.443 173.552C249.125 173.836 248.848 174.161 248.572 174.491C247.986 175.121 247.511 175.851 247.005 176.565C246.573 177.328 246.108 178.083 245.774 178.914C245.072 180.548 244.536 182.312 244.383 184.153C244.209 185.988 244.315 187.872 244.704 189.727C245.142 191.572 245.847 193.323 246.786 194.909C247.708 196.51 248.945 197.876 250.276 199.056C250.931 199.665 251.674 200.151 252.389 200.656C253.152 201.086 253.892 201.545 254.691 201.864C255.461 202.248 256.286 202.472 257.081 202.737C257.899 202.926 258.703 203.142 259.522 203.215C262.783 203.682 265.956 203.062 268.644 201.958C271.348 200.832 273.513 199.055 275.124 197.173C276.739 195.276 277.782 193.232 278.405 191.358C279.019 189.478 279.294 187.771 279.305 186.376C279.359 185.678 279.305 185.058 279.273 184.521C279.255 184.252 279.25 184.003 279.225 183.778C279.19 183.555 279.158 183.351 279.13 183.168C279.078 182.817 279.037 182.543 279.007 182.338C278.981 182.151 278.97 182.054 278.977 182.052C278.983 182.051 279.005 182.145 279.043 182.331C279.083 182.534 279.136 182.808 279.203 183.156C279.238 183.34 279.275 183.544 279.317 183.767C279.347 183.993 279.359 184.243 279.383 184.513C279.427 185.053 279.492 185.676 279.449 186.38C279.46 187.788 279.204 189.516 278.601 191.424C277.989 193.326 276.95 195.407 275.324 197.343C273.702 199.263 271.511 201.082 268.765 202.241C266.035 203.377 262.805 204.02 259.479 203.555C258.643 203.482 257.823 203.265 256.988 203.073C256.177 202.806 255.335 202.578 254.548 202.189C253.732 201.864 252.976 201.399 252.197 200.96C251.466 200.446 250.708 199.951 250.038 199.33C248.677 198.128 247.415 196.733 246.471 195.099C245.51 193.48 244.789 191.692 244.343 189.808C243.945 187.915 243.838 185.99 244.017 184.116C244.175 182.236 244.723 180.436 245.442 178.768C245.784 177.921 246.259 177.15 246.702 176.374C247.22 175.645 247.706 174.902 248.305 174.26C248.587 173.925 248.871 173.594 249.195 173.305C249.511 173.009 249.811 172.699 250.136 172.419C250.809 171.889 251.459 171.344 252.183 170.921C254.993 169.081 258.188 168.285 261.142 168.148C264.118 168.024 266.875 168.735 269.161 169.78C271.456 170.838 273.283 172.276 274.646 173.736C276.003 175.205 276.97 176.659 277.56 177.937C277.899 178.556 278.106 179.148 278.296 179.655C278.389 179.909 278.485 180.14 278.554 180.358C278.611 180.577 278.663 180.777 278.711 180.958C278.798 181.302 278.867 181.572 278.918 181.774C278.963 181.956 278.982 182.05 278.977 182.052Z" fill="#263238"/>
<g opacity="0.3">
<path d="M278.882 182.263C278.779 182.29 278.538 181.549 277.968 180.29C277.394 179.039 276.452 177.256 274.818 175.445C274.003 174.544 273.02 173.639 271.859 172.817C270.693 172.008 269.359 171.267 267.866 170.722C267.121 170.448 266.341 170.21 265.529 170.043C264.718 169.872 263.879 169.742 263.02 169.698C262.162 169.65 261.284 169.65 260.4 169.739C259.517 169.826 258.627 169.979 257.742 170.2C256.86 170.434 256.007 170.73 255.191 171.079C254.373 171.429 253.604 171.853 252.875 172.31C252.143 172.765 251.471 173.284 250.843 173.826C250.211 174.365 249.642 174.95 249.122 175.55C248.075 176.749 247.262 178.043 246.631 179.316C246.01 180.596 245.584 181.864 245.303 183.048C244.744 185.423 244.777 187.44 244.876 188.812C244.983 190.191 245.127 190.956 245.024 190.982C244.949 191.003 244.631 190.279 244.359 188.879C244.097 187.487 243.907 185.384 244.375 182.848C244.611 181.584 245.007 180.221 245.625 178.836C246.252 177.457 247.085 176.05 248.181 174.74C248.726 174.083 249.327 173.444 249.997 172.854C250.664 172.26 251.383 171.692 252.166 171.193C252.948 170.693 253.775 170.229 254.656 169.847C255.535 169.464 256.455 169.143 257.407 168.892C258.361 168.652 259.321 168.489 260.275 168.4C261.23 168.309 262.178 168.316 263.104 168.377C264.03 168.436 264.933 168.586 265.803 168.784C266.674 168.978 267.508 169.248 268.301 169.559C269.892 170.177 271.299 171.006 272.512 171.912C273.718 172.827 274.723 173.83 275.537 174.822C277.168 176.818 278.014 178.752 278.455 180.098C278.889 181.456 278.958 182.244 278.882 182.263Z" fill="black"/>
</g>
<g opacity="0.3">
<path d="M265.998 195.76L266.713 198.754L264.043 199.391L263.347 196.478C260.666 196.95 257.931 196.729 256.188 195.931L256.877 192.318C258.449 192.988 260.543 193.249 262.511 192.977L261.444 188.513C258.308 188.501 254.761 188.304 253.849 184.481C253.172 181.647 254.647 178.723 258.751 177.234L258.043 174.266L260.713 173.627L261.409 176.541C263.45 176.222 265.526 176.29 267.218 176.875L266.668 180.482C265.121 180.033 263.624 179.91 262.25 180.069L263.335 184.613C266.465 184.598 269.959 184.809 270.859 188.577C271.524 191.358 270.069 194.249 265.998 195.76ZM260.508 184.584L259.601 180.789C258.263 181.448 257.887 182.357 258.098 183.24C258.321 184.175 259.243 184.492 260.508 184.584ZM266.639 189.927C266.415 188.991 265.52 188.669 264.276 188.542L265.157 192.231C266.421 191.618 266.843 190.783 266.639 189.927Z" fill="black"/>
</g>
<path d="M234.337 170.697C228.291 183.542 212.963 189.037 200.102 182.972C198.708 182.315 197.4 181.548 196.184 180.688C186.178 173.612 182.37 160.183 187.762 148.73C193.807 135.884 209.134 130.389 221.996 136.455C234.858 142.521 240.383 157.852 234.337 170.697Z" fill="#05B95F"/>
<path d="M229.323 168.626C224.716 178.414 213.035 182.602 203.234 177.98C193.433 173.357 189.222 161.674 193.829 151.886C198.437 142.097 210.117 137.909 219.918 142.531C229.72 147.155 233.93 158.838 229.323 168.626Z" fill="#05B95F"/>
<path d="M228.796 168.084C228.789 168.081 228.824 167.978 228.897 167.781C228.98 167.566 229.091 167.278 229.232 166.911C229.308 166.718 229.392 166.505 229.484 166.272C229.565 166.033 229.632 165.765 229.716 165.478C229.881 164.903 230.09 164.244 230.2 163.473C230.526 161.957 230.642 160.038 230.432 157.85C230.21 155.667 229.574 153.196 228.283 150.747C226.991 148.314 225.075 145.861 222.415 143.984C219.768 142.134 216.476 140.691 212.828 140.405C211.922 140.285 210.998 140.324 210.065 140.33C209.6 140.355 209.134 140.423 208.665 140.467C208.193 140.499 207.728 140.595 207.262 140.696C206.318 140.849 205.404 141.166 204.474 141.448C203.575 141.823 202.653 142.167 201.794 142.669C200.065 143.624 198.394 144.806 197.005 146.317C195.602 147.809 194.412 149.535 193.49 151.428C192.618 153.345 192.045 155.364 191.789 157.396C191.507 159.431 191.662 161.474 192.026 163.418C192.186 164.4 192.507 165.333 192.79 166.265C193.167 167.163 193.504 168.07 193.987 168.896C194.402 169.759 194.974 170.519 195.491 171.294C196.079 172.018 196.639 172.756 197.307 173.38C199.851 176.015 203.058 177.636 206.17 178.502C209.31 179.359 212.42 179.277 215.115 178.725C217.824 178.162 220.132 177.081 221.955 175.86C223.774 174.63 225.178 173.319 226.138 172.102C226.661 171.526 227.036 170.946 227.374 170.452C227.541 170.204 227.706 169.982 227.838 169.767C227.959 169.548 228.069 169.348 228.17 169.167C228.362 168.824 228.514 168.555 228.626 168.354C228.732 168.173 228.789 168.081 228.796 168.084C228.802 168.087 228.758 168.185 228.665 168.374C228.561 168.579 228.421 168.855 228.243 169.208C228.148 169.392 228.043 169.596 227.927 169.821C227.8 170.04 227.64 170.267 227.477 170.52C227.148 171.024 226.781 171.615 226.263 172.204C225.314 173.446 223.913 174.789 222.085 176.051C220.252 177.304 217.923 178.42 215.177 179.01C212.444 179.588 209.283 179.689 206.084 178.832C202.914 177.966 199.642 176.326 197.04 173.647C196.356 173.013 195.784 172.262 195.182 171.524C194.652 170.735 194.068 169.961 193.642 169.082C193.148 168.24 192.801 167.316 192.416 166.4C192.124 165.45 191.796 164.499 191.63 163.496C191.255 161.513 191.097 159.426 191.382 157.348C191.641 155.271 192.226 153.21 193.117 151.252C194.058 149.319 195.275 147.556 196.709 146.034C198.128 144.492 199.835 143.285 201.603 142.313C202.48 141.803 203.421 141.451 204.339 141.071C205.29 140.785 206.222 140.464 207.186 140.309C207.662 140.207 208.136 140.111 208.617 140.079C209.096 140.034 209.572 139.967 210.046 139.943C210.998 139.938 211.94 139.902 212.864 140.025C216.584 140.328 219.93 141.81 222.615 143.705C225.313 145.628 227.247 148.133 228.541 150.61C229.835 153.105 230.459 155.614 230.661 157.826C230.852 160.042 230.71 161.978 230.358 163.503C230.234 164.277 230.012 164.937 229.833 165.512C229.742 165.798 229.669 166.067 229.581 166.305C229.482 166.536 229.392 166.748 229.31 166.939C229.152 167.301 229.029 167.585 228.937 167.796C228.85 167.99 228.802 168.087 228.796 168.084Z" fill="#263238"/>
<g opacity="0.3">
<path d="M228.57 168.204C228.461 168.158 228.754 167.343 229.111 165.849C229.458 164.36 229.847 162.153 229.647 159.448C229.545 158.101 229.299 156.636 228.84 155.122C228.368 153.615 227.701 152.055 226.761 150.558C226.295 149.808 225.771 149.068 225.172 148.367C224.577 147.663 223.93 146.977 223.205 146.351C222.484 145.723 221.715 145.124 220.878 144.599C220.043 144.072 219.159 143.6 218.231 143.19C217.297 142.793 216.347 142.47 215.393 142.22C214.437 141.968 213.473 141.817 212.522 141.719C211.57 141.619 210.626 141.615 209.706 141.663C208.785 141.705 207.887 141.83 207.021 142.001C205.287 142.339 203.692 142.92 202.271 143.607C200.853 144.306 199.617 145.128 198.563 145.975C196.454 147.679 195.111 149.472 194.262 150.743C193.417 152.026 193.023 152.797 192.914 152.749C192.834 152.716 193.048 151.864 193.763 150.449C194.481 149.049 195.747 147.074 197.885 145.167C198.953 144.219 200.23 143.294 201.715 142.499C203.204 141.717 204.894 141.05 206.748 140.648C207.673 140.445 208.636 140.293 209.626 140.232C210.616 140.166 211.633 140.159 212.661 140.255C213.688 140.349 214.729 140.507 215.762 140.772C216.795 141.036 217.822 141.383 218.827 141.812C219.828 142.253 220.782 142.765 221.68 143.338C222.58 143.91 223.406 144.563 224.177 145.248C224.951 145.932 225.641 146.679 226.269 147.447C226.902 148.212 227.451 149.018 227.935 149.833C228.909 151.46 229.579 153.149 230.028 154.771C230.463 156.398 230.662 157.963 230.7 159.391C230.772 162.255 230.197 164.53 229.668 166.013C229.125 167.501 228.649 168.24 228.57 168.204Z" fill="black"/>
</g>
<g opacity="0.3">
<path d="M208.069 171.256L206.658 174.372L203.88 173.11L205.253 170.078C202.579 168.662 200.329 166.602 199.343 164.712L202.409 162.012C203.332 163.672 204.991 165.331 206.905 166.435L209.009 161.789C206.265 159.638 203.286 157.044 205.089 153.066C206.425 150.118 209.711 148.559 214.328 150.052L215.727 146.964L218.506 148.226L217.131 151.259C219.14 152.372 220.916 153.848 222.003 155.516L219.063 158.307C218.011 156.857 216.782 155.728 215.467 154.93L213.324 159.659C216.081 161.782 219.004 164.351 217.228 168.272C215.917 171.165 212.671 172.709 208.069 171.256ZM210.862 157.7L212.651 153.751C211.028 153.416 210.079 153.958 209.662 154.876C209.222 155.849 209.815 156.757 210.862 157.7ZM212.604 166.575C213.045 165.601 212.479 164.708 211.473 163.746L209.733 167.585C211.261 167.91 212.201 167.464 212.604 166.575Z" fill="black"/>
</g>
<path d="M71.2467 126.669C63.8153 130.522 58.1162 137.157 54.0188 144.462C49.9214 151.767 47.2804 159.783 44.6647 167.742L42.3758 208.785C51.023 194.06 57.9633 176.748 59.8385 159.77C57.9202 159.6 56.0019 159.429 54.0842 159.257C57.9424 158.668 61.1812 155.87 63.2416 152.551C65.3021 149.233 66.3631 145.407 67.3981 141.64C65.0578 141.988 62.7175 142.336 60.3772 142.685C65.8745 139.011 69.8602 133.138 71.2467 126.669Z" fill="#455A64"/>
<g opacity="0.3">
<path d="M71.2467 126.669C63.8153 130.522 58.1162 137.157 54.0188 144.462C49.9214 151.767 47.2804 159.783 44.6647 167.742L42.3758 208.785C51.023 194.06 57.9633 176.748 59.8385 159.77C57.9202 159.6 56.0019 159.429 54.0842 159.257C57.9424 158.668 61.1812 155.87 63.2416 152.551C65.3021 149.233 66.3631 145.407 67.3981 141.64C65.0578 141.988 62.7175 142.336 60.3772 142.685C65.8745 139.011 69.8602 133.138 71.2467 126.669Z" fill="black"/>
</g>
<path d="M41.0952 218.402C41.0952 218.402 22.3266 195.914 22.543 174.447H30.1248C30.1248 174.447 21.8894 169.026 22.5411 165.99C23.1928 162.954 23.4092 151.461 23.4092 151.461L30.3412 153.196C30.3412 153.196 25.1422 150.594 24.4924 146.474C23.8426 142.354 26.009 123.272 26.009 123.272C26.009 123.272 34.457 132.162 37.0568 141.27C39.656 150.377 46.4795 161.003 44.4762 188.759C42.4722 216.515 41.0952 218.402 41.0952 218.402Z" fill="#455A64"/>
<path d="M50.6106 220.525C50.6106 220.525 70.9446 206.965 75.4628 189.658L69.3671 187.998C69.3671 187.998 77.1729 185.443 77.3125 182.859C77.4521 180.276 79.7899 170.988 79.7899 170.988L73.8376 170.865C73.8376 170.865 78.5861 169.912 80.0088 166.741C81.4315 163.571 83.8606 147.755 83.8606 147.755C83.8606 147.755 75.1252 153.053 71.0449 159.806C66.9646 166.559 59.1563 173.607 54.701 196.361C50.2457 219.115 50.6106 220.525 50.6106 220.525Z" fill="#455A64"/>
<path d="M31.1363 142.878C31.142 142.877 31.1642 142.956 31.2029 143.112C31.2435 143.284 31.2968 143.512 31.3653 143.804C31.5049 144.433 31.7042 145.329 31.9587 146.473C32.2182 147.632 32.5203 149.053 32.8477 150.707C33.1808 152.36 33.5698 154.241 33.9499 156.33C34.7527 160.5 35.5998 165.485 36.473 171.03C37.3189 176.58 38.1635 182.696 38.9148 189.131C39.6509 195.57 40.222 201.719 40.6637 207.316C41.078 212.916 41.3896 217.963 41.5584 222.206C41.6644 224.327 41.7145 226.247 41.7665 227.932C41.8243 229.618 41.8541 231.07 41.8655 232.258C41.8789 233.43 41.889 234.347 41.896 234.992C41.896 235.291 41.896 235.526 41.8954 235.702C41.8934 235.862 41.8896 235.945 41.8839 235.945C41.8782 235.945 41.8706 235.863 41.8617 235.703C41.8535 235.526 41.8427 235.291 41.8294 234.993C41.8078 234.349 41.7767 233.433 41.7367 232.261C41.7056 231.074 41.6568 229.623 41.5812 227.939C41.5114 226.254 41.4448 224.336 41.3242 222.217C41.1256 217.978 40.7906 212.935 40.3597 207.34C39.9015 201.747 39.3215 195.605 38.5861 189.169C37.8354 182.738 37.0003 176.626 36.1716 171.077C35.3162 165.532 34.4931 160.545 33.7202 156.373C33.3547 154.282 32.9822 152.399 32.6662 150.743C32.3559 149.086 32.0722 147.662 31.8324 146.499C31.6039 145.35 31.425 144.449 31.2993 143.818C31.2441 143.524 31.201 143.293 31.1693 143.119C31.142 142.96 31.1305 142.879 31.1363 142.878Z" fill="#263238"/>
<path d="M38.4916 232.173C38.4916 232.173 21.3158 212.665 15.9828 200.872L20.0085 199.15C17.0902 199.632 14.1007 198.376 11.8379 196.47C9.57499 194.563 7.91305 192.056 6.28412 189.584L11.5878 188.687C6.76512 187.332 2.51542 184.037 0 179.701C6.25874 180.731 11.921 184.172 16.5863 188.474C20.3652 191.956 23.5647 196 26.6372 200.131C28.1361 202.146 29.4477 204.294 30.5405 206.555C33.4265 212.529 38.5017 225.008 38.4916 232.173Z" fill="#455A64"/>
<path d="M75.7324 159.11C75.7375 159.113 75.7102 159.18 75.6524 159.309C75.5852 159.452 75.4976 159.639 75.3878 159.875C75.1391 160.389 74.7882 161.114 74.3408 162.039C73.4188 163.911 72.1135 166.635 70.534 170.015C68.9495 173.393 67.127 177.446 65.1681 181.974C63.2263 186.509 61.1583 191.523 59.1004 196.831C57.0545 202.146 55.2149 207.25 53.6038 211.913C52.0097 216.583 50.6346 220.809 49.5368 224.375C48.4333 227.94 47.569 230.834 46.9929 232.84C46.7029 233.825 46.475 234.598 46.3139 235.146C46.2371 235.395 46.1762 235.592 46.1292 235.744C46.0861 235.878 46.0607 235.946 46.0556 235.944C46.0499 235.943 46.0645 235.872 46.0968 235.735C46.1356 235.581 46.1863 235.381 46.2498 235.129C46.397 234.577 46.6045 233.799 46.8691 232.806C47.4072 230.788 48.2379 227.883 49.3135 224.307C50.3833 220.73 51.7362 216.493 53.3157 211.815C54.9123 207.142 56.7449 202.031 58.7926 196.712C60.8518 191.399 62.93 186.384 64.8889 181.853C66.8643 177.328 68.7103 173.283 70.3227 169.916C71.9301 166.546 73.2677 163.836 74.2259 161.981C74.6974 161.068 75.0667 160.352 75.3288 159.845C75.4513 159.615 75.5484 159.432 75.6233 159.293C75.6899 159.169 75.7273 159.107 75.7324 159.11Z" fill="#263238"/>
<path d="M39.9492 240.533C39.9378 240.534 39.9105 240.41 39.8692 240.174C39.8254 239.901 39.7709 239.558 39.7036 239.138C39.6383 238.687 39.5551 238.137 39.4365 237.501C39.321 236.865 39.2106 236.138 39.0379 235.343C38.7302 233.746 38.2898 231.859 37.7276 229.785C37.1476 227.716 36.435 225.462 35.5662 223.139C34.6842 220.82 33.7304 218.657 32.7995 216.72C31.8515 214.791 30.9371 213.084 30.1134 211.682C29.7181 210.971 29.3208 210.352 28.9877 209.799C28.6571 209.243 28.3563 208.775 28.1075 208.394C27.8804 208.034 27.6957 207.74 27.5485 207.507C27.4235 207.302 27.3625 207.192 27.3721 207.185C27.3816 207.179 27.4609 207.277 27.6037 207.47C27.7649 207.695 27.9667 207.977 28.2148 208.323C28.48 208.694 28.7973 209.153 29.1438 209.7C29.4928 210.246 29.9053 210.858 30.3146 211.564C31.1668 212.955 32.1059 214.657 33.073 216.587C34.023 218.525 34.9894 220.695 35.8759 223.024C36.7484 225.357 37.4553 227.625 38.0214 229.707C38.5696 231.794 38.9885 233.694 39.2677 235.302C39.4263 236.102 39.5209 236.834 39.6192 237.475C39.7207 238.115 39.7855 238.669 39.8312 239.123C39.8737 239.547 39.9079 239.893 39.9359 240.168C39.9549 240.406 39.96 240.531 39.9492 240.533Z" fill="#263238"/>
<path d="M62.6128 235.944H25.021V243.62H62.6128V235.944Z" fill="#048243"/>
<path d="M28.6031 243.621L32.6694 269.44H55.3844L59.1746 243.621H28.6031Z" fill="#05B160"/>
<path d="M60.3067 243.621C60.3067 243.712 53.1957 243.786 44.4254 243.786C35.6519 243.786 28.5422 243.711 28.5422 243.621C28.5422 243.53 35.6519 243.455 44.4254 243.455C53.1951 243.455 60.3067 243.529 60.3067 243.621Z" fill="#263238"/>
<path d="M339.083 269.725H240.301C237.541 269.725 235.304 267.485 235.304 264.722V197.338C235.304 194.576 237.541 192.336 240.301 192.336H339.083C341.843 192.336 344.08 194.576 344.08 197.338V264.722C344.08 267.485 341.843 269.725 339.083 269.725Z" fill="#455A64"/>
<path d="M342.481 242.247H314.325C309.652 242.247 305.865 238.455 305.865 233.778V232.391C305.865 227.714 309.652 223.922 314.325 223.922H342.481C347.153 223.922 350.941 227.714 350.941 232.391V233.778C350.941 238.455 347.153 242.247 342.481 242.247Z" fill="#455A64"/>
<path d="M342.481 242.564H314.325C309.485 242.564 305.548 238.623 305.548 233.778V232.391C305.548 227.546 309.485 223.605 314.325 223.605H342.481C347.321 223.605 351.258 227.546 351.258 232.391V233.778C351.258 238.623 347.321 242.564 342.481 242.564ZM314.325 224.24C309.836 224.24 306.183 227.897 306.183 232.391V233.778C306.183 238.272 309.836 241.929 314.325 241.929H342.481C346.971 241.929 350.624 238.272 350.624 233.778V232.391C350.624 227.897 346.971 224.24 342.481 224.24H314.325Z" fill="#263238"/>
<path d="M321.273 236.823C323.34 233.882 322.634 229.82 319.695 227.751C316.757 225.683 312.7 226.39 310.634 229.331C308.567 232.272 309.274 236.333 312.212 238.402C315.15 240.471 319.207 239.764 321.273 236.823Z" fill="#263238"/>
<path d="M308.044 52.2656C307.852 58.9488 310.686 65.6612 315.609 70.1795C316.736 66.9113 317.863 63.6425 318.99 60.3742" fill="#263238"/>
<path d="M333.534 32.7611C330.632 31.173 327.125 30.945 323.882 31.5948C320.639 32.2446 317.616 33.7145 314.753 35.3725C313.146 36.3031 311.545 37.3258 310.39 38.7798C308.283 41.4344 306.2 45.7933 305.997 49.1784C305.832 51.915 306.879 58.7665 308.035 61.2521C309.095 63.5332 314.058 65.2699 316.508 65.8327L338.985 39.6647C338.191 36.7579 336.176 34.2062 333.534 32.7611Z" fill="#263238"/>
<path d="M337.41 36.2904L332.022 35.3255C334.967 42.3472 335.766 58.4057 337.451 65.8327C339.437 62.9475 344.05 54.1605 343.803 50.6655C343.555 47.1711 343.812 35.6945 337.41 36.2904Z" fill="#263238"/>
<path d="M340.49 47.7383C340.14 42.3503 336.558 35.7465 331.195 36.3265L318.786 39.4956C314.805 40.512 312.153 43.8767 311.863 47.9796C311.848 48.1842 311.828 47.9352 311.831 48.0889L314.601 80.2553L323.916 98.76L332.142 83.15C332.147 80.5266 332.141 74.6412 332.142 74.6545C332.142 74.6545 339.017 73.4959 340.423 64.5107C341.121 60.0413 340.881 53.724 340.49 47.7383Z" fill="#FFBF9D"/>
<path d="M336.646 55.109C336.668 55.7175 336.173 56.2384 335.538 56.274C334.906 56.3095 334.373 55.8464 334.35 55.2379C334.327 54.6294 334.823 54.1078 335.455 54.0729C336.09 54.0367 336.623 54.5004 336.646 55.109Z" fill="#263238"/>
<path d="M339.143 51.2576C339.001 51.4082 338.127 50.7647 336.889 50.7704C335.652 50.7583 334.745 51.398 334.61 51.2468C334.544 51.1801 334.689 50.9082 335.084 50.6192C335.473 50.3315 336.137 50.0501 336.908 50.052C337.68 50.0545 338.329 50.3372 338.703 50.6275C339.084 50.9184 339.213 51.1903 339.143 51.2576Z" fill="#263238"/>
<path d="M326.265 55.1088C326.288 55.7173 325.792 56.2382 325.157 56.2732C324.525 56.3087 323.992 55.8457 323.969 55.2371C323.946 54.6292 324.442 54.1071 325.075 54.0721C325.709 54.0365 326.243 54.5003 326.265 55.1088Z" fill="#263238"/>
<path d="M327.383 51.2575C327.24 51.4081 326.366 50.7639 325.128 50.7703C323.891 50.7589 322.984 51.3979 322.85 51.2467C322.784 51.18 322.927 50.9081 323.324 50.6191C323.713 50.3307 324.376 50.05 325.147 50.0512C325.919 50.0538 326.568 50.3371 326.942 50.6267C327.322 50.9183 327.452 51.1902 327.383 51.2575Z" fill="#263238"/>
<path d="M331.254 60.9936C331.249 60.9231 332.018 60.7884 333.265 60.6258C333.581 60.5921 333.88 60.5286 333.933 60.3126C334.007 60.0833 333.874 59.7428 333.72 59.375C333.421 58.6096 333.108 57.8073 332.779 56.9669C331.473 53.538 330.527 50.7182 330.665 50.6668C330.803 50.6153 331.975 53.3531 333.281 56.782C333.595 57.6275 333.895 58.4336 334.182 59.2048C334.302 59.5643 334.509 59.9721 334.349 60.4466C334.264 60.6836 334.032 60.8557 333.829 60.9104C333.627 60.9726 333.449 60.9764 333.293 60.986C332.038 61.0565 331.259 61.0641 331.254 60.9936Z" fill="#263238"/>
<path d="M320.24 71.4576C320.24 71.4576 323.16 77.6275 332.14 76.7668L332.142 74.654C332.142 74.654 326.229 75.0428 320.24 71.4576Z" fill="#FF9A6C"/>
<path d="M326.994 46.778C326.873 47.1153 325.636 46.9584 324.183 47.1369C322.727 47.2862 321.557 47.7143 321.363 47.4126C321.277 47.2684 321.481 46.9508 321.954 46.623C322.422 46.2959 323.171 45.9846 324.043 45.8855C324.915 45.7883 325.714 45.9249 326.244 46.1396C326.778 46.3537 327.046 46.6179 326.994 46.778Z" fill="#263238"/>
<path d="M338.739 47.4653C338.522 47.7473 337.668 47.457 336.643 47.4456C335.617 47.398 334.748 47.6387 334.548 47.3452C334.46 47.2023 334.596 46.9203 334.975 46.6528C335.349 46.3867 335.974 46.1682 336.679 46.1878C337.384 46.2088 337.995 46.4629 338.352 46.75C338.716 47.0384 338.835 47.3281 338.739 47.4653Z" fill="#263238"/>
<path d="M338.053 39.5339C337.504 38.1821 336.022 37.371 334.567 37.2966C333.111 37.223 331.69 37.7743 330.428 38.5048C325.083 41.5971 322.337 49.0661 317.056 52.265C315.757 53.0521 314.067 52.3311 312.962 53.3735C311.858 54.4159 311.141 56.0815 311.752 57.4726C311.043 56.4988 310.324 55.5066 309.92 54.3708C309.517 53.235 309.466 51.9138 310.068 50.8695C310.525 50.0767 311.332 49.472 311.554 48.5846C311.748 47.8039 311.441 46.987 311.474 46.1828C311.508 45.364 311.893 44.6049 312.296 43.8915C314.364 40.2295 317.21 36.9174 320.874 34.858C323.268 33.5126 326.006 32.7256 328.75 32.819C331.494 32.9123 334.234 33.9217 336.243 35.7962C337.424 36.8977 338.665 38.0386 338.053 39.5339Z" fill="#263238"/>
<path d="M313.092 54.4869C312.997 54.229 308.317 52.5381 308.254 57.5189C308.194 62.3574 313.071 61.4045 313.081 61.266C313.091 61.1269 313.092 54.4869 313.092 54.4869Z" fill="#FFBF9D"/>
<path d="M311.607 59.4189C311.586 59.4036 311.522 59.4773 311.379 59.5409C311.24 59.6031 311.001 59.645 310.75 59.5478C310.241 59.3554 309.819 58.5398 309.803 57.6676C309.795 57.2274 309.891 56.8088 310.05 56.4632C310.201 56.1107 310.432 55.8655 310.689 55.8223C310.946 55.7657 311.127 55.9214 311.184 56.0579C311.248 56.1939 311.216 56.2898 311.242 56.2987C311.255 56.3108 311.347 56.2186 311.309 56.0185C311.29 55.922 311.235 55.8077 311.122 55.7136C311.007 55.6177 310.837 55.5682 310.658 55.586C310.284 55.6082 309.946 55.9487 309.771 56.3279C309.576 56.709 309.458 57.1791 309.466 57.6739C309.488 58.649 309.979 59.5663 310.675 59.7753C311.015 59.8674 311.299 59.767 311.447 59.6546C311.597 59.5358 311.623 59.4278 311.607 59.4189Z" fill="#FF9A6C"/>
<path d="M311.169 52.0007C311.173 52.007 311.273 51.9511 311.461 51.8374C311.646 51.7199 311.931 51.563 312.271 51.3216C312.947 50.8325 313.884 50.0582 314.881 48.944C315.884 47.8362 316.933 46.3987 318.072 44.7941C319.212 43.194 320.464 41.4223 322.061 39.8222C322.874 39.0409 323.728 38.3389 324.635 37.7863C325.539 37.2292 326.486 36.8189 327.415 36.5235C329.276 35.9238 331.063 35.793 332.536 35.894C334.014 35.9867 335.183 36.3005 335.965 36.5667C336.363 36.6874 336.656 36.8214 336.861 36.8989C337.064 36.9789 337.173 37.0177 337.177 37.0107C337.18 37.0037 337.078 36.9516 336.879 36.8582C336.68 36.7668 336.39 36.62 335.995 36.4854C335.215 36.1925 334.041 35.8514 332.548 35.7377C331.06 35.6151 329.248 35.7314 327.355 36.3291C326.409 36.6238 325.446 37.0367 324.524 37.6008C323.6 38.1611 322.731 38.8732 321.907 39.6647C320.291 41.2845 319.039 43.0701 317.908 44.6759C316.778 46.2869 315.747 47.7263 314.766 48.8398C313.79 49.9591 312.879 50.7442 312.222 51.2518C311.892 51.502 311.616 51.6697 311.439 51.7987C311.258 51.9245 311.165 51.9937 311.169 52.0007Z" fill="#455A64"/>
<path d="M312.384 53.3695C312.309 54.6908 312.248 56.0864 312.858 57.2609C313.467 58.4354 315.006 59.2339 316.154 58.5771C317.09 58.0416 317.37 56.841 317.529 55.7732C317.987 52.6917 318.197 49.5766 318.682 46.4989L312.384 53.3695Z" fill="#263238"/>
<path d="M336.863 37.2324C336.858 37.2604 336.436 37.1517 335.661 37.127C334.89 37.106 333.753 37.2083 332.462 37.712C331.819 37.9629 331.135 38.2958 330.458 38.7449C329.78 39.1933 329.089 39.7301 328.391 40.3247C327.004 41.524 325.568 42.9666 324.343 44.6925C323.73 45.5557 323.186 46.4431 322.596 47.2645C322.013 48.089 321.363 48.8335 320.658 49.4458C319.253 50.668 317.806 51.5243 316.574 52.1811C315.338 52.8354 314.304 53.2934 313.591 53.611C313.254 53.7546 312.98 53.8714 312.764 53.9635C312.573 54.041 312.472 54.0779 312.467 54.069C312.464 54.0601 312.557 54.0074 312.741 53.9134C312.951 53.8092 313.218 53.6771 313.546 53.5144C314.245 53.1682 315.265 52.6842 316.483 52.0121C317.697 51.3375 319.119 50.4711 320.493 49.2578C321.177 48.6537 321.806 47.9264 322.38 47.1095C322.959 46.2964 323.501 45.4077 324.122 44.5349C325.365 42.7843 326.82 41.334 328.229 40.1335C328.939 39.5376 329.639 39.0034 330.335 38.5549C331.032 38.1046 331.735 37.7749 332.395 37.531C333.72 37.0406 334.885 36.9663 335.665 37.0202C336.057 37.0463 336.359 37.0984 336.559 37.1448C336.761 37.1937 336.865 37.2235 336.863 37.2324Z" fill="#455A64"/>
<path d="M312.251 50.3809C312.259 50.3955 312.108 50.4965 311.823 50.6699C311.492 50.8643 311.085 51.1038 310.599 51.389C310.467 51.4646 310.33 51.544 310.187 51.6253C310.034 51.7098 309.864 51.7841 309.658 51.8006C309.557 51.8063 309.437 51.7974 309.331 51.7231C309.225 51.652 309.158 51.5313 309.15 51.4042C309.14 51.1502 309.276 50.9634 309.378 50.7925C309.814 50.0944 310.292 49.3283 310.799 48.5153L310.991 48.6937C310.538 49.0298 310.01 49.2978 309.437 49.4694C308.863 49.6415 308.272 49.7069 307.707 49.6733C307.569 49.6688 307.413 49.6498 307.269 49.5983C307.128 49.5481 306.964 49.4522 306.894 49.2712C306.822 49.0946 306.89 48.8989 306.975 48.782C307.06 48.6575 307.164 48.5661 307.251 48.479C307.969 47.7835 308.507 47.0504 308.897 46.4006C309.673 45.092 309.893 44.1538 309.944 44.1722C309.959 44.1767 309.918 44.4117 309.791 44.8233C309.661 45.2331 309.44 45.8213 309.063 46.4965C308.688 47.1711 308.154 47.9334 307.426 48.6575C307.246 48.8284 307.067 49.0253 307.136 49.1772C307.193 49.3296 307.469 49.4046 307.723 49.4065C308.257 49.4351 308.815 49.3709 309.36 49.2076C309.902 49.0457 310.402 48.7935 310.833 48.4784L311.41 48.056L311.024 48.6569C310.506 49.4636 310.019 50.2234 309.574 50.9158C309.463 51.0828 309.362 51.2486 309.369 51.3877C309.375 51.5249 309.493 51.6056 309.647 51.5935C309.961 51.5777 310.245 51.3642 310.516 51.2353C311.017 50.978 311.437 50.7614 311.778 50.5854C312.076 50.4406 312.243 50.3669 312.251 50.3809Z" fill="#455A64"/>
<path d="M330.183 63.3484C329.736 62.8033 328.976 62.52 328.232 62.6217C327.717 62.6922 327.201 62.9539 326.9 63.3782C326.599 63.8025 326.552 64.3933 326.85 64.7795C327.186 65.2153 327.861 65.2972 328.425 65.1206C328.989 64.944 329.467 64.5604 329.921 64.1792C330.046 64.0738 330.174 63.9632 330.251 63.8216C330.326 63.6799 330.337 63.497 330.235 63.3852" fill="#FF9A6C"/>
<path d="M327.114 61.4236C327.308 61.4065 327.35 62.6801 328.486 63.5504C329.62 64.4238 330.995 64.2383 331.011 64.4162C331.032 64.4956 330.712 64.6728 330.131 64.7058C329.56 64.7427 328.721 64.5877 328.025 64.0554C327.332 63.5218 327.018 62.7906 326.957 62.2691C326.892 61.7387 327.026 61.4192 327.114 61.4236Z" fill="#263238"/>
<path d="M345.145 147.407L350.337 159.155L325.118 168.605L319.475 155.965L345.145 147.407Z" fill="#263238"/>
<path d="M396.112 218.909L403.012 233.817C403.012 233.817 420.238 231.536 421.781 234.167L393.615 248.864L381.912 226.077L396.112 218.909Z" fill="#455A64"/>
<path d="M393.822 237.004C393.346 237.436 393.279 238.253 393.691 238.748C394.103 239.243 394.933 239.318 395.417 238.893C395.902 238.469 396.011 237.49 395.546 237.045C395.081 236.6 394.102 236.565 393.734 237.093" fill="#E0E0E0"/>
<path d="M393.613 248.863L392.681 247.048L420.306 233.333C420.306 233.333 421.49 233.429 422 234.246L393.613 248.863Z" fill="#263238"/>
<path d="M403.317 233.779C403.383 233.921 402.717 234.339 402.257 235.137C401.778 235.924 401.73 236.709 401.574 236.72C401.431 236.758 401.216 235.816 401.788 234.86C402.353 233.897 403.282 233.635 403.317 233.779Z" fill="#263238"/>
<path d="M406.946 233.497C407.047 233.616 406.562 234.161 406.388 234.993C406.189 235.82 406.394 236.52 406.252 236.585C406.132 236.674 405.62 235.904 405.857 234.874C406.084 233.841 406.875 233.364 406.946 233.497Z" fill="#263238"/>
<path d="M410.472 236.224C410.36 236.318 409.811 235.719 409.782 234.771C409.746 233.823 410.251 233.187 410.369 233.273C410.506 233.348 410.29 233.974 410.327 234.752C410.345 235.531 410.604 236.14 410.472 236.224Z" fill="#263238"/>
<path d="M401.354 230.533C401.359 230.69 400.621 230.823 399.859 231.278C399.088 231.717 398.608 232.294 398.475 232.212C398.343 232.152 398.68 231.329 399.585 230.806C400.486 230.277 401.366 230.388 401.354 230.533Z" fill="#263238"/>
<path d="M400.264 227.12C400.295 227.178 399.786 227.544 398.828 227.841C398.35 227.987 397.76 228.107 397.096 228.141C396.764 228.158 396.413 228.154 396.052 228.122C395.877 228.104 395.678 228.098 395.448 228.005C395.22 227.938 394.944 227.611 395.007 227.294C395.042 226.999 395.253 226.773 395.457 226.663C395.665 226.549 395.857 226.505 396.032 226.464C396.39 226.38 396.742 226.333 397.078 226.317C397.751 226.289 398.354 226.378 398.839 226.514C399.814 226.792 400.305 227.198 400.272 227.25C400.232 227.328 399.687 227.055 398.755 226.89C398.29 226.808 397.727 226.767 397.112 226.819C396.805 226.847 396.484 226.899 396.16 226.983C395.817 227.057 395.558 227.186 395.549 227.36C395.547 227.427 395.554 227.448 395.662 227.505C395.77 227.553 395.933 227.571 396.105 227.589C396.442 227.626 396.769 227.64 397.081 227.638C397.706 227.632 398.268 227.559 398.735 227.465C399.668 227.279 400.227 227.043 400.264 227.12Z" fill="#263238"/>
<path d="M369.311 242.866L368.439 259.273C368.439 259.273 384.728 265.327 384.862 268.375L353.099 268.168L353.41 242.548L369.311 242.866Z" fill="#455A64"/>
<path d="M358.828 257.784C358.204 257.943 357.763 258.634 357.896 259.264C358.029 259.894 358.727 260.349 359.354 260.201C359.98 260.053 360.535 259.239 360.332 258.628C360.128 258.017 359.279 257.528 358.707 257.822" fill="#E0E0E0"/>
<path d="M353.099 268.166L353.124 266.126L383.949 266.947C383.949 266.947 384.95 267.587 385.019 268.548L353.099 268.166Z" fill="#263238"/>
<path d="M368.726 259.382C368.718 259.539 367.934 259.596 367.155 260.087C366.363 260.558 365.954 261.229 365.812 261.165C365.668 261.132 365.918 260.199 366.871 259.621C367.819 259.035 368.762 259.238 368.726 259.382Z" fill="#263238"/>
<path d="M372.065 260.833C372.098 260.985 371.415 261.24 370.872 261.894C370.309 262.532 370.163 263.247 370.007 263.237C369.86 263.259 369.768 262.34 370.458 261.539C371.142 260.733 372.065 260.683 372.065 260.833Z" fill="#263238"/>
<path d="M373.906 264.895C373.763 264.926 373.559 264.139 373.976 263.287C374.387 262.433 375.131 262.107 375.195 262.239C375.281 262.369 374.798 262.821 374.467 263.526C374.118 264.222 374.062 264.882 373.906 264.895Z" fill="#263238"/>
<path d="M368.509 255.594C368.44 255.736 367.725 255.507 366.84 255.552C365.952 255.579 365.259 255.864 365.18 255.729C365.091 255.614 365.774 255.045 366.818 255.007C367.862 254.96 368.588 255.472 368.509 255.594Z" fill="#263238"/>
<path d="M369.141 252.067C369.141 252.131 368.521 252.218 367.534 252.031C367.044 251.937 366.466 251.766 365.863 251.485C365.562 251.344 365.254 251.177 364.949 250.98C364.803 250.882 364.629 250.784 364.471 250.594C364.3 250.427 364.209 250.01 364.413 249.758C364.582 249.514 364.874 249.413 365.105 249.411C365.341 249.408 365.532 249.458 365.706 249.505C366.062 249.598 366.395 249.722 366.699 249.865C367.307 250.155 367.798 250.516 368.163 250.864C368.894 251.566 369.139 252.156 369.084 252.185C369.012 252.236 368.659 251.739 367.911 251.156C367.539 250.867 367.062 250.566 366.493 250.324C366.208 250.205 365.901 250.101 365.576 250.023C365.238 249.928 364.949 249.921 364.859 250.071C364.827 250.128 364.822 250.151 364.891 250.251C364.963 250.344 365.1 250.436 365.244 250.533C365.524 250.724 365.807 250.89 366.083 251.033C366.638 251.321 367.17 251.52 367.626 251.656C368.541 251.929 369.145 251.982 369.141 252.067Z" fill="#263238"/>
<path d="M296.673 164.096C296.673 164.096 360.316 156.121 364.063 156.12C372.868 156.116 378.393 162.835 379.707 168.019C380.68 171.854 400.27 227.251 400.27 227.251L385.818 234.749L364.565 196.947L353.734 178.084L297.915 186.718L296.673 164.096Z" fill="#263238"/>
<path d="M356.364 176.343C356.364 176.343 365.086 176.343 369.796 183.327C372.565 187.433 371.592 194.77 371.647 200.308C371.723 207.847 369.903 253.784 369.903 253.784L352.063 254.082L348.325 206.205L348.546 197.357L312.926 194.457C312.926 194.457 309.682 183.648 317.659 175.12C318.685 174.023 356.364 176.343 356.364 176.343Z" fill="#263238"/>
<path d="M302.112 148.697C302.112 148.697 288.043 170.37 296.673 186.652C300.786 194.413 313.092 194.403 313.092 194.403L325.711 178.585V152.417L302.112 148.697Z" fill="#263238"/>
<path d="M313.092 194.402C313.09 194.397 313.17 194.355 313.329 194.278C313.505 194.196 313.74 194.086 314.039 193.946C314.685 193.654 315.606 193.236 316.784 192.703C319.192 191.628 322.646 190.088 326.906 188.188C331.19 186.291 336.283 184.037 341.937 181.535C344.767 180.286 347.738 178.975 350.817 177.617C351.596 177.289 352.344 176.907 353.172 176.624C353.986 176.321 354.842 176.133 355.707 175.976C357.444 175.708 359.239 175.703 361.025 175.93C362.812 176.151 364.549 176.63 366.144 177.384C366.929 177.78 367.702 178.217 368.344 178.824C369.003 179.405 369.525 180.111 369.96 180.847C370.823 182.329 371.305 183.979 371.449 185.617C371.519 186.446 371.471 187.242 371.473 188.036C371.464 188.828 371.456 189.612 371.448 190.386C371.377 196.574 371.313 202.148 371.26 206.838C371.193 211.505 371.14 215.289 371.103 217.928C371.077 219.222 371.056 220.234 371.042 220.943C371.031 221.273 371.023 221.533 371.017 221.727C371.009 221.903 371.002 221.993 370.996 221.993C370.99 221.993 370.985 221.903 370.98 221.726C370.978 221.532 370.974 221.272 370.969 220.941C370.968 220.232 370.966 219.219 370.963 217.926C370.973 215.287 370.988 211.503 371.007 206.835C371.038 202.146 371.076 196.572 371.118 190.384C371.124 189.61 371.13 188.826 371.136 188.034C371.132 187.242 371.177 186.432 371.108 185.645C370.966 184.059 370.493 182.453 369.657 181.023C369.237 180.313 368.734 179.635 368.105 179.083C367.499 178.51 366.75 178.086 365.989 177.702C364.438 176.972 362.733 176.5 360.978 176.283C359.225 176.061 357.461 176.065 355.761 176.326C354.917 176.479 354.081 176.662 353.29 176.955C352.495 177.224 351.725 177.614 350.953 177.938C347.87 179.289 344.897 180.593 342.065 181.836C336.401 184.312 331.298 186.542 327.005 188.419C322.726 190.275 319.258 191.779 316.839 192.828C315.65 193.336 314.719 193.733 314.067 194.011C313.762 194.138 313.522 194.237 313.342 194.31C313.181 194.377 313.095 194.408 313.092 194.402Z" fill="#455A64"/>
<path d="M362.807 156.119C362.816 156.21 349.449 157.716 332.952 159.482C316.451 161.249 303.07 162.608 303.06 162.516C303.05 162.425 316.416 160.92 332.917 159.153C349.414 157.387 362.797 156.029 362.807 156.119Z" fill="#455A64"/>
<path d="M347.075 124.54C348.112 121.243 351.726 109.112 350.915 102.717C350.266 97.6071 345.697 91.0643 344.327 87.5706C343.682 85.926 338.549 84.2306 335.486 83.3254L332.44 79.723L332.185 81.4813C330.703 83.3565 327.739 84.7032 324.912 84.4516C320.386 84.0489 316.697 82.1972 314.206 79.4664C302.456 83.0529 302.493 83.8539 300.234 84.7527C297.328 85.9101 306.024 113.787 306.024 113.787C306.024 113.787 309.139 131.298 306.209 137.202C304.558 140.527 302.649 144.315 301.242 147.406C301.242 147.406 297.337 154.863 298.173 154.669C299.931 154.262 312.138 157.223 323.598 157.824C344.8 158.937 348.852 155.793 348.852 155.793C347.745 150.366 345.887 131.324 345.891 127.632C345.891 127.022 346.892 125.124 347.075 124.54Z" fill="#80C4E9"/>
<path d="M332.812 80.5932C332.812 80.5932 346.628 84.1562 347.98 85.9945C351.656 90.9943 373.789 125.202 362.924 135.404C355.806 142.087 345.812 127.988 345.812 127.988L332.812 80.5932Z" fill="#80C4E9"/>
<path d="M361.594 120.876C361.589 120.897 361.247 120.837 360.627 120.711C359.949 120.57 359.06 120.387 357.979 120.163C355.728 119.708 352.573 119.062 348.956 118.542L349.149 118.432C348.799 119.296 348.436 120.193 348.065 121.11C347.136 123.378 346.259 125.522 345.488 127.406L345.462 127.248C347.078 129.188 348.449 130.835 349.46 132.05C349.91 132.607 350.279 133.065 350.569 133.424C350.822 133.746 350.95 133.923 350.936 133.934C350.922 133.945 351.955 134.402 350.489 133.488C350.18 133.143 349.787 132.704 349.308 132.17C348.271 130.976 346.864 129.357 345.207 127.45L345.145 127.379L345.181 127.292C345.941 125.404 346.806 123.256 347.721 120.982C348.094 120.066 348.459 119.17 348.811 118.306L348.864 118.176L349.004 118.197C352.644 118.738 355.787 119.426 358.031 119.943C359.151 120.203 360.044 120.428 360.656 120.593C361.268 120.756 361.599 120.855 361.594 120.876Z" fill="#263238"/>
<path d="M348.307 119.267C348.282 119.263 348.321 118.864 348.411 118.146C348.51 117.369 348.639 116.344 348.796 115.105C349.093 112.542 349.505 108.97 349.135 105.053C348.786 101.126 347.438 97.7538 346.279 95.4454C345.698 94.2855 345.173 93.3733 344.807 92.7438C344.441 92.1143 344.232 91.7688 344.255 91.7548C344.266 91.7484 344.331 91.8266 344.445 91.9816C344.56 92.1366 344.724 92.3684 344.926 92.674C345.33 93.2831 345.891 94.182 346.505 95.3355C347.729 97.6287 349.136 101.039 349.491 105.02C349.865 108.986 349.407 112.577 349.046 115.137C348.859 116.42 348.677 117.453 348.548 118.166C348.416 118.879 348.331 119.271 348.307 119.267Z" fill="#263238"/>
<g opacity="0.3">
<path d="M303.061 144.819L329.209 132.765L327.44 127.591L331.461 126.055L338.019 126.911C341.308 127.339 344.608 126.209 346.943 123.853L330.657 119.726L312.075 123.694L307.352 109.99L306.188 114.005L307.159 122.624L307.817 131.94L303.061 144.819Z" fill="black"/>
</g>
<path d="M300.564 84.6168C300.564 84.6168 295.422 86.5771 293.873 92.2909C293.873 92.2909 292.758 94.5377 291.848 98.5422C289.641 108.262 284.881 126.521 284.69 131.36C284.346 140.111 291.3 142.594 295.054 143.361C298.808 144.128 324.897 130.615 324.897 130.615L319.476 115.87L303.541 122.47C303.541 122.47 307.18 111.226 308.228 106.629C309.275 102.03 300.564 84.6168 300.564 84.6168Z" fill="#80C4E9"/>
<path d="M349.053 116.808C348.732 115.367 348.683 113.866 348.908 112.406C349.043 111.529 349.165 110.617 349.001 109.744C348.836 108.871 348.026 107.949 347.141 108.02L345.811 114.428L349.053 116.808Z" fill="#FFBF9D"/>
<path d="M348.437 101.766L343.745 124.416L332.622 123.739L335.918 101.333C336.005 100.743 336.511 100.306 337.107 100.307L347.263 100.321C348.023 100.322 348.591 101.021 348.437 101.766Z" fill="#263238"/>
<path d="M335.929 107.65C335.945 107.653 336.004 107.416 336.098 106.984C336.195 106.51 336.321 105.893 336.472 105.151C336.625 104.362 336.803 103.442 336.998 102.428C337.025 102.302 337.042 102.161 337.079 102.059C337.12 101.951 337.186 101.851 337.276 101.773C337.364 101.695 337.473 101.638 337.591 101.612C337.701 101.584 337.842 101.598 337.987 101.594C338.554 101.591 339.141 101.589 339.743 101.587C342.151 101.574 344.33 101.549 345.907 101.519C346.664 101.5 347.292 101.484 347.775 101.472C348.216 101.455 348.46 101.439 348.46 101.423C348.46 101.407 348.216 101.393 347.775 101.382C347.291 101.375 346.663 101.366 345.907 101.355C344.329 101.342 342.15 101.342 339.742 101.354C339.141 101.358 338.554 101.363 337.986 101.366C337.848 101.373 337.704 101.354 337.542 101.393C337.387 101.427 337.244 101.504 337.129 101.607C337.013 101.71 336.927 101.842 336.875 101.985C336.825 102.136 336.816 102.26 336.789 102.389C336.611 103.407 336.45 104.33 336.312 105.121C336.189 105.869 336.088 106.49 336.01 106.967C335.943 107.404 335.914 107.647 335.929 107.65Z" fill="#455A64"/>
<path d="M341.875 102.709C341.98 102.509 342.205 102.265 342.538 102.378C342.669 102.393 342.922 102.59 342.934 102.82C342.945 103.045 342.825 103.276 342.628 103.386C342.43 103.496 342.165 103.474 341.995 103.326C341.825 103.177 341.769 102.909 341.875 102.709Z" fill="#FAFAFA"/>
<path d="M342.182 109.543C342.438 109.609 348.324 112.65 348.324 112.65L351.395 115.891C351.395 115.891 352.502 117.767 351.603 120.694C350.705 123.619 349.238 124.648 345.855 125.486L339.461 124.475L336.229 121.82C335.593 121.298 335.338 120.439 335.588 119.653L335.631 119.517L335.264 118.906C335.033 118.522 335.055 118.036 335.321 117.674C335.683 117.18 336.377 117.073 336.872 117.435L340.517 120.102L343.022 120.433L343.397 119.61L339.725 117.701L335.051 114.08C334.433 113.601 334.338 112.704 334.843 112.107C335.274 111.596 336.01 111.471 336.586 111.809L340.927 114.364L345.46 116.366L344.745 114.564L339.417 110.616C339.416 110.617 338.997 108.728 342.182 109.543Z" fill="#FFBF9D"/>
<path d="M341.646 106.437C341.646 106.437 340.421 105.735 338.382 106.579C336.343 107.423 333.748 108.699 333.748 108.699L329.843 109.815L330.304 108.849C330.304 108.849 334.158 109.239 333.974 106.435L331.651 106.536L329.657 105.51L325.734 109.333L324.255 114.74L319.932 116.98L323.327 126.229L329.427 122.841L337.07 122.691L339.87 120.428L340.18 117.549L342.92 114.755C342.92 114.755 343.269 113.355 342.005 113.221C340.741 113.087 337.698 116.11 337.698 116.11L334.649 116.185C334.649 116.185 334.125 115.704 334.554 115.433C334.982 115.163 343.972 110.741 344.37 109.749C344.767 108.756 345.179 108.109 344.286 107.833C343.394 107.557 341.906 108.062 341.906 108.062C341.906 108.062 342.323 106.653 341.646 106.437Z" fill="#FFBF9D"/>
<path d="M334.189 111.962C334.217 112.02 336.011 111.183 338.194 110.093C340.378 109.003 342.125 108.073 342.096 108.015C342.067 107.958 340.274 108.795 338.09 109.885C335.906 110.975 334.159 111.905 334.189 111.962Z" fill="#FF9A6C"/>
<path d="M332.375 119.148C332.372 119.163 332.534 119.217 332.833 119.296C333.132 119.374 333.566 119.484 334.113 119.579C334.658 119.673 335.321 119.756 336.062 119.715C336.802 119.677 337.615 119.471 338.374 119.074C339.908 118.281 340.927 117.066 341.606 116.207C341.946 115.77 342.204 115.405 342.38 115.15C342.554 114.895 342.644 114.749 342.631 114.739C342.602 114.717 342.182 115.257 341.479 116.102C340.772 116.931 339.751 118.101 338.27 118.866C337.535 119.249 336.763 119.45 336.049 119.499C335.333 119.552 334.682 119.487 334.139 119.415C333.052 119.258 332.383 119.109 332.375 119.148Z" fill="#FF9A6C"/>
<path d="M319.905 116.98C319.902 116.975 319.995 116.919 320.179 116.816C320.38 116.707 320.653 116.559 321.002 116.369C321.747 115.973 322.819 115.404 324.194 114.675L324.157 114.721C324.551 113.249 325.041 111.421 325.607 109.306L325.614 109.279L325.635 109.259C326.797 108.118 328.115 106.824 329.543 105.422L329.606 105.36L329.686 105.401C330.304 105.716 330.985 106.064 331.683 106.42L331.618 106.406C332.338 106.373 333.13 106.336 333.94 106.299L334.083 106.293L334.083 106.427C334.08 106.842 334.071 107.294 333.836 107.686C333.623 108.078 333.27 108.384 332.874 108.584C332.068 108.973 331.166 109.049 330.263 108.995L330.41 108.912C330.269 109.21 330.111 109.543 329.951 109.879L329.776 109.671C331.004 109.318 332.326 108.938 333.678 108.55L333.653 108.56C334.882 107.996 336.141 107.418 337.426 106.829C338.643 106.208 340.213 105.634 341.701 106.296L341.67 106.282C341.851 106.339 342.002 106.494 342.07 106.658C342.141 106.823 342.166 106.993 342.169 107.155C342.174 107.482 342.123 107.793 342.037 108.11L341.827 107.908C342.277 107.764 342.734 107.658 343.217 107.609C343.692 107.577 344.221 107.54 344.705 107.877C344.823 107.969 344.92 108.119 344.946 108.275C344.971 108.43 344.947 108.569 344.919 108.699C344.854 108.954 344.757 109.18 344.664 109.405L344.525 109.739C344.509 109.788 344.472 109.861 344.424 109.934C344.378 109.996 344.332 110.041 344.285 110.094C344.096 110.276 343.895 110.421 343.693 110.568C342.065 111.67 340.365 112.551 338.707 113.443C337.874 113.877 337.047 114.307 336.23 114.732C335.821 114.942 335.414 115.151 335.009 115.359C334.824 115.463 334.553 115.576 334.529 115.657C334.48 115.733 334.595 115.945 334.73 116.068L334.618 116.026C335.65 116.002 336.666 115.978 337.667 115.955L337.559 116.001C338.489 115.109 339.435 114.277 340.49 113.611C340.753 113.444 341.034 113.3 341.331 113.186C341.624 113.077 341.998 113.027 342.309 113.143C342.635 113.237 342.915 113.518 343.009 113.841C343.106 114.162 343.102 114.477 343.035 114.793L343.027 114.83L342.998 114.86C342.046 115.826 341.134 116.753 340.252 117.649L340.291 117.567C340.181 118.557 340.075 119.515 339.973 120.445L339.967 120.499L339.925 120.533C338.942 121.323 338.008 122.072 337.118 122.787L337.086 122.813L337.045 122.813C334.086 122.859 331.52 122.897 329.403 122.929L329.443 122.918C327.491 123.982 325.964 124.815 324.906 125.392C324.396 125.664 324 125.876 323.715 126.028C323.589 126.093 323.489 126.143 323.408 126.185C323.339 126.22 323.303 126.235 323.301 126.232C323.299 126.228 323.331 126.206 323.397 126.165C323.475 126.118 323.571 126.06 323.692 125.987C323.971 125.826 324.36 125.601 324.862 125.312C325.91 124.719 327.424 123.862 329.359 122.768L329.377 122.758L329.4 122.757C331.516 122.706 334.082 122.645 337.041 122.574L336.968 122.601C337.854 121.881 338.783 121.125 339.761 120.33L339.714 120.417C339.811 119.487 339.912 118.528 340.016 117.538L340.022 117.49L340.055 117.455C340.933 116.556 341.843 115.625 342.79 114.655L342.752 114.723C342.868 114.213 342.748 113.563 342.217 113.429C341.713 113.25 341.157 113.572 340.652 113.872C339.637 114.516 338.693 115.348 337.783 116.226L337.737 116.27L337.676 116.272C336.675 116.297 335.659 116.323 334.626 116.349L334.559 116.351L334.514 116.308C334.416 116.212 334.341 116.118 334.275 115.996C334.215 115.879 334.16 115.705 334.235 115.533C334.31 115.365 334.464 115.287 334.557 115.237L334.861 115.076C335.266 114.867 335.673 114.657 336.082 114.446C336.898 114.02 337.722 113.59 338.555 113.156C340.205 112.268 341.912 111.378 343.503 110.302C343.696 110.161 343.892 110.018 344.054 109.862C344.087 109.823 344.128 109.783 344.154 109.746C344.172 109.716 344.196 109.685 344.219 109.618L344.359 109.28C344.529 108.86 344.783 108.329 344.496 108.135C344.184 107.907 343.686 107.898 343.249 107.94C342.8 107.984 342.35 108.088 341.932 108.222L341.64 108.315L341.722 108.02C341.798 107.743 341.847 107.441 341.841 107.167C341.839 106.889 341.748 106.648 341.57 106.597L341.564 106.595L341.538 106.583C340.942 106.302 340.188 106.276 339.516 106.403C338.829 106.517 338.194 106.83 337.551 107.127C336.269 107.711 335.014 108.283 333.789 108.842L333.774 108.849L333.763 108.853C332.409 109.238 331.086 109.614 329.856 109.963L329.538 110.054L329.681 109.755C329.842 109.42 330.001 109.086 330.143 108.79L330.186 108.699L330.291 108.706C331.136 108.761 332.021 108.684 332.746 108.334C333.105 108.154 333.407 107.89 333.59 107.557C333.795 107.228 333.803 106.826 333.809 106.449L333.951 106.577C333.14 106.61 332.348 106.642 331.628 106.671L331.593 106.672L331.563 106.657C330.867 106.296 330.188 105.945 329.571 105.625L329.714 105.603C328.276 106.995 326.949 108.279 325.778 109.411L325.806 109.364C325.216 111.473 324.707 113.295 324.297 114.763L324.288 114.794L324.26 114.808C322.871 115.512 321.789 116.059 321.036 116.44C320.679 116.616 320.4 116.754 320.196 116.855C320.007 116.942 319.908 116.986 319.905 116.98Z" fill="#FF9A6C"/>
<path d="M303.533 140.81C303.529 140.802 303.666 140.728 303.932 140.593C304.221 140.45 304.613 140.257 305.108 140.013C306.164 139.505 307.662 138.785 309.532 137.887C313.343 136.083 318.667 133.564 324.828 130.649L324.746 130.846C323.76 128.137 322.693 125.208 321.59 122.177C320.813 120.035 320.054 117.943 319.322 115.925L319.537 116.019C313.482 118.564 308.091 120.829 303.955 122.568L303.938 122.575L303.92 122.577C302.499 122.718 301.23 122.998 300.181 123.412C299.131 123.823 298.313 124.373 297.756 124.932C297.194 125.491 296.891 126.04 296.732 126.422C296.656 126.616 296.607 126.767 296.578 126.87C296.552 126.973 296.539 127.027 296.534 127.026C296.528 127.025 296.53 126.97 296.546 126.863C296.564 126.756 296.603 126.599 296.671 126.399C296.813 126.002 297.104 125.43 297.665 124.844C298.221 124.258 299.049 123.678 300.113 123.243C301.175 122.804 302.46 122.505 303.897 122.348L303.864 122.356C307.991 120.594 313.369 118.299 319.41 115.72L319.567 115.654L319.625 115.814C320.359 117.832 321.12 119.922 321.9 122.065C322.999 125.098 324.061 128.028 325.043 130.739L325.093 130.876L324.961 130.937C318.78 133.81 313.439 136.292 309.616 138.069C307.728 138.932 306.217 139.624 305.152 140.111C304.647 140.336 304.248 140.513 303.953 140.645C303.682 140.762 303.537 140.819 303.533 140.81Z" fill="#263238"/>
<path d="M308.852 100.307C308.805 100.328 308.444 99.5959 307.817 98.4385C307.192 97.2812 306.283 95.7065 305.16 94.0447C304.035 92.3842 302.912 90.955 302.07 89.9437C301.229 88.9324 300.684 88.3245 300.721 88.289C300.737 88.2731 300.893 88.4065 301.16 88.6625C301.429 88.9166 301.801 89.3015 302.246 89.79C303.138 90.767 304.3 92.1848 305.434 93.8586C306.565 95.5337 307.45 97.1395 308.025 98.3306C308.313 98.9258 308.532 99.4149 308.668 99.7592C308.806 100.103 308.873 100.297 308.852 100.307Z" fill="#263238"/>
<path d="M309.48 103.455C309.503 103.461 309.439 103.748 309.301 104.257C309.164 104.766 308.954 105.5 308.685 106.403C308.148 108.21 307.382 110.699 306.501 113.438C305.62 116.177 304.792 118.646 304.161 120.424C303.845 121.312 303.584 122.029 303.391 122.52C303.198 123.011 303.081 123.279 303.06 123.271C303.038 123.264 303.114 122.981 303.269 122.477C303.447 121.911 303.672 121.198 303.94 120.349C304.536 118.489 305.32 116.042 306.186 113.336C307.065 110.634 307.858 108.191 308.463 106.333C308.748 105.49 308.988 104.781 309.178 104.219C309.354 103.721 309.459 103.45 309.48 103.455Z" fill="#263238"/>
</svg>
