<svg width="23" height="20" viewBox="0 0 23 20" fill="none" xmlns="http://www.w3.org/2000/svg">
<path d="M22.6651 9.64089L19.9381 3.27786C19.8681 3.11432 19.7516 2.97492 19.6031 2.87699C19.4546 2.77906 19.2806 2.72691 19.1027 2.72701H16.3757V0.909003C16.3757 0.66792 16.2799 0.436712 16.1094 0.266241C15.939 0.0957699 15.7078 0 15.4667 0H0.922623V1.81801H14.5577V13.2314C14.1435 13.472 13.781 13.7921 13.4911 14.1734C13.2012 14.5547 12.9897 14.9896 12.8687 15.4531H7.15657C6.93532 14.5962 6.40916 13.8494 5.6767 13.3527C4.94425 12.856 4.05579 12.6435 3.17786 12.755C2.29993 12.8665 1.49281 13.2944 0.907786 13.9584C0.322762 14.6225 0 15.4771 0 16.3621C0 17.247 0.322762 18.1016 0.907786 18.7657C1.49281 19.4297 2.29993 19.8576 3.17786 19.9691C4.05579 20.0806 4.94425 19.8681 5.6767 19.3714C6.40916 18.8747 6.93532 18.1279 7.15657 17.2711H12.8687C13.0665 18.0512 13.5187 18.7431 14.1539 19.2374C14.789 19.7316 15.5709 20 16.3757 20C17.1805 20 17.9623 19.7316 18.5975 19.2374C19.2326 18.7431 19.6849 18.0512 19.8826 17.2711H21.8297C22.0708 17.2711 22.302 17.1753 22.4725 17.0048C22.6429 16.8343 22.7387 16.6031 22.7387 16.3621V9.99903C22.7387 9.87589 22.7137 9.75403 22.6651 9.64089ZM3.64963 18.1801C3.29006 18.1801 2.93857 18.0734 2.6396 17.8737C2.34063 17.6739 2.10761 17.39 1.97001 17.0578C1.83241 16.7256 1.79641 16.36 1.86656 16.0074C1.93671 15.6547 2.10985 15.3308 2.36411 15.0765C2.61836 14.8223 2.9423 14.6491 3.29496 14.579C3.64762 14.5088 4.01316 14.5448 4.34535 14.6824C4.67755 14.82 4.96148 15.0531 5.16125 15.352C5.36101 15.651 5.46764 16.0025 5.46764 16.3621C5.46716 16.8441 5.27546 17.3062 4.93462 17.647C4.59379 17.9879 4.13165 18.1796 3.64963 18.1801ZM16.3757 4.54502H18.5027L20.4516 9.09003H16.3757V4.54502ZM16.3757 18.1801C16.0161 18.1801 15.6646 18.0734 15.3656 17.8737C15.0667 17.6739 14.8337 17.39 14.6961 17.0578C14.5585 16.7256 14.5225 16.36 14.5926 16.0074C14.6628 15.6547 14.8359 15.3308 15.0902 15.0765C15.3444 14.8223 15.6683 14.6491 16.021 14.579C16.3737 14.5088 16.7392 14.5448 17.0714 14.6824C17.4036 14.82 17.6875 15.0531 17.8873 15.352C18.0871 15.651 18.1937 16.0025 18.1937 16.3621C18.1932 16.8441 18.0015 17.3062 17.6607 17.647C17.3198 17.9879 16.8577 18.1796 16.3757 18.1801ZM20.9207 15.4531H19.8826C19.6824 14.6744 19.2294 13.9843 18.5948 13.4907C17.9601 12.9972 17.1796 12.7283 16.3757 12.726V10.908H20.9207V15.4531Z" fill="white"/>
</svg>
